<?xml version="1.0" standalone="no"?>
<!DOCTYPE svg PUBLIC "-//W3C//DTD SVG 1.1//EN" "http://www.w3.org/Graphics/SVG/1.1/DTD/svg11.dtd" >
<svg>
<metadata>
Created by FontForge 20090622 at Thu Oct 29 10:11:06 2015
 By deploy user
Copyright (c) 2007 by Silas Dilworth. All rights reserved. Licensed to CFA Institute (cfainstitute.org) for exclusive corporate identity and branding use.
</metadata>
<defs>
<font id="CFABreuerText-RegularItalic" horiz-adv-x="528" >
  <font-face 
    font-family="CFA Breuer Text"
    font-weight="501"
    font-style="italic"
    font-stretch="normal"
    units-per-em="1000"
    panose-1="2 0 5 6 0 0 0 9 0 4"
    ascent="750"
    descent="-250"
    x-height="500"
    cap-height="650"
    bbox="-115 -193 954.128 874"
    underline-thickness="50"
    underline-position="-50"
    slope="-10"
    unicode-range="U+000D-U+2265"
  />
<missing-glyph horiz-adv-x="450" 
d="M50 0v650h350v-650h-350zM241 325l129 -285v570zM208 325l-128 285v-570zM109 620l116 -259l116 259h-232zM225 288l-116 -258h232z" />
    <glyph glyph-name=".notdef" horiz-adv-x="450" 
d="M50 0v650h350v-650h-350zM241 325l129 -285v570zM208 325l-128 285v-570zM109 620l116 -259l116 259h-232zM225 288l-116 -258h232z" />
    <glyph glyph-name=".null" horiz-adv-x="0" 
 />
    <glyph glyph-name=".null" horiz-adv-x="0" 
 />
    <glyph glyph-name="nonmarkingreturn" horiz-adv-x="333" 
 />
    <glyph glyph-name="CR" unicode="&#xd;" horiz-adv-x="0" 
 />
    <glyph glyph-name="space" unicode=" " horiz-adv-x="230" 
 />
    <glyph glyph-name="exclam" unicode="!" horiz-adv-x="241" 
d="M87 197l52 453h111l-108 -453h-55zM32 0l15 90h97l-15 -90h-97z" />
    <glyph glyph-name="quotedbl" unicode="&#x22;" horiz-adv-x="298" 
d="M97 440l17 210h90l-57 -210h-50zM221 440l17 210h90l-57 -210h-50z" />
    <glyph glyph-name="numbersign" unicode="#" horiz-adv-x="562" 
d="M495 220l-14 -54h-100l-44 -166h-61l44 166h-128l-44 -166h-60l43 166h-100l14 54h100l55 211h-100l15 54h100l44 165h60l-43 -165h128l43 165h61l-43 -165h100l-15 -54h-100l-55 -211h100zM261 431l-55 -211h128l55 211h-128z" />
    <glyph glyph-name="dollar" unicode="$" horiz-adv-x="523" 
d="M252 -20h-68l15 87q-93 6 -123 44.5t-17 111.5h78q-8 -49 14 -69.5t91 -20.5q77 0 105 20t36 63q7 42 -17 59.5t-101 24.5q-100 9 -135.5 41t-23.5 101q24 133 185 144l15 84h68l-15 -84q80 -6 110 -43t17 -112h-78q9 46 -11.5 68.5t-84.5 22.5q-114 0 -128 -81
q-7 -41 16.5 -59.5t88.5 -23.5q113 -10 148.5 -41t23.5 -101q-6 -32 -15.5 -54.5t-30 -44.5t-57.5 -34.5t-91 -15.5z" />
    <glyph glyph-name="percent" unicode="%" horiz-adv-x="663" 
d="M648 650l-535 -650h-64l534 650h65zM370 515q-14 -80 -52 -112.5t-108 -32.5q-71 0 -97.5 32.5t-12.5 112.5q14 79 52 112t109 33q70 0 96.5 -33t12.5 -112zM596 134q-14 -80 -51.5 -112.5t-108.5 -32.5t-97.5 32.5t-12.5 112.5q14 79 52 112t109 33q70 0 96.5 -33
t12.5 -112zM311 515q10 55 -4 75.5t-55 20.5t-61.5 -20t-30.5 -72q-10 -58 3 -78.5t56 -20.5q41 0 62 20t30 75zM537 134q9 54 -4.5 74.5t-54.5 20.5t-62 -20t-30 -71q-10 -58 2.5 -79t55.5 -21q41 0 62.5 20.5t30.5 75.5z" />
    <glyph glyph-name="ampersand" unicode="&#x26;" horiz-adv-x="611" 
d="M573 296h-77l-26 -145q-8 -46 10 -65t67 -19l-11 -67q-104 0 -127 62q-60 -72 -187 -72q-214 0 -182 185q10 56 46 96t87 61q-36 20 -52.5 58t-7.5 90q32 180 234 180q107 0 146 -42.5t22 -137.5h-79q11 59 -13 85.5t-88 26.5q-63 0 -98 -27t-45 -88q-10 -53 11 -84
t65 -31h317zM233 56q78 0 115.5 33t48.5 98l20 109h-165q-49 0 -86 -31.5t-46 -86.5q-21 -122 113 -122z" />
    <glyph glyph-name="quotesingle" unicode="'" horiz-adv-x="171" 
d="M97 440l17 210h90l-57 -210h-50z" />
    <glyph glyph-name="parenleft" unicode="(" horiz-adv-x="318" 
d="M136 285q-42 -234 70 -405h-65q-118 167 -76 405q42 237 219 405h65q-172 -171 -213 -405z" />
    <glyph glyph-name="parenright" unicode=")" horiz-adv-x="318" 
d="M202 285q19 124 0 225t-71 180h65q118 -168 77 -405q-20 -115 -77 -219.5t-143 -185.5h-65q80 79 136.5 183.5t77.5 221.5z" />
    <glyph glyph-name="asterisk" unicode="*" horiz-adv-x="533" 
d="M301 429l-113 -177l-75 63l165 132l-188 25l51 101l49 -31l58 -36l46 -28l-3 192h106q-13 -38 -41 -112.5t-30 -79.5q33 15 99.5 49.5l87.5 45.5l16 -101l-199 -25l120 -132l-98 -63q-5 16 -23 81t-28 96z" />
    <glyph glyph-name="plus" unicode="+" horiz-adv-x="517" 
d="M58 244l10 62h172l31 172h62l-31 -172h173l-10 -62h-173l-31 -174h-62l31 174h-172z" />
    <glyph glyph-name="comma" unicode="," horiz-adv-x="214" 
d="M3 -94l33 188h94l-73 -188h-54z" />
    <glyph glyph-name="hyphen" unicode="-" horiz-adv-x="350" 
d="M54 250l11 66h250l-11 -66h-250z" />
    <glyph glyph-name="period" unicode="." horiz-adv-x="214" 
d="M20 0l16 94h94l-16 -94h-94z" />
    <glyph glyph-name="slash" unicode="/" horiz-adv-x="331" 
d="M-18 -40l334 730h66l-335 -730h-65z" />
    <glyph glyph-name="zero" unicode="0" horiz-adv-x="553" 
d="M416 226l35 198q17 94 -8.5 130t-102.5 36q-78 0 -116 -36t-55 -131l-35 -197q-16 -94 9.5 -130t102.5 -36t115.5 36t54.5 130zM54 226l35 198q23 128 83.5 182t177.5 54t160.5 -54.5t20.5 -181.5l-35 -198q-22 -128 -82.5 -182t-177.5 -54t-160.5 54t-21.5 182z" />
    <glyph glyph-name="one" unicode="1" horiz-adv-x="337" 
d="M187 0h-80l102 580h-97l7 42l133 28h49z" />
    <glyph glyph-name="two" unicode="2" horiz-adv-x="530" 
d="M97 468q17 97 76 144.5t170 47.5q116 0 155.5 -46.5t22.5 -140.5q-11 -64 -54.5 -112t-98.5 -77l-109.5 -56.5t-97 -67t-52.5 -90.5h348l-12 -70h-429l9 52q12 69 56.5 121.5t100 83.5l110.5 59.5t97 67t51 87.5q11 64 -13.5 92t-95.5 28q-66 0 -104 -27t-50 -96h-80z
" />
    <glyph glyph-name="three" unicode="3" horiz-adv-x="549" 
d="M410 184q10 54 -14 83.5t-76 29.5h-83l12 66h80q46 0 75.5 30.5t37.5 76.5q11 64 -14 92.5t-97 28.5q-71 0 -107.5 -30t-48.5 -98h-80q34 197 246 197q112 0 155 -47t26 -144q-17 -99 -117 -136q107 -33 86 -151q-18 -98 -78.5 -145t-180.5 -47q-117 0 -161 47t-26 149
h79q-12 -68 14.5 -98t102.5 -30q77 0 117 29t52 97z" />
    <glyph glyph-name="four" unicode="4" horiz-adv-x="551" 
d="M317 0l26 151h-321l11 60l373 439h105l-76 -432h79l-12 -67h-79l-26 -151h-80zM117 218h238l63 356z" />
    <glyph glyph-name="five" unicode="5" horiz-adv-x="551" 
d="M229 581l-55 -218q79 53 163 53q95 0 135 -46.5t21 -158.5q-20 -112 -81 -166.5t-180 -54.5q-221 0 -186 201h78q-24 -133 117 -133q78 0 118 36t54 117q14 80 -12.5 113.5t-94.5 33.5q-64 0 -138 -51h-85l89 343h365l-12 -69h-296z" />
    <glyph glyph-name="six" unicode="6" horiz-adv-x="547" 
d="M170 429l-14 -83q85 44 170 44q105 0 143 -46t21 -145q-19 -103 -79 -156.5t-173 -53.5q-121 0 -164 53.5t-21 176.5l37 210q22 122 82.5 176.5t172.5 54.5q110 0 151.5 -45t25.5 -139h-80q11 61 -12.5 87.5t-95.5 26.5q-75 0 -111.5 -34t-52.5 -127zM299 333
q-74 0 -154 -44l-12 -70q-16 -94 8.5 -127t103.5 -33q75 0 113 32.5t51 105.5q14 75 -9.5 105.5t-100.5 30.5z" />
    <glyph glyph-name="seven" unicode="7" horiz-adv-x="475" 
d="M173 0h-88l333 580h-324l12 70h410l-11 -62z" />
    <glyph glyph-name="eight" unicode="8" horiz-adv-x="557" 
d="M238 -10q-123 0 -171.5 42.5t-31.5 138.5q22 124 149 161q-47 17 -66.5 56t-9.5 96q17 94 78 135t167 41q107 0 155 -41.5t31 -134.5q-22 -118 -131 -152q116 -37 94 -161q-17 -96 -79.5 -138.5t-184.5 -42.5zM342 591q-72 0 -108 -25t-47 -89q-11 -60 13.5 -88t85.5 -28
h30q122 0 142 116q11 64 -16.5 89t-99.5 25zM248 58q81 0 122 27.5t52 91.5q20 122 -117 122h-30q-138 0 -158 -122q-11 -64 19.5 -91.5t111.5 -27.5z" />
    <glyph glyph-name="nine" unicode="9" horiz-adv-x="547" 
d="M245 58q75 0 112 35t53 127l15 83q-86 -44 -169 -44q-106 0 -144.5 46.5t-20.5 145.5q18 103 78.5 156t173.5 53q121 0 163.5 -53t20.5 -176l-37 -210q-22 -123 -82 -177.5t-172 -54.5q-110 0 -152 45t-26 139h78q-11 -61 13 -88t96 -27zM281 316q74 0 154 44l12 71
q16 94 -8.5 127t-103.5 33q-75 0 -113 -32.5t-51 -105.5q-13 -76 10 -106.5t100 -30.5z" />
    <glyph glyph-name="colon" unicode=":" horiz-adv-x="214" 
d="M20 0l16 94h94l-16 -94h-94zM77 326l17 94h94l-17 -94h-94z" />
    <glyph glyph-name="semicolon" unicode=";" horiz-adv-x="214" 
d="M3 -94l33 188h94l-73 -188h-54zM77 326l17 94h94l-17 -94h-94z" />
    <glyph glyph-name="less" unicode="&#x3c;" horiz-adv-x="372" 
d="M205 -20l-138 345l260 345h73l-261 -345l139 -345h-73z" />
    <glyph glyph-name="equal" unicode="=" horiz-adv-x="517" 
d="M482 344h-407l11 62h407zM447 144h-407l11 62h407z" />
    <glyph glyph-name="greater" unicode="&#x3e;" horiz-adv-x="372" 
d="M339 325l-260 -345h-73l260 345l-138 345h73z" />
    <glyph glyph-name="question" unicode="?" horiz-adv-x="508" 
d="M219 196q8 90 11 135q96 0 139 28.5t57 107.5q12 67 -14 96t-97 29q-125 0 -144 -114h-80q32 182 234 182q113 0 156 -46.5t26 -146.5q-33 -186 -218 -198l-20 -73h-50zM162 0l15 90h97l-15 -90h-97z" />
    <glyph glyph-name="at" unicode="@" horiz-adv-x="794" 
d="M60 174l26 146q23 131 117 203t258 72q163 0 232.5 -72t46.5 -203l-26 -146q-23 -131 -117.5 -203t-257.5 -72q-161 0 -231.5 72.5t-47.5 202.5zM146 316l-24 -138q-20 -112 36 -167t191 -55q265 0 305 222l24 138q20 112 -36.5 167t-190.5 55q-266 0 -305 -222zM228 167
q17 96 138 104l126 8l7 42q7 40 -9 55.5t-65 15.5q-46 0 -69 -15.5t-30 -54.5h-56q12 67 53 93.5t110 26.5q76 0 105 -27.5t17 -93.5l-45 -253h-38l-4 35q-63 -43 -129 -43q-62 0 -91.5 27t-19.5 80zM351 110q61 0 118 40l15 87l-120 -10q-70 -6 -79 -58q-5 -30 11.5 -44.5
t54.5 -14.5z" />
    <glyph glyph-name="A" unicode="A" horiz-adv-x="523" 
d="M380 0l-18 158h-227l-71 -158h-84l305 650h101l77 -650h-83zM321 571l-156 -345h191l-33 345h-2z" />
    <glyph glyph-name="B" unicode="B" horiz-adv-x="548" 
d="M30 0l114 650h211q111 0 152 -39.5t25 -128.5q-10 -55 -43 -94.5t-80 -53.5q111 -33 90 -157q-17 -94 -74.5 -135.5t-167.5 -41.5h-227zM122 70h145q71 0 105.5 25.5t45.5 86.5q20 114 -108 114h-148zM344 580h-132l-38 -216h146q111 0 130 109q10 58 -14.5 82.5
t-91.5 24.5z" />
    <glyph glyph-name="C" unicode="C" horiz-adv-x="545" 
d="M247 60q72 0 107.5 27t47.5 97h80q-19 -104 -77.5 -149t-169.5 -45q-119 0 -161.5 52t-19.5 182l36 202q22 127 83 180.5t180 53.5q111 0 154 -45.5t24 -149.5h-80q13 69 -13 97t-97 28q-79 0 -117 -34t-53 -124l-38 -214q-16 -90 9 -124t105 -34z" />
    <glyph glyph-name="D" unicode="D" horiz-adv-x="562" 
d="M327 580h-115l-90 -510h115q86 0 130 34t60 124l34 196q17 95 -16 125.5t-118 30.5zM226 0h-196l114 650h196q125 0 174.5 -49t25.5 -183l-33 -186q-24 -134 -90 -183t-191 -49z" />
    <glyph glyph-name="E" unicode="E" horiz-adv-x="495" 
d="M30 0l114 650h370l-12 -70h-290l-38 -216h254l-12 -68h-254l-40 -226h290l-12 -70h-370z" />
    <glyph glyph-name="F" unicode="F" horiz-adv-x="471" 
d="M110 0h-80l114 650h351l-12 -70h-271l-38 -216h236l-12 -68h-236z" />
    <glyph glyph-name="G" unicode="G" horiz-adv-x="570" 
d="M358 660q111 0 154 -45t25 -149h-80q12 69 -13.5 96.5t-97.5 27.5q-79 0 -117 -34t-53 -124l-38 -214q-16 -92 9.5 -125t107.5 -33q74 0 112 29.5t49 91.5l21 115h-133l12 68h213l-64 -364h-42l-8 55q-67 -65 -175 -65q-118 0 -161 52.5t-20 180.5l36 204
q22 126 83 179.5t180 53.5z" />
    <glyph glyph-name="H" unicode="H" horiz-adv-x="565" 
d="M569 650l-114 -650h-80l52 296h-265l-52 -296h-80l114 650h80l-50 -286h265l50 286h80z" />
    <glyph glyph-name="I" unicode="I" horiz-adv-x="220" 
d="M30 0l114 650h80l-114 -650h-80z" />
    <glyph glyph-name="J" unicode="J" horiz-adv-x="363" 
d="M275 580h-123l12 70h203l-90 -512q-13 -77 -53 -112.5t-128 -35.5q-56 0 -96 10l12 70q37 -10 92 -10q43 0 64 16.5t29 61.5z" />
    <glyph glyph-name="K" unicode="K" horiz-adv-x="498" 
d="M547 650l-311 -316l202 -334h-96l-57 102t-46 77.5l-29.5 47.5t-27.5 41.5t-20 29.5l-52 -298h-80l114 650h80l-51 -288l277 288h97z" />
    <glyph glyph-name="L" unicode="L" horiz-adv-x="422" 
d="M30 0l114 650h80l-102 -580h232l-12 -70h-312z" />
    <glyph glyph-name="M" unicode="M" horiz-adv-x="717" 
d="M528 0l96 550l-272 -550h-67l-80 550l-96 -550h-79l114 650h117l76 -539h1l266 539h117l-114 -650h-79z" />
    <glyph glyph-name="N" unicode="N" horiz-adv-x="574" 
d="M578 650l-114 -650h-102l-158 535l-94 -535h-80l114 650h102l158 -535l94 535h80z" />
    <glyph glyph-name="O" unicode="O" horiz-adv-x="559" 
d="M422 220l37 210q17 93 -10 126.5t-105 33.5q-80 0 -118.5 -33.5t-55.5 -127.5l-37 -209q-16 -93 11 -126.5t106 -33.5q78 0 117 33.5t55 126.5zM53 220l37 210q23 127 85 178.5t181 51.5q118 0 162 -52t21 -178l-37 -210q-22 -127 -84 -178.5t-180 -51.5
q-119 0 -163 51.5t-22 178.5z" />
    <glyph glyph-name="P" unicode="P" horiz-adv-x="543" 
d="M165 314h128q77 0 112 27.5t48 104.5q14 81 -11.5 107.5t-102.5 26.5h-127zM30 0l114 650h206q119 0 163 -43t23 -161q-19 -109 -79 -154.5t-176 -45.5h-128l-43 -246h-80z" />
    <glyph glyph-name="Q" unicode="Q" horiz-adv-x="559" 
d="M53 220l37 210q23 127 85 178.5t181 51.5q118 0 162 -52t21 -178l-37 -210q-21 -118 -76 -170.5t-156 -58.5q-4 -27 10 -38t46 -11h62l-28 -46h-62q-47 0 -74 23t-21 72q-98 7 -134.5 59t-15.5 170zM422 220l37 210q17 93 -10 126.5t-105 33.5q-80 0 -118.5 -33.5
t-55.5 -127.5l-37 -209q-16 -93 11 -126.5t106 -33.5q78 0 117 33.5t55 126.5z" />
    <glyph glyph-name="R" unicode="R" horiz-adv-x="548" 
d="M30 0l114 650h205q119 0 163.5 -43t23.5 -161q-14 -80 -50 -125.5t-99 -62.5l81 -258h-87l-75 246h-153l-43 -246h-80zM165 314h127q77 0 112.5 27.5t48.5 104.5q14 81 -12 107.5t-103 26.5h-126z" />
    <glyph glyph-name="S" unicode="S" horiz-adv-x="537" 
d="M268 302q-107 14 -145.5 56t-23.5 125q31 177 242 177q110 0 153.5 -42.5t25.5 -141.5h-80q12 64 -13 89t-97 25q-67 0 -104 -25.5t-47 -81.5t15 -82.5t109 -37.5q123 -16 159 -58t20 -130q-17 -97 -78.5 -141t-178.5 -44q-111 0 -159.5 42t-29.5 144h80q-12 -66 17 -91
t104 -25q80 0 116.5 26.5t47.5 88.5q11 60 -13.5 86.5t-119.5 40.5z" />
    <glyph glyph-name="T" unicode="T" horiz-adv-x="458" 
d="M149 0l102 580h-164l12 70h408l-12 -70h-164l-102 -580h-80z" />
    <glyph glyph-name="U" unicode="U" horiz-adv-x="575" 
d="M144 650h80l-79 -450q-14 -78 12 -109.5t100 -31.5t111.5 31.5t51.5 109.5l79 450h80l-79 -448q-21 -119 -82 -166t-173 -47q-111 0 -156 47t-24 166z" />
    <glyph glyph-name="V" unicode="V" horiz-adv-x="533" 
d="M240 83h2l257 567h83l-305 -650h-101l-77 650h84z" />
    <glyph glyph-name="W" unicode="W" horiz-adv-x="817" 
d="M491 0l-24 565l-222 -565h-106l-30 650h83l15 -562h2l221 562h104l24 -562h2l212 562h84l-259 -650h-106z" />
    <glyph glyph-name="X" unicode="X" horiz-adv-x="515" 
d="M199 650l88 -251h1l176 251h92l-236 -317l130 -333h-91l-95 266h-1l-187 -266h-91l246 333l-124 317h92z" />
    <glyph glyph-name="Y" unicode="Y" horiz-adv-x="510" 
d="M175 0l44 253l-120 397h89l84 -317h2l196 317h89l-260 -397l-44 -253h-80z" />
    <glyph glyph-name="Z" unicode="Z" horiz-adv-x="500" 
d="M122 580l12 70h390l-11 -61l-397 -519h316l-12 -70h-410l10 59l398 521h-296z" />
    <glyph glyph-name="bracketleft" unicode="[" horiz-adv-x="311" 
d="M18 -121l143 812h176l-9 -51h-112l-125 -710h112l-9 -51h-176z" />
    <glyph glyph-name="backslash" unicode="\" horiz-adv-x="331" 
d="M177 690l76 -730h-65l-77 730h66z" />
    <glyph glyph-name="bracketright" unicode="]" horiz-adv-x="321" 
d="M322 691l-143 -812h-176l9 51h112l125 710h-112l9 51h176z" />
    <glyph glyph-name="asciicircum" unicode="^" horiz-adv-x="484" 
d="M303 583l-154 -232h-73l204 299h74l96 -299h-73l-72 232h-2z" />
    <glyph glyph-name="underscore" unicode="_" horiz-adv-x="465" 
d="M5 0l11 66h375l-11 -66h-375z" />
    <glyph glyph-name="grave" unicode="`" horiz-adv-x="243" 
d="M223 685l19 -120h-50l-58 120h89z" />
    <glyph glyph-name="a" unicode="a" horiz-adv-x="501" 
d="M23 140q12 67 62 105.5t133 34.5l158 -7l13 73q9 54 -11 76t-87 22q-63 0 -93.5 -21t-38.5 -72h-78q15 87 69.5 123t151.5 36q106 0 143.5 -37.5t21.5 -126.5l-61 -346h-49l-11 51q-81 -62 -173 -62q-85 0 -123.5 40t-26.5 111zM190 55q82 0 157 57l20 107h-159
q-92 0 -105 -78q-8 -44 13.5 -65t73.5 -21z" />
    <glyph glyph-name="b" unicode="b" horiz-adv-x="533" 
d="M236 55q68 0 110 36t57 126l11 66q16 93 -5.5 127t-86.5 34q-78 0 -151 -57l-34 -191q-12 -75 10 -108t89 -33zM233 -11q-111 0 -150.5 53t-22.5 155l83 473h78l-39 -215q89 55 161 55q96 0 134.5 -47.5t15.5 -177.5l-12 -71q-22 -127 -85.5 -176t-162.5 -49z" />
    <glyph glyph-name="c" unicode="c" horiz-adv-x="506" 
d="M299 444q-76 0 -110.5 -34t-52.5 -133l-9 -54q-18 -100 4.5 -134t98.5 -34q66 0 95 22.5t40 78.5h78q-16 -90 -69.5 -128.5t-154.5 -38.5q-113 0 -153.5 50.5t-16.5 183.5l9 54q24 133 82.5 183t169.5 50q101 0 141.5 -38t24.5 -128h-78q9 56 -12 78t-87 22z" />
    <glyph glyph-name="d" unicode="d" horiz-adv-x="533" 
d="M218 55q35 0 77.5 16t74.5 44l48 272q-25 26 -60.5 41.5t-70.5 15.5q-66 0 -99.5 -34t-50.5 -127l-11 -66q-17 -92 5 -127t87 -35zM197 -11q-96 0 -134.5 48t-15.5 177l13 71q23 130 77.5 177.5t150.5 47.5q73 0 142 -55l38 215h78l-118 -670h-52l-10 49
q-87 -60 -169 -60z" />
    <glyph glyph-name="e" unicode="e" horiz-adv-x="506" 
d="M486 356q-9 -76 -55.5 -109t-145.5 -29l-158 7q-18 -102 4 -136t103 -34q76 0 177 19l-11 -66q-90 -18 -178 -18q-56 0 -92 10t-60.5 36t-27.5 71t7 116l9 54q24 132 82.5 182.5t167.5 50.5q98 0 142.5 -41.5t35.5 -112.5zM405 355q5 44 -21.5 66.5t-86.5 22.5
q-76 0 -109.5 -35t-50.5 -130h165q51 0 75 16.5t28 59.5z" />
    <glyph glyph-name="f" unicode="f" horiz-adv-x="316" 
d="M357 606q-31 9 -60 9q-56 0 -65 -56l-10 -59h92l-12 -66h-92l-92 -524h-78l92 524h-66l9 53l69 13l10 60q22 123 142 123q44 0 73 -11z" />
    <glyph glyph-name="g" unicode="g" horiz-adv-x="533" 
d="M349 -1l10 56q-86 -55 -160 -55q-96 0 -134.5 47.5t-15.5 177.5l11 60q23 130 77.5 177.5t150.5 47.5q82 0 149 -59l27 49h52l-89 -501q-17 -95 -69 -137t-157 -42q-89 0 -153 19l12 70q70 -23 151 -23q64 0 95.5 24t42.5 89zM287 444q-65 0 -99 -34.5t-51 -126.5l-9 -56
q-17 -93 4.5 -127t87.5 -34q78 0 151 57l46 262q-22 28 -58.5 43.5t-71.5 15.5z" />
    <glyph glyph-name="h" unicode="h" horiz-adv-x="537" 
d="M221 670l-38 -216q89 56 167 56q88 0 118 -40.5t13 -136.5l-58 -333h-78l58 333q12 64 -8 87.5t-77 23.5q-74 0 -146 -50l-69 -394h-78l118 670h78z" />
    <glyph glyph-name="i" unicode="i" horiz-adv-x="208" 
d="M25 0l88 500h78l-88 -500h-78zM126 588l15 82h82l-15 -82h-82z" />
    <glyph glyph-name="j" unicode="j" horiz-adv-x="208" 
d="M193 500l-98 -553q-12 -65 -43.5 -96t-93.5 -31q-45 0 -73 10l11 66q34 -9 59 -9q28 0 42.5 14.5t19.5 45.5l98 553h78zM126 588l15 82h82l-15 -82h-82z" />
    <glyph glyph-name="k" unicode="k" horiz-adv-x="460" 
d="M144 236l-41 -236h-78l118 670h78l-68 -381h2l224 211h98l-259 -241q13 -23 93.5 -130.5t93.5 -128.5h-95l-164 236h-2z" />
    <glyph glyph-name="l" unicode="l" horiz-adv-x="208" 
d="M25 0l118 670h78l-118 -670h-78z" />
    <glyph glyph-name="m" unicode="m" horiz-adv-x="785" 
d="M165 500l9 -49q92 59 166 59q85 0 117 -60q94 60 171 60q83 0 105.5 -37.5t7.5 -124.5l-61 -348h-78l61 348q10 55 -5 75.5t-65 20.5q-60 0 -133 -50l-69 -394h-78l61 348q10 55 -4.5 75.5t-64.5 20.5q-61 0 -133 -50l-69 -394h-78l88 500h52z" />
    <glyph glyph-name="n" unicode="n" 
d="M113 500h52l9 -49q90 59 175 59q88 0 119 -39.5t13 -137.5l-58 -333h-78l58 333q12 64 -8 87.5t-77 23.5q-74 0 -146 -50l-69 -394h-78z" />
    <glyph glyph-name="o" unicode="o" horiz-adv-x="511" 
d="M474 277l-9 -54q-23 -132 -81 -183t-171 -51t-152.5 51t-16.5 183l9 54q23 131 81 182t170 51q113 0 153 -51t17 -182zM387 223l9 54q18 99 -4 133t-99 34t-110.5 -34t-51.5 -133l-9 -54q-18 -100 3.5 -134t98.5 -34t111 34t52 134z" />
    <glyph glyph-name="p" unicode="p" horiz-adv-x="533" 
d="M322 444q-35 0 -77.5 -15.5t-74.5 -43.5l-48 -273q25 -26 61 -41.5t70 -15.5q65 0 99 34.5t51 127.5l11 66q17 92 -5 126.5t-87 34.5zM343 510q96 0 134.5 -47.5t15.5 -177.5l-13 -71q-23 -129 -78 -177t-150 -48q-73 0 -142 55l-37 -214h-78l118 670h52l9 -49
q88 59 169 59z" />
    <glyph glyph-name="q" unicode="q" horiz-adv-x="533" 
d="M287 444q-65 0 -99 -34.5t-51 -126.5l-11 -66q-17 -93 5 -127.5t87 -34.5q76 0 151 57l48 273q-23 28 -59 43.5t-71 15.5zM287 510q81 0 150 -59l27 49h52l-118 -670h-78l37 214q-86 -55 -161 -55q-95 0 -133.5 48t-15.5 177l13 71q23 130 77.5 177.5t149.5 47.5z" />
    <glyph glyph-name="r" unicode="r" horiz-adv-x="317" 
d="M331 510l-12 -72q-84 0 -148 -52l-68 -386h-78l88 500h52l9 -49q78 59 157 59z" />
    <glyph glyph-name="s" unicode="s" horiz-adv-x="493" 
d="M432 139q-6 -35 -17 -58.5t-34.5 -46t-67.5 -33.5t-109 -11q-113 0 -150.5 38.5t-23.5 117.5h76q-9 -50 13.5 -70.5t91.5 -20.5q53 0 84 11t42.5 27.5t16.5 45.5q8 41 -17 59t-101 25q-98 9 -134 42t-24 99q26 146 215 146q101 0 140.5 -36.5t24.5 -120.5h-76
q8 47 -12.5 69t-84.5 22q-115 0 -129 -80q-8 -43 14 -61t90 -23q115 -10 149.5 -39t22.5 -102z" />
    <glyph glyph-name="t" unicode="t" horiz-adv-x="331" 
d="M70 118l56 316h-65l10 54l67 12l21 122l80 13l-23 -135h113l-12 -66h-113l-56 -317q-11 -61 45 -61q21 0 69 10l-11 -66q-40 -11 -83 -11q-63 0 -86 31.5t-12 97.5z" />
    <glyph glyph-name="u" unicode="u" 
d="M423 0h-52l-10 49q-89 -59 -175 -59q-88 0 -119 39.5t-13 136.5l59 334h78l-59 -334q-12 -64 8 -87.5t77 -23.5q74 0 146 51l70 394h78z" />
    <glyph glyph-name="v" unicode="v" horiz-adv-x="492" 
d="M156 500l61 -416h2l210 416h86l-265 -500h-87l-90 500h83z" />
    <glyph glyph-name="w" unicode="w" horiz-adv-x="730" 
d="M495 82l169 418h84l-218 -500h-93l-38 426l-183 -426h-97l-41 500h80l24 -418h1l180 418h95z" />
    <glyph glyph-name="x" unicode="x" horiz-adv-x="491" 
d="M258 315l152 185h92l-209 -245l133 -255h-90l-95 198h-1l-163 -198h-92l222 260l-124 240h91z" />
    <glyph glyph-name="y" unicode="y" horiz-adv-x="495" 
d="M169 0l-96 500h83l64 -405h2l210 405h86l-306 -568q-36 -65 -73 -88.5t-107 -23.5q-31 0 -55 9l12 66q24 -9 54 -9q36 0 57.5 15t44.5 56z" />
    <glyph glyph-name="z" unicode="z" horiz-adv-x="486" 
d="M91 434l12 66h368l-10 -55l-341 -379h288l-11 -66h-391l8 54l341 380h-264z" />
    <glyph glyph-name="braceleft" unicode="{" horiz-adv-x="394" 
d="M218 199l-38 -213q-5 -29 5.5 -42.5t38.5 -13.5h57l-9 -51h-57q-65 0 -87.5 20.5t-12.5 79.5l41 233q4 26 -5 36.5t-34 10.5h-62l9 51h62q25 0 38 10.5t17 36.5l42 234q10 57 41 78.5t94 21.5h57l-9 -51h-57q-54 0 -64 -56l-32 -185q-9 -54 -21.5 -77t-47.5 -37
q44 -22 34 -86z" />
    <glyph glyph-name="bar" unicode="|" horiz-adv-x="220" 
d="M221 690l-143 -810h-60l143 810h60z" />
    <glyph glyph-name="braceright" unicode="}" horiz-adv-x="394" 
d="M123 -14l38 213q11 64 64 86q-31 14 -35.5 40.5t6.5 73.5l32 185q10 56 -44 56h-57l9 51h57q63 0 86 -25.5t13 -84.5l-40 -224q-4 -26 5 -36.5t34 -10.5h62l-9 -51h-62q-25 0 -38 -10.5t-17 -36.5l-39 -223q-11 -59 -43.5 -84.5t-94.5 -25.5h-57l9 51h57q54 0 64 56z" />
    <glyph glyph-name="asciitilde" unicode="~" horiz-adv-x="459" 
d="M223 660q27 0 49.5 -12t35 -26.5t28.5 -26.5t33 -12q26 0 40.5 15t21.5 52h62q-12 -71 -44.5 -100t-85.5 -29q-35 0 -60.5 19.5t-45.5 38.5t-41 19q-26 0 -40 -15t-21 -52h-62q12 70 44.5 99.5t85.5 29.5z" />
    <glyph glyph-name="nbspace" unicode="&#xa0;" horiz-adv-x="115" 
 />
    <glyph glyph-name="exclamdown" unicode="&#xa1;" horiz-adv-x="241" 
d="M-2 -150l108 453h55l-52 -453h-111zM104 409l16 91h97l-16 -91h-97z" />
    <glyph glyph-name="cent" unicode="&#xa2;" horiz-adv-x="516" 
d="M317 519q-77 0 -111 -34t-51 -133l-10 -54q-18 -100 4 -134t99 -34q66 0 95 22.5t40 78.5h78q-15 -83 -60.5 -121.5t-129.5 -44.5l-15 -85h-68l15 85q-93 6 -125.5 57.5t-10.5 175.5l10 54q21 122 72 174t145 58l16 86h68l-16 -86q82 -6 114.5 -45t17.5 -120h-78
q8 56 -12.5 78t-86.5 22z" />
    <glyph glyph-name="sterling" unicode="&#xa3;" horiz-adv-x="562" 
d="M320 0h-310l12 70q56 0 86.5 29.5t41.5 91.5q5 27 -3 93h-87l9 56h69l-3.5 27t-3 29t-1.5 26t0 31t4 30q31 177 221 177q102 0 139 -40.5t21 -135.5h-80q10 59 -11 82.5t-81 23.5q-58 0 -88.5 -25.5t-40.5 -81.5q-8 -43 1 -143h125l-9 -56h-113q6 -57 0 -88
q-17 -90 -75 -126h177q45 0 68 19t31 66h80q-15 -82 -55.5 -118.5t-123.5 -36.5z" />
    <glyph glyph-name="currency" unicode="&#xa4;" horiz-adv-x="620" 
d="M454 299l10 53q17 99 -4.5 133t-98.5 34t-110.5 -34t-50.5 -133l-10 -53q-18 -100 4 -134t99 -34t110 34t51 134zM542 352l-10 -53q-17 -95 -50 -146l59 -86l-54 -40l-51 76q-55 -38 -155 -38t-141 38l-79 -76l-40 40l89 86q-14 54 2 146l10 53q15 90 48 143l-58 86
l54 40l51 -75q54 39 156 39t142 -39l77 75l40 -40l-89 -86q14 -50 -1 -143z" />
    <glyph glyph-name="yen" unicode="&#xa5;" horiz-adv-x="538" 
d="M189 0l13 74h-138l8 46h138l12 70h-138l8 46h138l3 18l-120 396h87l84 -317h2l196 317h91l-260 -396l-3 -18h138l-8 -46h-138l-12 -70h138l-8 -46h-138l-13 -74h-80z" />
    <glyph glyph-name="brokenbar" unicode="&#xa6;" horiz-adv-x="220" 
d="M138 220l-60 -340h-60l60 340h60zM221 690l-60 -340h-60l60 340h60z" />
    <glyph glyph-name="section" unicode="&#xa7;" horiz-adv-x="564" 
d="M504 230q-13 -76 -91 -119q55 -36 40 -123q-14 -76 -73.5 -117t-161.5 -41q-113 0 -156.5 41t-27.5 134h79q-10 -61 16.5 -85.5t96.5 -24.5q129 0 146 96q8 47 -18 68.5t-105 31.5q-117 15 -157.5 53.5t-26.5 115.5q14 75 90 118q-53 38 -38 124q14 76 73 117t161 41
q113 0 156.5 -41t27.5 -134h-79q10 61 -16.5 85.5t-96.5 24.5q-128 0 -146 -96q-8 -47 18.5 -68.5t105.5 -31.5q120 -15 158.5 -52t24.5 -117zM287 338q-51 7 -75 15q-59 -28 -69 -88q-9 -52 19.5 -76.5t119.5 -36.5q42 -6 76 -15q56 26 67 88q9 53 -19 77.5t-119 35.5z" />
    <glyph glyph-name="dieresis" unicode="&#xa8;" horiz-adv-x="356" 
d="M125 572l14 78h79l-14 -78h-79zM272 572l14 78h78l-14 -78h-78z" />
    <glyph glyph-name="copyright" unicode="&#xa9;" horiz-adv-x="774" 
d="M64 252l26 146q23 131 117 203t258 72q163 0 232.5 -72t46.5 -203l-26 -146q-23 -131 -118 -203t-258 -72q-161 0 -231 72.5t-47 202.5zM150 394l-24 -138q-20 -112 36 -167t190 -55q266 0 306 222l24 138q20 112 -36.5 167t-190.5 55q-266 0 -305 -222zM558 378h-59
q7 40 -10 56.5t-68 16.5q-53 0 -78.5 -20.5t-34.5 -77.5l-10 -58q-10 -55 7 -77t71 -22q51 0 74 17t30 56h59q-11 -64 -50 -95.5t-122 -31.5q-80 0 -112 35t-17 118l10 58q15 83 58.5 118t124.5 35q82 0 110.5 -31t16.5 -97z" />
    <glyph glyph-name="ordfeminine" unicode="&#xaa;" horiz-adv-x="428" 
d="M66 364q9 54 49.5 84.5t106.5 27.5l127 -6l10 59q7 43 -9 60.5t-69 17.5q-51 0 -75 -17t-31 -57h-62q12 69 55.5 98t121.5 29q84 0 114 -30t18 -101l-49 -277h-39l-9 41q-65 -50 -139 -50q-67 0 -98 32t-22 89zM200 296q67 0 126 46l16 85h-128q-72 0 -84 -62
q-6 -35 11.5 -52t58.5 -17z" />
    <glyph glyph-name="guillemotleft" unicode="&#xab;" horiz-adv-x="494" 
d="M174 70l-110 180l169 180h72l-173 -185l110 -175h-68zM338 70l-110 180l169 180h72l-173 -185l110 -175h-68z" />
    <glyph glyph-name="logicalnot" unicode="&#xac;" horiz-adv-x="517" 
d="M85 399h407l-46 -258h-62l35 196h-345z" />
    <glyph glyph-name="uni00AD" unicode="&#xad;" horiz-adv-x="350" 
d="M54 250l11 66h250l-11 -66h-250z" />
    <glyph glyph-name="registered" unicode="&#xae;" horiz-adv-x="774" 
d="M64 252l26 146q23 131 117 203t258 72q163 0 232.5 -72t46.5 -203l-26 -146q-23 -131 -118 -203t-258 -72q-165 0 -233 72t-45 203zM150 394l-24 -138q-20 -112 36 -167t190 -55q266 0 306 222l24 138q20 112 -36.5 167t-190.5 55q-266 0 -305 -222zM464 146l-41 130
h-101l-23 -130h-61l63 358h158q67 0 92 -26t14 -84q-14 -78 -80 -107l45 -141h-66zM353 450l-21 -120h98q62 0 73 62q9 58 -49 58h-101z" />
    <glyph glyph-name="macron" unicode="&#xaf;" horiz-adv-x="370" 
d="M131 588l10 57h234l-10 -57h-234z" />
    <glyph glyph-name="degree" unicode="&#xb0;" horiz-adv-x="410" 
d="M408 502q-16 -90 -59 -124.5t-124 -34.5q-82 0 -112.5 34.5t-14.5 124.5q16 89 59 123.5t124 34.5t112 -34.5t15 -123.5zM163 505q-12 -63 4.5 -84.5t67.5 -21.5q50 0 73.5 20.5t33.5 79.5l1 3q10 60 -6.5 81.5t-65.5 21.5q-50 0 -74 -21t-34 -79z" />
    <glyph glyph-name="plusminus" unicode="&#xb1;" horiz-adv-x="517" 
d="M422 0h-407l10 62h407zM70 313l11 62h172l30 173h62l-30 -173h173l-11 -62h-173l-31 -173h-62l31 173h-172z" />
    <glyph glyph-name="twosuperior" unicode="&#xb2;" horiz-adv-x="332" 
d="M180 600h-45q17 95 117 95q55 0 73 -22t10 -67q-6 -35 -34 -61t-58.5 -39t-58 -33t-33.5 -44h156l-7 -40h-202l5 27q7 38 36 66t60 41.5t58.5 34.5t32.5 47q5 27 -5 38.5t-40 11.5q-28 0 -43.5 -12t-21.5 -43z" />
    <glyph glyph-name="threesuperior" unicode="&#xb3;" horiz-adv-x="330" 
d="M268 477q8 46 -37 46h-42l6 38h41q19 0 31 12.5t15 31.5q5 27 -5.5 39t-40.5 12q-29 0 -44.5 -13.5t-20.5 -44.5h-45q16 97 117 97q53 0 72.5 -22t11.5 -68q-7 -42 -46 -61q42 -16 32 -68q-15 -91 -123 -91q-55 0 -74.5 23t-11.5 73h45q-5 -30 5.5 -43.5t42.5 -13.5
q33 0 49.5 12t21.5 41z" />
    <glyph glyph-name="acute" unicode="&#xb4;" horiz-adv-x="243" 
d="M116 565l64 120h89l-100 -120h-53z" />
    <glyph glyph-name="mu" unicode="&#xb5;" 
d="M111 46l-38 -216h-78l118 670h78l-70 -394q55 -50 128 -50q57 0 85 23.5t40 87.5l59 333h78l-59 -333q-17 -97 -61 -137t-132 -40q-78 0 -148 56z" />
    <glyph glyph-name="paragraph" unicode="&#xb6;" horiz-adv-x="707" 
d="M84 404q24 135 95 190.5t197 55.5h313l-145 -824h-67l135 764h-75l-135 -764h-67l60 339h-106q-126 0 -176.5 57.5t-28.5 181.5z" />
    <glyph glyph-name="periodcentered" unicode="&#xb7;" horiz-adv-x="228" 
d="M74 281l17 97h98l-17 -97h-98z" />
    <glyph glyph-name="cedilla" unicode="&#xb8;" horiz-adv-x="239" 
d="M105 0l-22 -47q70 -7 59 -69q-8 -42 -35.5 -59.5t-85.5 -17.5h-56l8 43h59q50 0 55 34q3 17 -6 25t-34 8h-24l40 83h42z" />
    <glyph glyph-name="onesuperior" unicode="&#xb9;" horiz-adv-x="251" 
d="M199 389h-45l46 258h-56l4 27l77 16h27z" />
    <glyph glyph-name="ordmasculine" unicode="&#xba;" horiz-adv-x="444" 
d="M434 474l-7 -44q-19 -106 -65 -146.5t-137 -40.5q-90 0 -121.5 41t-13.5 146l7 44q19 105 65 145.5t136 40.5q91 0 123 -40.5t13 -145.5zM365 430l7 44q14 79 -3.5 106t-79.5 27q-61 0 -88 -27t-41 -106l-7 -44q-15 -80 2 -107t79 -27t89 27t42 107z" />
    <glyph glyph-name="guillemotright" unicode="&#xbb;" horiz-adv-x="494" 
d="M438 250l-170 -180h-72l171 180l-108 180h72zM274 250l-170 -180h-72l171 180l-108 180h72z" />
    <glyph glyph-name="onequarter" unicode="&#xbc;" horiz-adv-x="644" 
d="M446 0l11 68h-144l6 32l171 200h53l-34 -194h36l-7 -38h-36l-11 -68h-45zM369 106h95l25 142zM55 0l545 650h50l-545 -650h-50zM192 349h-45l46 258h-56l4 27l77 16h27z" />
    <glyph glyph-name="onehalf" unicode="&#xbd;" horiz-adv-x="644" 
d="M198 349h-45l46 258h-56l4 27l77 16h27zM414 211h-45q8 48 36 71.5t80 23.5q55 0 73.5 -22t10.5 -67q-6 -35 -34.5 -61t-59 -39t-58 -33t-32.5 -44h156l-7 -40h-202l4 27q7 38 36 66t60.5 41.5t59 34.5t32.5 47q5 27 -5.5 38.5t-40.5 11.5q-28 0 -43.5 -12t-20.5 -43z
M30 0l545 650h50l-545 -650h-50z" />
    <glyph glyph-name="threequarters" unicode="&#xbe;" horiz-adv-x="648" 
d="M271 437q8 46 -37 46h-42l6 38h41q19 0 31 12.5t15 31.5q5 27 -5.5 39t-40.5 12q-29 0 -44.5 -13.5t-20.5 -44.5h-45q16 97 117 97q52 0 72 -22t12 -68q-7 -41 -46 -61q42 -16 32 -68q-15 -91 -123 -91q-55 0 -74.5 23t-11.5 73h45q-5 -30 5.5 -43.5t42.5 -13.5
q33 0 49.5 12t21.5 41zM450 0l11 68h-144l6 32l171 200h53l-34 -194h36l-7 -38h-36l-11 -68h-45zM373 106h95l25 142zM59 0l545 650h50l-545 -650h-50z" />
    <glyph glyph-name="questiondown" unicode="&#xbf;" horiz-adv-x="517" 
d="M302 304q-3 -45 -11 -135q-95 0 -138.5 -28.5t-57.5 -108.5q-11 -66 15 -95t97 -29q124 0 143 113h80q-32 -181 -234 -181q-113 0 -155.5 46.5t-25.5 145.5q32 185 218 199l19 73h50zM361 500l-16 -91h-97l16 91h97z" />
    <glyph glyph-name="Agrave" unicode="&#xc0;" horiz-adv-x="523" 
d="M380 0l-18 158h-227l-71 -158h-84l305 650h101l77 -650h-83zM321 571l-156 -345h191l-33 345h-2zM355 835l19 -120h-50l-58 120h89z" />
    <glyph glyph-name="Aacute" unicode="&#xc1;" horiz-adv-x="523" 
d="M380 0l-18 158h-227l-71 -158h-84l305 650h101l77 -650h-83zM321 571l-156 -345h191l-33 345h-2zM321 715l64 120h89l-100 -120h-53z" />
    <glyph glyph-name="Acircumflex" unicode="&#xc2;" horiz-adv-x="523" 
d="M380 0l-18 158h-227l-71 -158h-84l305 650h101l77 -650h-83zM321 571l-156 -345h191l-33 345h-2zM419 835l39 -120h-51l-42 71l-66 -71h-55l82 120h93z" />
    <glyph glyph-name="Atilde" unicode="&#xc3;" horiz-adv-x="523" 
d="M380 0l-18 158h-227l-71 -158h-84l305 650h101l77 -650h-83zM321 571l-156 -345h191l-33 345h-2zM410 773q38 0 45 42h50q-18 -99 -98 -99q-31 0 -60 24.5t-48 24.5q-37 0 -44 -42h-49q16 99 97 99q31 0 60 -24.5t47 -24.5z" />
    <glyph glyph-name="Adieresis" unicode="&#xc4;" horiz-adv-x="523" 
d="M380 0l-18 158h-227l-71 -158h-84l305 650h101l77 -650h-83zM321 571l-156 -345h191l-33 345h-2zM235 722l14 78h79l-14 -78h-79zM382 722l14 78h78l-14 -78h-78z" />
    <glyph glyph-name="Aring" unicode="&#xc5;" horiz-adv-x="523" 
d="M380 0l-18 158h-227l-71 -158h-84l305 650h101l77 -650h-83zM321 571l-156 -345h191l-33 345h-2zM457 789q-15 -85 -113 -85q-48 0 -69.5 21.5t-14.5 63.5q15 85 114 85q47 0 68.5 -21.5t14.5 -63.5zM404 789q8 40 -38 40q-45 0 -53 -40q-6 -40 39 -40q44 0 52 40z" />
    <glyph glyph-name="AE" unicode="&#xc6;" horiz-adv-x="850" 
d="M390 0l27 158h-235l-114 -158h-88l477 650h417l-12 -70h-290l-38 -216h254l-12 -68h-254l-40 -226h290l-12 -70h-370zM490 580l-259 -354h198l63 354h-2z" />
    <glyph glyph-name="Ccedilla" unicode="&#xc7;" horiz-adv-x="545" 
d="M247 60q72 0 107.5 27t47.5 97h80q-18 -100 -73 -145t-158 -48l-17 -38q70 -7 59 -69q-7 -41 -36.5 -59t-84.5 -18h-56l8 43h62q47 0 52 34q3 17 -6 25t-34 8h-24l35 74q-104 5 -140 57.5t-15 175.5l36 202q22 127 83 180.5t180 53.5q111 0 154 -45.5t24 -149.5h-80
q13 69 -13 97t-97 28q-79 0 -117 -34t-53 -124l-38 -214q-16 -90 9 -124t105 -34z" />
    <glyph glyph-name="Egrave" unicode="&#xc8;" horiz-adv-x="495" 
d="M30 0l114 650h370l-12 -70h-290l-38 -216h254l-12 -68h-254l-40 -226h290l-12 -70h-370zM379 835l19 -120h-50l-58 120h89z" />
    <glyph glyph-name="Eacute" unicode="&#xc9;" horiz-adv-x="495" 
d="M30 0l114 650h370l-12 -70h-290l-38 -216h254l-12 -68h-254l-40 -226h290l-12 -70h-370zM321 715l64 120h89l-100 -120h-53z" />
    <glyph glyph-name="Ecircumflex" unicode="&#xca;" horiz-adv-x="495" 
d="M30 0l114 650h370l-12 -70h-290l-38 -216h254l-12 -68h-254l-40 -226h290l-12 -70h-370zM416 835l39 -120h-51l-42 71l-66 -71h-55l82 120h93z" />
    <glyph glyph-name="Edieresis" unicode="&#xcb;" horiz-adv-x="495" 
d="M30 0l114 650h370l-12 -70h-290l-38 -216h254l-12 -68h-254l-40 -226h290l-12 -70h-370zM237 722l14 78h79l-14 -78h-79zM384 722l14 78h78l-14 -78h-78z" />
    <glyph glyph-name="Igrave" unicode="&#xcc;" horiz-adv-x="220" 
d="M30 0l114 650h80l-114 -650h-80zM205 835l19 -120h-50l-58 120h89z" />
    <glyph glyph-name="Iacute" unicode="&#xcd;" horiz-adv-x="220" 
d="M30 0l114 650h80l-114 -650h-80zM171 715l64 120h89l-100 -120h-53z" />
    <glyph glyph-name="Icircumflex" unicode="&#xce;" horiz-adv-x="220" 
d="M30 0l114 650h80l-114 -650h-80zM266 835l39 -120h-51l-42 71l-66 -71h-55l82 120h93z" />
    <glyph glyph-name="Idieresis" unicode="&#xcf;" horiz-adv-x="220" 
d="M30 0l114 650h80l-114 -650h-80zM84 722l14 78h79l-14 -78h-79zM231 722l14 78h78l-14 -78h-78z" />
    <glyph glyph-name="Eth" unicode="&#xd0;" horiz-adv-x="567" 
d="M25 301l10 59h58l51 290h196q125 0 174.5 -49t25.5 -183l-33 -186q-24 -134 -90 -183t-191 -49h-196l53 301h-58zM327 580h-115l-39 -220h120l-10 -59h-120l-41 -231h115q86 0 130 34t60 124l34 196q17 95 -16 125.5t-118 30.5z" />
    <glyph glyph-name="Ntilde" unicode="&#xd1;" horiz-adv-x="574" 
d="M578 650l-114 -650h-102l-158 535l-94 -535h-80l114 650h102l158 -535l94 535h80zM430 773q38 0 45 42h50q-18 -99 -98 -99q-31 0 -60 24.5t-48 24.5q-37 0 -44 -42h-49q16 99 97 99q31 0 60 -24.5t47 -24.5z" />
    <glyph glyph-name="Ograve" unicode="&#xd2;" horiz-adv-x="559" 
d="M422 220l37 210q17 93 -10 126.5t-105 33.5q-80 0 -118.5 -33.5t-55.5 -127.5l-37 -209q-16 -93 11 -126.5t106 -33.5q78 0 117 33.5t55 126.5zM53 220l37 210q23 127 85 178.5t181 51.5q118 0 162 -52t21 -178l-37 -210q-22 -127 -84 -178.5t-180 -51.5
q-119 0 -163 51.5t-22 178.5zM380 835l19 -120h-50l-58 120h89z" />
    <glyph glyph-name="Oacute" unicode="&#xd3;" horiz-adv-x="559" 
d="M422 220l37 210q17 93 -10 126.5t-105 33.5q-80 0 -118.5 -33.5t-55.5 -127.5l-37 -209q-16 -93 11 -126.5t106 -33.5q78 0 117 33.5t55 126.5zM53 220l37 210q23 127 85 178.5t181 51.5q118 0 162 -52t21 -178l-37 -210q-22 -127 -84 -178.5t-180 -51.5
q-119 0 -163 51.5t-22 178.5zM342 715l64 120h89l-100 -120h-53z" />
    <glyph glyph-name="Ocircumflex" unicode="&#xd4;" horiz-adv-x="559" 
d="M422 220l37 210q17 93 -10 126.5t-105 33.5q-80 0 -118.5 -33.5t-55.5 -127.5l-37 -209q-16 -93 11 -126.5t106 -33.5q78 0 117 33.5t55 126.5zM53 220l37 210q23 127 85 178.5t181 51.5q118 0 162 -52t21 -178l-37 -210q-22 -127 -84 -178.5t-180 -51.5
q-119 0 -163 51.5t-22 178.5zM438 835l39 -120h-51l-42 71l-66 -71h-55l82 120h93z" />
    <glyph glyph-name="Otilde" unicode="&#xd5;" horiz-adv-x="559" 
d="M422 220l37 210q17 93 -10 126.5t-105 33.5q-80 0 -118.5 -33.5t-55.5 -127.5l-37 -209q-16 -93 11 -126.5t106 -33.5q78 0 117 33.5t55 126.5zM53 220l37 210q23 127 85 178.5t181 51.5q118 0 162 -52t21 -178l-37 -210q-22 -127 -84 -178.5t-180 -51.5
q-119 0 -163 51.5t-22 178.5zM435 773q38 0 45 42h50q-18 -99 -98 -99q-31 0 -60 24.5t-48 24.5q-37 0 -44 -42h-49q16 99 97 99q30 0 59 -24.5t48 -24.5z" />
    <glyph glyph-name="Odieresis" unicode="&#xd6;" horiz-adv-x="559" 
d="M422 220l37 210q17 93 -10 126.5t-105 33.5q-80 0 -118.5 -33.5t-55.5 -127.5l-37 -209q-16 -93 11 -126.5t106 -33.5q78 0 117 33.5t55 126.5zM53 220l37 210q23 127 85 178.5t181 51.5q118 0 162 -52t21 -178l-37 -210q-22 -127 -84 -178.5t-180 -51.5
q-119 0 -163 51.5t-22 178.5zM260 722l14 78h79l-14 -78h-79zM407 722l14 78h78l-14 -78h-78z" />
    <glyph glyph-name="multiply" unicode="&#xd7;" horiz-adv-x="470" 
d="M74 94l-37 46l161 139l-110 133l48 39l111 -134l162 139l37 -46l-164 -137l115 -138l-49 -39l-112 138z" />
    <glyph glyph-name="Oslash" unicode="&#xd8;" horiz-adv-x="559" 
d="M-4 -20l65 84q-26 52 -8 156l37 210q23 127 85 178.5t181 51.5q93 0 138 -31l32 41h66l-62 -80q28 -54 9 -160l-37 -210q-22 -127 -84 -178.5t-180 -51.5q-98 0 -144 33l-33 -43h-65zM422 219l37 211q8 39 6 75l-320 -415q25 -32 105 -32q78 0 117 34t55 127zM170 429
l-37 -210q-7 -40 -6 -68l317 412q-28 28 -100 28q-79 0 -118 -34t-56 -128z" />
    <glyph glyph-name="Ugrave" unicode="&#xd9;" horiz-adv-x="575" 
d="M144 650h80l-79 -450q-14 -78 12 -109.5t100 -31.5t111.5 31.5t51.5 109.5l79 450h80l-79 -448q-21 -119 -82 -166t-173 -47q-111 0 -156 47t-24 166zM375 835l19 -120h-50l-58 120h89z" />
    <glyph glyph-name="Uacute" unicode="&#xda;" horiz-adv-x="575" 
d="M144 650h80l-79 -450q-14 -78 12 -109.5t100 -31.5t111.5 31.5t51.5 109.5l79 450h80l-79 -448q-21 -119 -82 -166t-173 -47q-111 0 -156 47t-24 166zM349 715l64 120h89l-100 -120h-53z" />
    <glyph glyph-name="Ucircumflex" unicode="&#xdb;" horiz-adv-x="575" 
d="M144 650h80l-79 -450q-14 -78 12 -109.5t100 -31.5t111.5 31.5t51.5 109.5l79 450h80l-79 -448q-21 -119 -82 -166t-173 -47q-111 0 -156 47t-24 166zM445 835l39 -120h-51l-42 71l-66 -71h-55l82 120h93z" />
    <glyph glyph-name="Udieresis" unicode="&#xdc;" horiz-adv-x="575" 
d="M144 650h80l-79 -450q-14 -78 12 -109.5t100 -31.5t111.5 31.5t51.5 109.5l79 450h80l-79 -448q-21 -119 -82 -166t-173 -47q-111 0 -156 47t-24 166zM259 722l14 78h79l-14 -78h-79zM406 722l14 78h78l-14 -78h-78z" />
    <glyph glyph-name="Yacute" unicode="&#xdd;" horiz-adv-x="510" 
d="M175 0l44 253l-120 397h89l84 -317h2l196 317h89l-260 -397l-44 -253h-80zM316 715l64 120h89l-100 -120h-53z" />
    <glyph glyph-name="Thorn" unicode="&#xde;" horiz-adv-x="543" 
d="M258 125h-126l-22 -125h-80l114 650h80l-21 -117h126q119 0 163 -43t24 -161q-22 -119 -80.5 -161.5t-177.5 -42.5zM144 195h127q77 0 112.5 26.5t49.5 107.5t-12 107.5t-103 26.5h-127z" />
    <glyph glyph-name="germandbls" unicode="&#xdf;" horiz-adv-x="551" 
d="M245 329l11 66h30q62 0 92 28.5t40 82.5q10 56 -13 82t-81 26q-62 0 -92 -27t-40 -80l-89 -507h-78l89 507q16 88 69.5 130.5t151.5 42.5q99 0 138 -42t24 -127q-20 -110 -117 -142q72 -11 103.5 -51.5t15.5 -127.5l-1 -7q-19 -107 -81.5 -150t-163.5 -43q-54 0 -101 10
l11 68q44 -12 98 -12q70 0 108.5 28.5t50.5 98.5l1 7q14 80 -16 109.5t-102 29.5h-58z" />
    <glyph glyph-name="agrave" unicode="&#xe0;" horiz-adv-x="501" 
d="M23 140q12 67 62 105.5t133 34.5l158 -7l13 73q9 54 -11 76t-87 22q-63 0 -93.5 -21t-38.5 -72h-78q15 87 69.5 123t151.5 36q106 0 143.5 -37.5t21.5 -126.5l-61 -346h-49l-11 51q-81 -62 -173 -62q-85 0 -123.5 40t-26.5 111zM190 55q82 0 157 57l20 107h-159
q-92 0 -105 -78q-8 -44 13.5 -65t73.5 -21zM330 685l19 -120h-50l-58 120h89z" />
    <glyph glyph-name="aacute" unicode="&#xe1;" horiz-adv-x="501" 
d="M23 140q12 67 62 105.5t133 34.5l158 -7l13 73q9 54 -11 76t-87 22q-63 0 -93.5 -21t-38.5 -72h-78q15 87 69.5 123t151.5 36q106 0 143.5 -37.5t21.5 -126.5l-61 -346h-49l-11 51q-81 -62 -173 -62q-85 0 -123.5 40t-26.5 111zM190 55q82 0 157 57l20 107h-159
q-92 0 -105 -78q-8 -44 13.5 -65t73.5 -21zM290 565l64 120h89l-100 -120h-53z" />
    <glyph glyph-name="acircumflex" unicode="&#xe2;" horiz-adv-x="501" 
d="M23 140q12 67 62 105.5t133 34.5l158 -7l13 73q9 54 -11 76t-87 22q-63 0 -93.5 -21t-38.5 -72h-78q15 87 69.5 123t151.5 36q106 0 143.5 -37.5t21.5 -126.5l-61 -346h-49l-11 51q-81 -62 -173 -62q-85 0 -123.5 40t-26.5 111zM190 55q82 0 157 57l20 107h-159
q-92 0 -105 -78q-8 -44 13.5 -65t73.5 -21zM390 685l39 -120h-51l-42 71l-66 -71h-55l82 120h93z" />
    <glyph glyph-name="atilde" unicode="&#xe3;" horiz-adv-x="501" 
d="M23 140q12 67 62 105.5t133 34.5l158 -7l13 73q9 54 -11 76t-87 22q-63 0 -93.5 -21t-38.5 -72h-78q15 87 69.5 123t151.5 36q106 0 143.5 -37.5t21.5 -126.5l-61 -346h-49l-11 51q-81 -62 -173 -62q-85 0 -123.5 40t-26.5 111zM190 55q82 0 157 57l20 107h-159
q-92 0 -105 -78q-8 -44 13.5 -65t73.5 -21zM373 623q38 0 45 42h50q-18 -99 -98 -99q-31 0 -60 24.5t-48 24.5q-37 0 -44 -42h-49q16 99 97 99q31 0 59.5 -24.5t47.5 -24.5z" />
    <glyph glyph-name="adieresis" unicode="&#xe4;" horiz-adv-x="501" 
d="M23 140q12 67 62 105.5t133 34.5l158 -7l13 73q9 54 -11 76t-87 22q-63 0 -93.5 -21t-38.5 -72h-78q15 87 69.5 123t151.5 36q106 0 143.5 -37.5t21.5 -126.5l-61 -346h-49l-11 51q-81 -62 -173 -62q-85 0 -123.5 40t-26.5 111zM190 55q82 0 157 57l20 107h-159
q-92 0 -105 -78q-8 -44 13.5 -65t73.5 -21zM207 572l14 78h79l-14 -78h-79zM354 572l14 78h78l-14 -78h-78z" />
    <glyph glyph-name="aring" unicode="&#xe5;" horiz-adv-x="501" 
d="M23 140q12 67 62 105.5t133 34.5l158 -7l13 73q9 54 -11 76t-87 22q-63 0 -93.5 -21t-38.5 -72h-78q15 87 69.5 123t151.5 36q106 0 143.5 -37.5t21.5 -126.5l-61 -346h-49l-11 51q-81 -62 -173 -62q-85 0 -123.5 40t-26.5 111zM190 55q82 0 157 57l20 107h-159
q-92 0 -105 -78q-8 -44 13.5 -65t73.5 -21zM420 639q-15 -85 -113 -85q-48 0 -69.5 21.5t-14.5 63.5q15 85 114 85q47 0 68.5 -21.5t14.5 -63.5zM367 639q8 40 -38 40q-45 0 -53 -40q-6 -40 39 -40q44 0 52 40z" />
    <glyph glyph-name="ae" unicode="&#xe6;" horiz-adv-x="824" 
d="M190 55q89 0 124 33t53 131h-159q-92 0 -105 -78q-8 -44 13.5 -65t73.5 -21zM723 355q5 44 -21.5 66.5t-86.5 22.5q-76 0 -109.5 -35t-50.5 -130h165q51 0 75 16.5t28 59.5zM177 -11q-89 0 -127.5 39.5t-26.5 111.5q12 67 62 105.5t133 34.5l158 -7l13 73q9 54 -11 76
t-87 22q-63 0 -93.5 -21t-38.5 -72h-78q15 87 69.5 123t151.5 36q126 0 152 -60q52 60 172 60q98 0 142.5 -41.5t35.5 -112.5q-9 -76 -55.5 -109t-145.5 -29l-158 7q-18 -102 4 -136t103 -34q76 0 177 19l-11 -66q-90 -18 -178 -18q-70 0 -109.5 16.5t-53.5 58.5
q-32 -42 -79.5 -59t-120.5 -17z" />
    <glyph glyph-name="ccedilla" unicode="&#xe7;" horiz-adv-x="506" 
d="M299 444q-76 0 -110.5 -34t-52.5 -133l-9 -54q-18 -100 4.5 -134t98.5 -34q66 0 95 22.5t40 78.5h78q-15 -87 -64.5 -125.5t-142.5 -40.5l-17 -37q70 -7 59 -69q-8 -42 -35 -59.5t-86 -17.5h-56l8 43h59q50 0 55 34q3 17 -6 25t-34 8h-24l35 73q-98 5 -133 56t-12 177
l9 54q24 133 82.5 183t169.5 50q101 0 141.5 -38t24.5 -128h-78q9 56 -12 78t-87 22z" />
    <glyph glyph-name="egrave" unicode="&#xe8;" horiz-adv-x="506" 
d="M486 356q-9 -76 -55.5 -109t-145.5 -29l-158 7q-18 -102 4 -136t103 -34q76 0 177 19l-11 -66q-90 -18 -178 -18q-56 0 -92 10t-60.5 36t-27.5 71t7 116l9 54q24 132 82.5 182.5t167.5 50.5q98 0 142.5 -41.5t35.5 -112.5zM405 355q5 44 -21.5 66.5t-86.5 22.5
q-76 0 -109.5 -35t-50.5 -130h165q51 0 75 16.5t28 59.5zM333 685l19 -120h-50l-58 120h89z" />
    <glyph glyph-name="eacute" unicode="&#xe9;" horiz-adv-x="506" 
d="M486 356q-9 -76 -55.5 -109t-145.5 -29l-158 7q-18 -102 4 -136t103 -34q76 0 177 19l-11 -66q-90 -18 -178 -18q-56 0 -92 10t-60.5 36t-27.5 71t7 116l9 54q24 132 82.5 182.5t167.5 50.5q98 0 142.5 -41.5t35.5 -112.5zM405 355q5 44 -21.5 66.5t-86.5 22.5
q-76 0 -109.5 -35t-50.5 -130h165q51 0 75 16.5t28 59.5zM301 565l64 120h89l-100 -120h-53z" />
    <glyph glyph-name="ecircumflex" unicode="&#xea;" horiz-adv-x="506" 
d="M486 356q-9 -76 -55.5 -109t-145.5 -29l-158 7q-18 -102 4 -136t103 -34q76 0 177 19l-11 -66q-90 -18 -178 -18q-56 0 -92 10t-60.5 36t-27.5 71t7 116l9 54q24 132 82.5 182.5t167.5 50.5q98 0 142.5 -41.5t35.5 -112.5zM405 355q5 44 -21.5 66.5t-86.5 22.5
q-76 0 -109.5 -35t-50.5 -130h165q51 0 75 16.5t28 59.5zM394 685l39 -120h-51l-42 71l-66 -71h-55l82 120h93z" />
    <glyph glyph-name="edieresis" unicode="&#xeb;" horiz-adv-x="506" 
d="M486 356q-9 -76 -55.5 -109t-145.5 -29l-158 7q-18 -102 4 -136t103 -34q76 0 177 19l-11 -66q-90 -18 -178 -18q-56 0 -92 10t-60.5 36t-27.5 71t7 116l9 54q24 132 82.5 182.5t167.5 50.5q98 0 142.5 -41.5t35.5 -112.5zM405 355q5 44 -21.5 66.5t-86.5 22.5
q-76 0 -109.5 -35t-50.5 -130h165q51 0 75 16.5t28 59.5zM213 572l14 78h79l-14 -78h-79zM360 572l14 78h78l-14 -78h-78z" />
    <glyph glyph-name="igrave" unicode="&#xec;" horiz-adv-x="213" 
d="M27 0l88 500h78l-88 -500h-78zM171 685l19 -120h-50l-58 120h89z" />
    <glyph glyph-name="iacute" unicode="&#xed;" horiz-adv-x="213" 
d="M27 0l88 500h78l-88 -500h-78zM145 565l64 120h89l-100 -120h-53z" />
    <glyph glyph-name="icircumflex" unicode="&#xee;" horiz-adv-x="213" 
d="M27 0l88 500h78l-88 -500h-78zM235 685l39 -120h-51l-42 71l-66 -71h-55l82 120h93z" />
    <glyph glyph-name="idieresis" unicode="&#xef;" horiz-adv-x="213" 
d="M27 0l88 500h78l-88 -500h-78zM54 572l14 78h79l-14 -78h-79zM201 572l14 78h78l-14 -78h-78z" />
    <glyph glyph-name="eth" unicode="&#xf0;" horiz-adv-x="514" 
d="M473 281l-11 -60q-23 -132 -80 -181.5t-170 -49.5t-152.5 49.5t-16.5 181.5l10 54q23 131 78.5 181t166.5 50q78 0 113 -34q-10 62 -30 108l-80 -19l-11 41l70 16q-15 28 -42 63h90l29 -45l87 20l12 -40l-81 -19q51 -128 18 -316zM385 217l11 61q17 97 -5.5 130.5
t-99.5 33.5q-76 0 -109.5 -33.5t-50.5 -130.5l-11 -61q-17 -97 5 -130.5t98 -33.5q77 0 111 33.5t51 130.5z" />
    <glyph glyph-name="ntilde" unicode="&#xf1;" 
d="M113 500h52l9 -49q90 59 175 59q88 0 119 -39.5t13 -137.5l-58 -333h-78l58 333q12 64 -8 87.5t-77 23.5q-74 0 -146 -50l-69 -394h-78zM387 623q38 0 45 42h50q-18 -99 -98 -99q-31 0 -60 24.5t-48 24.5q-37 0 -44 -42h-49q16 99 97 99q30 0 59 -24.5t48 -24.5z" />
    <glyph glyph-name="ograve" unicode="&#xf2;" horiz-adv-x="511" 
d="M474 277l-9 -54q-23 -132 -81 -183t-171 -51t-152.5 51t-16.5 183l9 54q23 131 81 182t170 51q113 0 153 -51t17 -182zM387 223l9 54q18 99 -4 133t-99 34t-110.5 -34t-51.5 -133l-9 -54q-18 -100 3.5 -134t98.5 -34t111 34t52 134zM321 685l19 -120h-50l-58 120h89z" />
    <glyph glyph-name="oacute" unicode="&#xf3;" horiz-adv-x="511" 
d="M474 277l-9 -54q-23 -132 -81 -183t-171 -51t-152.5 51t-16.5 183l9 54q23 131 81 182t170 51q113 0 153 -51t17 -182zM387 223l9 54q18 99 -4 133t-99 34t-110.5 -34t-51.5 -133l-9 -54q-18 -100 3.5 -134t98.5 -34t111 34t52 134zM296 565l64 120h89l-100 -120h-53z
" />
    <glyph glyph-name="ocircumflex" unicode="&#xf4;" horiz-adv-x="511" 
d="M474 277l-9 -54q-23 -132 -81 -183t-171 -51t-152.5 51t-16.5 183l9 54q23 131 81 182t170 51q113 0 153 -51t17 -182zM387 223l9 54q18 99 -4 133t-99 34t-110.5 -34t-51.5 -133l-9 -54q-18 -100 3.5 -134t98.5 -34t111 34t52 134zM381 685l39 -120h-51l-42 71l-66 -71
h-55l82 120h93z" />
    <glyph glyph-name="otilde" unicode="&#xf5;" horiz-adv-x="511" 
d="M474 277l-9 -54q-23 -132 -81 -183t-171 -51t-152.5 51t-16.5 183l9 54q23 131 81 182t170 51q113 0 153 -51t17 -182zM387 223l9 54q18 99 -4 133t-99 34t-110.5 -34t-51.5 -133l-9 -54q-18 -100 3.5 -134t98.5 -34t111 34t52 134zM378 623q38 0 45 42h50
q-18 -99 -98 -99q-31 0 -60 24.5t-48 24.5q-37 0 -44 -42h-49q16 99 97 99q31 0 60 -24.5t47 -24.5z" />
    <glyph glyph-name="odieresis" unicode="&#xf6;" horiz-adv-x="511" 
d="M474 277l-9 -54q-23 -132 -81 -183t-171 -51t-152.5 51t-16.5 183l9 54q23 131 81 182t170 51q113 0 153 -51t17 -182zM387 223l9 54q18 99 -4 133t-99 34t-110.5 -34t-51.5 -133l-9 -54q-18 -100 3.5 -134t98.5 -34t111 34t52 134zM202 572l14 78h79l-14 -78h-79z
M349 572l14 78h78l-14 -78h-78z" />
    <glyph glyph-name="divide" unicode="&#xf7;" horiz-adv-x="517" 
d="M188 76l15 83h87l-15 -83h-87zM243 390l15 83h87l-15 -83h-87zM465 244h-407l10 62h407z" />
    <glyph glyph-name="oslash" unicode="&#xf8;" horiz-adv-x="511" 
d="M474 277l-9 -54q-23 -132 -81 -183t-171 -51q-87 0 -129 28l-32 -37h-66l65 74q-28 51 -7 169l9 54q23 131 81 182t170 51q85 0 126 -26l31 36h66l-64 -72q32 -52 11 -171zM387 223l9 54q12 66 6 101l-266 -302q24 -21 88 -21q77 0 111 34t52 134zM122 223
q-12 -68 -8 -97l263 299q-23 19 -84 19q-77 0 -110.5 -34t-51.5 -133z" />
    <glyph glyph-name="ugrave" unicode="&#xf9;" 
d="M423 0h-52l-10 49q-89 -59 -175 -59q-88 0 -119 39.5t-13 136.5l59 334h78l-59 -334q-12 -64 8 -87.5t77 -23.5q74 0 146 51l70 394h78zM335 685l19 -120h-50l-58 120h89z" />
    <glyph glyph-name="uacute" unicode="&#xfa;" 
d="M423 0h-52l-10 49q-89 -59 -175 -59q-88 0 -119 39.5t-13 136.5l59 334h78l-59 -334q-12 -64 8 -87.5t77 -23.5q74 0 146 51l70 394h78zM299 565l64 120h89l-100 -120h-53z" />
    <glyph glyph-name="ucircumflex" unicode="&#xfb;" 
d="M423 0h-52l-10 49q-89 -59 -175 -59q-88 0 -119 39.5t-13 136.5l59 334h78l-59 -334q-12 -64 8 -87.5t77 -23.5q74 0 146 51l70 394h78zM390 685l39 -120h-51l-42 71l-66 -71h-55l82 120h93z" />
    <glyph glyph-name="udieresis" unicode="&#xfc;" 
d="M423 0h-52l-10 49q-89 -59 -175 -59q-88 0 -119 39.5t-13 136.5l59 334h78l-59 -334q-12 -64 8 -87.5t77 -23.5q74 0 146 51l70 394h78zM211 572l14 78h79l-14 -78h-79zM358 572l14 78h78l-14 -78h-78z" />
    <glyph glyph-name="yacute" unicode="&#xfd;" horiz-adv-x="495" 
d="M169 0l-96 500h83l64 -405h2l210 405h86l-306 -568q-36 -65 -73 -88.5t-107 -23.5q-31 0 -55 9l12 66q24 -9 54 -9q36 0 57.5 15t44.5 56zM277 565l64 120h89l-100 -120h-53z" />
    <glyph glyph-name="thorn" unicode="&#xfe;" horiz-adv-x="533" 
d="M403 217l11 66q17 93 -5 127.5t-87 34.5q-77 0 -152 -60l-48 -273q25 -26 61 -41.5t70 -15.5q65 0 99 34.5t51 127.5zM221 670l-38 -214q88 55 161 55q47 0 77.5 -9.5t53 -34.5t25 -69t-6.5 -113l-13 -71q-23 -129 -78 -177t-150 -48q-73 0 -142 55l-37 -214h-78l148 840
h78z" />
    <glyph glyph-name="ydieresis" unicode="&#xff;" horiz-adv-x="495" 
d="M169 0l-96 500h83l64 -405h2l210 405h86l-306 -568q-36 -65 -73 -88.5t-107 -23.5q-31 0 -55 9l12 66q24 -9 54 -9q36 0 57.5 15t44.5 56zM196 572l14 78h79l-14 -78h-79zM343 572l14 78h78l-14 -78h-78z" />
    <glyph glyph-name="Amacron" unicode="&#x100;" horiz-adv-x="523" 
d="M380 0l-18 158h-227l-71 -158h-84l305 650h101l77 -650h-83zM321 571l-156 -345h191l-33 345h-2zM236 738l10 57h234l-10 -57h-234z" />
    <glyph glyph-name="amacron" unicode="&#x101;" horiz-adv-x="501" 
d="M23 140q12 67 62 105.5t133 34.5l158 -7l13 73q9 54 -11 76t-87 22q-63 0 -93.5 -21t-38.5 -72h-78q15 87 69.5 123t151.5 36q106 0 143.5 -37.5t21.5 -126.5l-61 -346h-49l-11 51q-81 -62 -173 -62q-85 0 -123.5 40t-26.5 111zM190 55q82 0 157 57l20 107h-159
q-92 0 -105 -78q-8 -44 13.5 -65t73.5 -21zM199 588l10 57h234l-10 -57h-234z" />
    <glyph glyph-name="Abreve" unicode="&#x102;" horiz-adv-x="523" 
d="M380 0l-18 158h-227l-71 -158h-84l305 650h101l77 -650h-83zM321 571l-156 -345h191l-33 345h-2zM345 708q-59 0 -83.5 33t-13.5 94h53q-13 -72 54 -72q64 0 77 72h53q-11 -61 -46.5 -94t-93.5 -33z" />
    <glyph glyph-name="abreve" unicode="&#x103;" horiz-adv-x="501" 
d="M23 140q12 67 62 105.5t133 34.5l158 -7l13 73q9 54 -11 76t-87 22q-63 0 -93.5 -21t-38.5 -72h-78q15 87 69.5 123t151.5 36q106 0 143.5 -37.5t21.5 -126.5l-61 -346h-49l-11 51q-81 -62 -173 -62q-85 0 -123.5 40t-26.5 111zM190 55q82 0 157 57l20 107h-159
q-92 0 -105 -78q-8 -44 13.5 -65t73.5 -21zM308 558q-59 0 -83.5 33t-13.5 94h53q-13 -72 54 -72q64 0 77 72h53q-11 -61 -46.5 -94t-93.5 -33z" />
    <glyph glyph-name="Aogonek" unicode="&#x104;" horiz-adv-x="523" 
d="M321 -99q9 46 60 85l-19 172h-227l-71 -158h-84l305 650h101l77 -650q-69 -39 -76 -83q-7 -33 33 -33h20l-9 -54h-47q-75 0 -63 71zM321 571l-156 -345h191l-33 345h-2z" />
    <glyph glyph-name="aogonek" unicode="&#x105;" horiz-adv-x="501" 
d="M385 -116l-9 -52h-42q-79 0 -67 68q9 56 89 104l-10 47q-81 -62 -173 -62q-85 0 -123.5 40t-26.5 111q12 67 62 105.5t133 34.5l158 -7l13 73q9 54 -11 76t-87 22q-63 0 -93.5 -21t-38.5 -72h-78q15 87 69.5 123t151.5 36q106 0 143.5 -37.5t21.5 -126.5l-61 -346
q-64 -38 -72 -82q-6 -34 33 -34h18zM190 55q82 0 157 57l20 107h-159q-92 0 -105 -78q-8 -44 13.5 -65t73.5 -21z" />
    <glyph glyph-name="Cacute" unicode="&#x106;" horiz-adv-x="545" 
d="M247 60q72 0 107.5 27t47.5 97h80q-19 -104 -77.5 -149t-169.5 -45q-119 0 -161.5 52t-19.5 182l36 202q22 127 83 180.5t180 53.5q111 0 154 -45.5t24 -149.5h-80q13 69 -13 97t-97 28q-79 0 -117 -34t-53 -124l-38 -214q-16 -90 9 -124t105 -34zM347 715l64 120h89
l-100 -120h-53z" />
    <glyph glyph-name="cacute" unicode="&#x107;" horiz-adv-x="506" 
d="M299 444q-76 0 -110.5 -34t-52.5 -133l-9 -54q-18 -100 4.5 -134t98.5 -34q66 0 95 22.5t40 78.5h78q-16 -90 -69.5 -128.5t-154.5 -38.5q-113 0 -153.5 50.5t-16.5 183.5l9 54q24 133 82.5 183t169.5 50q101 0 141.5 -38t24.5 -128h-78q9 56 -12 78t-87 22zM300 565
l64 120h89l-100 -120h-53z" />
    <glyph glyph-name="Ccircumflex" unicode="&#x108;" horiz-adv-x="545" 
d="M247 60q72 0 107.5 27t47.5 97h80q-19 -104 -77.5 -149t-169.5 -45q-119 0 -161.5 52t-19.5 182l36 202q22 127 83 180.5t180 53.5q111 0 154 -45.5t24 -149.5h-80q13 69 -13 97t-97 28q-79 0 -117 -34t-53 -124l-38 -214q-16 -90 9 -124t105 -34zM428 835l39 -120h-51
l-42 71l-66 -71h-55l82 120h93z" />
    <glyph glyph-name="ccircumflex" unicode="&#x109;" horiz-adv-x="506" 
d="M299 444q-76 0 -110.5 -34t-52.5 -133l-9 -54q-18 -100 4.5 -134t98.5 -34q66 0 95 22.5t40 78.5h78q-16 -90 -69.5 -128.5t-154.5 -38.5q-113 0 -153.5 50.5t-16.5 183.5l9 54q24 133 82.5 183t169.5 50q101 0 141.5 -38t24.5 -128h-78q9 56 -12 78t-87 22zM393 685
l39 -120h-51l-42 71l-66 -71h-55l82 120h93z" />
    <glyph glyph-name="Cdotaccent" unicode="&#x10a;" horiz-adv-x="545" 
d="M247 60q72 0 107.5 27t47.5 97h80q-19 -104 -77.5 -149t-169.5 -45q-119 0 -161.5 52t-19.5 182l36 202q22 127 83 180.5t180 53.5q111 0 154 -45.5t24 -149.5h-80q13 69 -13 97t-97 28q-79 0 -117 -34t-53 -124l-38 -214q-16 -90 9 -124t105 -34zM327 722l14 78h79
l-14 -78h-79z" />
    <glyph glyph-name="cdotaccent" unicode="&#x10b;" horiz-adv-x="506" 
d="M299 444q-76 0 -110.5 -34t-52.5 -133l-9 -54q-18 -100 4.5 -134t98.5 -34q66 0 95 22.5t40 78.5h78q-16 -90 -69.5 -128.5t-154.5 -38.5q-113 0 -153.5 50.5t-16.5 183.5l9 54q24 133 82.5 183t169.5 50q101 0 141.5 -38t24.5 -128h-78q9 56 -12 78t-87 22zM284 572
l14 78h79l-14 -78h-79z" />
    <glyph glyph-name="Ccaron" unicode="&#x10c;" horiz-adv-x="545" 
d="M247 60q72 0 107.5 27t47.5 97h80q-19 -104 -77.5 -149t-169.5 -45q-119 0 -161.5 52t-19.5 182l36 202q22 127 83 180.5t180 53.5q111 0 154 -45.5t24 -149.5h-80q13 69 -13 97t-97 28q-79 0 -117 -34t-53 -124l-38 -214q-16 -90 9 -124t105 -34zM496 835l-81 -120h-93
l-40 120h51l42 -71l66 71h55z" />
    <glyph glyph-name="ccaron" unicode="&#x10d;" horiz-adv-x="506" 
d="M299 444q-76 0 -110.5 -34t-52.5 -133l-9 -54q-18 -100 4.5 -134t98.5 -34q66 0 95 22.5t40 78.5h78q-16 -90 -69.5 -128.5t-154.5 -38.5q-113 0 -153.5 50.5t-16.5 183.5l9 54q24 133 82.5 183t169.5 50q101 0 141.5 -38t24.5 -128h-78q9 56 -12 78t-87 22zM455 685
l-81 -120h-93l-40 120h51l42 -71l66 71h55z" />
    <glyph glyph-name="Dcaron" unicode="&#x10e;" horiz-adv-x="567" 
d="M327 580h-115l-90 -510h115q86 0 130 34t60 124l34 196q17 95 -16 125.5t-118 30.5zM226 0h-196l114 650h196q125 0 174.5 -49t25.5 -183l-33 -186q-24 -134 -90 -183t-191 -49zM477 835l-81 -120h-93l-40 120h51l42 -71l66 71h55z" />
    <glyph glyph-name="dcaron" unicode="&#x10f;" horiz-adv-x="607" 
d="M218 55q35 0 77.5 16t74.5 44l48 272q-25 26 -60.5 41.5t-70.5 15.5q-66 0 -99.5 -34t-50.5 -127l-11 -66q-17 -92 5 -127t87 -35zM197 -11q-96 0 -134.5 48t-15.5 177l13 71q23 130 77.5 177.5t150.5 47.5q73 0 142 -55l38 215h78l-118 -670h-52l-10 49
q-87 -60 -169 -60zM570 467l36 203h74l-61 -203h-49z" />
    <glyph glyph-name="Dcroat" unicode="&#x110;" horiz-adv-x="567" 
d="M25 301l10 59h58l51 290h196q125 0 174.5 -49t25.5 -183l-33 -186q-24 -134 -90 -183t-191 -49h-196l53 301h-58zM327 580h-115l-39 -220h120l-10 -59h-120l-41 -231h115q86 0 130 34t60 124l34 196q17 95 -16 125.5t-118 30.5z" />
    <glyph glyph-name="dcroat" unicode="&#x111;" horiz-adv-x="533" 
d="M457 610l11 60h78l-11 -60h52l-8 -46h-52l-99 -564h-52l-10 49q-87 -60 -169 -60q-96 0 -134.5 48t-15.5 177l13 71q23 130 77.5 177.5t150.5 47.5q73 0 142 -55l19 109h-102l8 46h102zM218 55q35 0 77.5 16t74.5 44l48 272q-25 26 -60.5 41.5t-70.5 15.5
q-66 0 -99.5 -34t-50.5 -127l-11 -66q-17 -92 5 -127t87 -35z" />
    <glyph glyph-name="Emacron" unicode="&#x112;" horiz-adv-x="495" 
d="M30 0l114 650h370l-12 -70h-290l-38 -216h254l-12 -68h-254l-40 -226h290l-12 -70h-370zM237 738l10 57h234l-10 -57h-234z" />
    <glyph glyph-name="emacron" unicode="&#x113;" horiz-adv-x="506" 
d="M486 356q-9 -76 -55.5 -109t-145.5 -29l-158 7q-18 -102 4 -136t103 -34q76 0 177 19l-11 -66q-90 -18 -178 -18q-56 0 -92 10t-60.5 36t-27.5 71t7 116l9 54q24 132 82.5 182.5t167.5 50.5q98 0 142.5 -41.5t35.5 -112.5zM405 355q5 44 -21.5 66.5t-86.5 22.5
q-76 0 -109.5 -35t-50.5 -130h165q51 0 75 16.5t28 59.5zM218 588l10 57h234l-10 -57h-234z" />
    <glyph glyph-name="Ebreve" unicode="&#x114;" horiz-adv-x="495" 
d="M30 0l114 650h370l-12 -70h-290l-38 -216h254l-12 -68h-254l-40 -226h290l-12 -70h-370zM352 708q-59 0 -83.5 33t-13.5 94h53q-13 -72 54 -72q64 0 77 72h53q-11 -61 -46.5 -94t-93.5 -33z" />
    <glyph glyph-name="ebreve" unicode="&#x115;" horiz-adv-x="506" 
d="M486 356q-9 -76 -55.5 -109t-145.5 -29l-158 7q-18 -102 4 -136t103 -34q76 0 177 19l-11 -66q-90 -18 -178 -18q-56 0 -92 10t-60.5 36t-27.5 71t7 116l9 54q24 132 82.5 182.5t167.5 50.5q98 0 142.5 -41.5t35.5 -112.5zM405 355q5 44 -21.5 66.5t-86.5 22.5
q-76 0 -109.5 -35t-50.5 -130h165q51 0 75 16.5t28 59.5zM328 558q-59 0 -83.5 33t-13.5 94h53q-13 -72 54 -72q64 0 77 72h53q-11 -61 -46.5 -94t-93.5 -33z" />
    <glyph glyph-name="Edotaccent" unicode="&#x116;" horiz-adv-x="495" 
d="M30 0l114 650h370l-12 -70h-290l-38 -216h254l-12 -68h-254l-40 -226h290l-12 -70h-370zM313 722l14 78h79l-14 -78h-79z" />
    <glyph glyph-name="edotaccent" unicode="&#x117;" horiz-adv-x="506" 
d="M486 356q-9 -76 -55.5 -109t-145.5 -29l-158 7q-18 -102 4 -136t103 -34q76 0 177 19l-11 -66q-90 -18 -178 -18q-56 0 -92 10t-60.5 36t-27.5 71t7 116l9 54q24 132 82.5 182.5t167.5 50.5q98 0 142.5 -41.5t35.5 -112.5zM405 355q5 44 -21.5 66.5t-86.5 22.5
q-76 0 -109.5 -35t-50.5 -130h165q51 0 75 16.5t28 59.5zM286 572l14 78h79l-14 -78h-79z" />
    <glyph glyph-name="Eogonek" unicode="&#x118;" horiz-adv-x="495" 
d="M30 0l114 650h370l-12 -70h-290l-38 -216h254l-12 -68h-254l-40 -226h290l-12 -70q-64 -38 -72 -82q-6 -34 33 -34h18l-9 -52h-42q-79 0 -67 68q9 56 82 100h-313z" />
    <glyph glyph-name="eogonek" unicode="&#x119;" horiz-adv-x="506" 
d="M486 356q-9 -76 -55.5 -109t-145.5 -29l-158 7q-18 -102 4 -136t103 -34q76 0 177 19l-11 -66q-69 -39 -76 -83q-7 -33 33 -33h20l-9 -54h-47q-75 0 -63 71q9 48 63 87q-45 -6 -99 -6q-56 0 -92 10t-60.5 36t-27.5 71t7 116l9 54q24 132 82.5 182.5t167.5 50.5
q98 0 142.5 -41.5t35.5 -112.5zM405 355q5 44 -21.5 66.5t-86.5 22.5q-76 0 -109.5 -35t-50.5 -130h165q51 0 75 16.5t28 59.5z" />
    <glyph glyph-name="Ecaron" unicode="&#x11a;" horiz-adv-x="495" 
d="M30 0l114 650h370l-12 -70h-290l-38 -216h254l-12 -68h-254l-40 -226h290l-12 -70h-370zM480 835l-81 -120h-93l-40 120h51l42 -71l66 71h55z" />
    <glyph glyph-name="ecaron" unicode="&#x11b;" horiz-adv-x="506" 
d="M486 356q-9 -76 -55.5 -109t-145.5 -29l-158 7q-18 -102 4 -136t103 -34q76 0 177 19l-11 -66q-90 -18 -178 -18q-56 0 -92 10t-60.5 36t-27.5 71t7 116l9 54q24 132 82.5 182.5t167.5 50.5q98 0 142.5 -41.5t35.5 -112.5zM405 355q5 44 -21.5 66.5t-86.5 22.5
q-76 0 -109.5 -35t-50.5 -130h165q51 0 75 16.5t28 59.5zM456 685l-81 -120h-93l-40 120h51l42 -71l66 71h55z" />
    <glyph glyph-name="Gcircumflex" unicode="&#x11c;" horiz-adv-x="570" 
d="M358 660q111 0 154 -45t25 -149h-80q12 69 -13.5 96.5t-97.5 27.5q-79 0 -117 -34t-53 -124l-38 -214q-16 -92 9.5 -125t107.5 -33q74 0 112 29.5t49 91.5l21 115h-133l12 68h213l-64 -364h-42l-8 55q-67 -65 -175 -65q-118 0 -161 52.5t-20 180.5l36 204
q22 126 83 179.5t180 53.5zM438 835l39 -120h-51l-42 71l-66 -71h-55l82 120h93z" />
    <glyph glyph-name="gcircumflex" unicode="&#x11d;" horiz-adv-x="533" 
d="M349 -1l10 56q-86 -55 -160 -55q-96 0 -134.5 47.5t-15.5 177.5l11 60q23 130 77.5 177.5t150.5 47.5q82 0 149 -59l27 49h52l-89 -501q-17 -95 -69 -137t-157 -42q-89 0 -153 19l12 70q70 -23 151 -23q64 0 95.5 24t42.5 89zM287 444q-65 0 -99 -34.5t-51 -126.5l-9 -56
q-17 -93 4.5 -127t87.5 -34q78 0 151 57l46 262q-22 28 -58.5 43.5t-71.5 15.5zM402 685l39 -120h-51l-42 71l-66 -71h-55l82 120h93z" />
    <glyph glyph-name="Gbreve" unicode="&#x11e;" horiz-adv-x="570" 
d="M358 660q111 0 154 -45t25 -149h-80q12 69 -13.5 96.5t-97.5 27.5q-79 0 -117 -34t-53 -124l-38 -214q-16 -92 9.5 -125t107.5 -33q74 0 112 29.5t49 91.5l21 115h-133l12 68h213l-64 -364h-42l-8 55q-67 -65 -175 -65q-118 0 -161 52.5t-20 180.5l36 204
q22 126 83 179.5t180 53.5zM379 708q-59 0 -83.5 33t-13.5 94h53q-13 -72 54 -72q64 0 77 72h53q-11 -61 -46.5 -94t-93.5 -33z" />
    <glyph glyph-name="gbreve" unicode="&#x11f;" horiz-adv-x="533" 
d="M349 -1l10 56q-86 -55 -160 -55q-96 0 -134.5 47.5t-15.5 177.5l11 60q23 130 77.5 177.5t150.5 47.5q82 0 149 -59l27 49h52l-89 -501q-17 -95 -69 -137t-157 -42q-89 0 -153 19l12 70q70 -23 151 -23q64 0 95.5 24t42.5 89zM287 444q-65 0 -99 -34.5t-51 -126.5l-9 -56
q-17 -93 4.5 -127t87.5 -34q78 0 151 57l46 262q-22 28 -58.5 43.5t-71.5 15.5zM333 558q-59 0 -83.5 33t-13.5 94h53q-13 -72 54 -72q64 0 77 72h53q-11 -61 -46.5 -94t-93.5 -33z" />
    <glyph glyph-name="Gdotaccent" unicode="&#x120;" horiz-adv-x="570" 
d="M358 660q111 0 154 -45t25 -149h-80q12 69 -13.5 96.5t-97.5 27.5q-79 0 -117 -34t-53 -124l-38 -214q-16 -92 9.5 -125t107.5 -33q74 0 112 29.5t49 91.5l21 115h-133l12 68h213l-64 -364h-42l-8 55q-67 -65 -175 -65q-118 0 -161 52.5t-20 180.5l36 204
q22 126 83 179.5t180 53.5zM334 722l14 78h79l-14 -78h-79z" />
    <glyph glyph-name="gdotaccent" unicode="&#x121;" horiz-adv-x="533" 
d="M349 -1l10 56q-86 -55 -160 -55q-96 0 -134.5 47.5t-15.5 177.5l11 60q23 130 77.5 177.5t150.5 47.5q82 0 149 -59l27 49h52l-89 -501q-17 -95 -69 -137t-157 -42q-89 0 -153 19l12 70q70 -23 151 -23q64 0 95.5 24t42.5 89zM287 444q-65 0 -99 -34.5t-51 -126.5l-9 -56
q-17 -93 4.5 -127t87.5 -34q78 0 151 57l46 262q-22 28 -58.5 43.5t-71.5 15.5zM302 572l14 78h79l-14 -78h-79z" />
    <glyph glyph-name="Gcommaaccent" unicode="&#x122;" horiz-adv-x="570" 
d="M358 660q111 0 154 -45t25 -149h-80q12 69 -13.5 96.5t-97.5 27.5q-79 0 -117 -34t-53 -124l-38 -214q-16 -92 9.5 -125t107.5 -33q74 0 112 29.5t49 91.5l21 115h-133l12 68h213l-64 -364h-42l-8 55q-67 -65 -175 -65q-118 0 -161 52.5t-20 180.5l36 204
q22 126 83 179.5t180 53.5zM148 -190l53 130h84l-82 -130h-55z" />
    <glyph glyph-name="gcommaaccent" unicode="&#x123;" horiz-adv-x="533" 
d="M349 -1l10 56q-86 -55 -160 -55q-96 0 -134.5 47.5t-15.5 177.5l11 60q23 130 77.5 177.5t150.5 47.5q82 0 149 -59l27 49h52l-89 -501q-17 -95 -69 -137t-157 -42q-89 0 -153 19l12 70q70 -23 151 -23q64 0 95.5 24t42.5 89zM287 444q-65 0 -99 -34.5t-51 -126.5l-9 -56
q-17 -93 4.5 -127t87.5 -34q78 0 151 57l46 262q-22 28 -58.5 43.5t-71.5 15.5zM431 690l-53 -130h-84l82 130h55z" />
    <glyph glyph-name="Hcircumflex" unicode="&#x124;" horiz-adv-x="565" 
d="M569 650l-114 -650h-80l52 296h-265l-52 -296h-80l114 650h80l-50 -286h265l50 286h80zM438 835l39 -120h-51l-42 71l-66 -71h-55l82 120h93z" />
    <glyph glyph-name="hcircumflex" unicode="&#x125;" horiz-adv-x="537" 
d="M221 670l-38 -216q89 56 167 56q88 0 118 -40.5t13 -136.5l-58 -333h-78l58 333q12 64 -8 87.5t-77 23.5q-74 0 -146 -50l-69 -394h-78l118 670h78zM259 840l39 -120h-51l-42 71l-66 -71h-55l82 120h93z" />
    <glyph glyph-name="Hbar" unicode="&#x126;" horiz-adv-x="565" 
d="M67 494l9 54h50l18 102h80l-18 -102h265l18 102h80l-18 -102h50l-9 -54h-50l-87 -494h-80l52 296h-265l-52 -296h-80l87 494h-50zM174 364h265l23 130h-265z" />
    <glyph glyph-name="hbar" unicode="&#x127;" horiz-adv-x="537" 
d="M221 670l-10 -52h280l-8 -49h-280l-20 -115q89 56 167 56q88 0 118 -40.5t13 -136.5l-58 -333h-78l58 333q12 64 -8 87.5t-77 23.5q-74 0 -146 -50l-69 -394h-78l118 670h78z" />
    <glyph glyph-name="Itilde" unicode="&#x128;" horiz-adv-x="220" 
d="M242 684q-23 0 -39 13t-27.5 26t-22.5 13q-25 0 -32 -42h-52q9 51 30 76.5t60 25.5q18 0 31.5 -8t21 -18t17 -18t19.5 -8q25 0 32 42h51q-9 -51 -30 -76.5t-59 -25.5zM30 0l114 650h80l-114 -650h-80z" />
    <glyph glyph-name="itilde" unicode="&#x129;" horiz-adv-x="213" 
d="M213 539q-29 0 -53 26t-36 26q-24 0 -33 -42h-52q9 51 30 76.5t60 25.5q18 0 31.5 -8t21 -18t17 -18t19.5 -8q24 0 33 42h51q-9 -51 -30 -76.5t-59 -25.5zM27 0l88 500h78l-88 -500h-78z" />
    <glyph glyph-name="Imacron" unicode="&#x12a;" horiz-adv-x="220" 
d="M101 720l11 60h190l-11 -60h-190zM30 0l114 650h80l-114 -650h-80z" />
    <glyph glyph-name="imacron" unicode="&#x12b;" horiz-adv-x="213" 
d="M70 561l11 59h190l-11 -59h-190zM27 0l88 500h78l-88 -500h-78z" />
    <glyph glyph-name="Ibreve" unicode="&#x12c;" horiz-adv-x="220" 
d="M30 0l114 650h80l-114 -650h-80zM198 708q-59 0 -83.5 33t-13.5 94h53q-13 -72 54 -72q64 0 77 72h53q-11 -61 -46.5 -94t-93.5 -33z" />
    <glyph glyph-name="ibreve" unicode="&#x12d;" horiz-adv-x="213" 
d="M27 0l88 500h78l-88 -500h-78zM164 558q-59 0 -83.5 33t-13.5 94h53q-13 -72 54 -72q64 0 77 72h53q-11 -61 -46.5 -94t-93.5 -33z" />
    <glyph glyph-name="Iogonek" unicode="&#x12e;" horiz-adv-x="220" 
d="M-29 -100q7 43 55 82l118 668h80l-114 -650q-64 -38 -72 -82q-6 -34 33 -34h18l-9 -52h-42q-79 0 -67 68z" />
    <glyph glyph-name="iogonek" unicode="&#x12f;" horiz-adv-x="213" 
d="M-37 -99q9 49 61 85l91 514h78l-88 -500q-69 -39 -76 -83q-7 -33 33 -33h20l-9 -54h-47q-74 0 -63 71zM126 588l15 82h82l-15 -82h-82z" />
    <glyph glyph-name="Idotaccent" unicode="&#x130;" horiz-adv-x="220" 
d="M30 0l114 650h80l-114 -650h-80zM158 722l14 78h79l-14 -78h-79z" />
    <glyph glyph-name="dotlessi" unicode="&#x131;" horiz-adv-x="213" 
d="M27 0l88 500h78l-88 -500h-78z" />
    <glyph glyph-name="Jcircumflex" unicode="&#x134;" horiz-adv-x="363" 
d="M275 580h-123l12 70h203l-90 -512q-13 -77 -53 -112.5t-128 -35.5q-56 0 -96 10l12 70q37 -10 92 -10q43 0 64 16.5t29 61.5zM340 835l39 -120h-51l-42 71l-66 -71h-55l82 120h93z" />
    <glyph glyph-name="jcircumflex" unicode="&#x135;" horiz-adv-x="208" 
d="M193 500l-98 -553q-12 -65 -43.5 -96t-93.5 -31q-45 0 -73 10l11 66q34 -9 59 -9q28 0 42.5 14.5t19.5 45.5l98 553h78zM233 685l39 -120h-51l-42 71l-66 -71h-55l82 120h93z" />
    <glyph glyph-name="Kcommaaccent" unicode="&#x136;" horiz-adv-x="508" 
d="M547 650l-311 -316l202 -334h-96l-57 102t-46 77.5l-29.5 47.5t-27.5 41.5t-20 29.5l-52 -298h-80l114 650h80l-51 -288l277 288h97zM117 -190l53 130h84l-82 -130h-55z" />
    <glyph glyph-name="kcommaaccent" unicode="&#x137;" horiz-adv-x="460" 
d="M144 236l-41 -236h-78l118 670h78l-68 -381h2l224 211h98l-259 -241q13 -23 93.5 -130.5t93.5 -128.5h-95l-164 236h-2zM93 -190l53 130h84l-82 -130h-55z" />
    <glyph glyph-name="kgreenlandic" unicode="&#x138;" horiz-adv-x="460" 
d="M144 236l-41 -236h-78l88 500h78l-38 -211h2l226 211h96l-259 -236q14 -23 94 -133t93 -131h-99l-160 236h-2z" />
    <glyph glyph-name="Lacute" unicode="&#x139;" horiz-adv-x="422" 
d="M30 0l114 650h80l-102 -580h232l-12 -70h-312zM170 715l64 120h89l-100 -120h-53z" />
    <glyph glyph-name="lacute" unicode="&#x13a;" horiz-adv-x="208" 
d="M25 0l118 670h78l-118 -670h-78zM173 735l64 120h89l-100 -120h-53z" />
    <glyph glyph-name="Lcommaaccent" unicode="&#x13b;" horiz-adv-x="422" 
d="M30 0l114 650h80l-102 -580h232l-12 -70h-312zM74 -190l53 130h84l-82 -130h-55z" />
    <glyph glyph-name="lcommaaccent" unicode="&#x13c;" horiz-adv-x="208" 
d="M25 0l118 670h78l-118 -670h-78zM-42 -190l53 130h84l-82 -130h-55z" />
    <glyph glyph-name="Lcaron" unicode="&#x13d;" horiz-adv-x="422" 
d="M30 0l114 650h80l-102 -580h232l-12 -70h-312zM256 467l36 203h74l-61 -203h-49z" />
    <glyph glyph-name="lcaron" unicode="&#x13e;" horiz-adv-x="288" 
d="M25 0l118 670h78l-118 -670h-78zM253 467l36 203h74l-61 -203h-49z" />
    <glyph glyph-name="Ldot" unicode="&#x13f;" horiz-adv-x="422" 
d="M225 286l16 90h92l-16 -90h-92zM30 0l114 650h80l-102 -580h232l-12 -70h-312z" />
    <glyph glyph-name="ldot" unicode="&#x140;" horiz-adv-x="324" 
d="M25 0l118 670h78l-118 -670h-78zM217 281l17 97h98l-17 -97h-98z" />
    <glyph glyph-name="Lslash" unicode="&#x141;" horiz-adv-x="422" 
d="M40 0l46 261l-65 -25l11 61l64 24l58 329h80l-52 -297l110 43l-10 -61l-111 -42l-39 -223h232l-12 -70h-312z" />
    <glyph glyph-name="lslash" unicode="&#x142;" horiz-adv-x="241" 
d="M42 0l47 267l-78 -30l11 59l77 30l61 344h77l-56 -314l78 30l-11 -59l-77 -30l-52 -297h-77z" />
    <glyph glyph-name="Nacute" unicode="&#x143;" horiz-adv-x="574" 
d="M578 650l-114 -650h-102l-158 535l-94 -535h-80l114 650h102l158 -535l94 535h80zM347 715l64 120h89l-100 -120h-53z" />
    <glyph glyph-name="nacute" unicode="&#x144;" 
d="M113 500h52l9 -49q90 59 175 59q88 0 119 -39.5t13 -137.5l-58 -333h-78l58 333q12 64 -8 87.5t-77 23.5q-74 0 -146 -50l-69 -394h-78zM302 565l64 120h89l-100 -120h-53z" />
    <glyph glyph-name="Ncommaaccent" unicode="&#x145;" horiz-adv-x="574" 
d="M578 650l-114 -650h-102l-158 535l-94 -535h-80l114 650h102l158 -535l94 535h80zM150 -190l53 130h84l-82 -130h-55z" />
    <glyph glyph-name="ncommaaccent" unicode="&#x146;" 
d="M113 500h52l9 -49q90 59 175 59q88 0 119 -39.5t13 -137.5l-58 -333h-78l58 333q12 64 -8 87.5t-77 23.5q-74 0 -146 -50l-69 -394h-78zM127 -190l53 130h84l-82 -130h-55z" />
    <glyph glyph-name="Ncaron" unicode="&#x147;" horiz-adv-x="574" 
d="M578 650l-114 -650h-102l-158 535l-94 -535h-80l114 650h102l158 -535l94 535h80zM493 835l-81 -120h-93l-40 120h51l42 -71l66 71h55z" />
    <glyph glyph-name="ncaron" unicode="&#x148;" 
d="M113 500h52l9 -49q90 59 175 59q88 0 119 -39.5t13 -137.5l-58 -333h-78l58 333q12 64 -8 87.5t-77 23.5q-74 0 -146 -50l-69 -394h-78zM450 685l-81 -120h-93l-40 120h51l42 -71l66 71h55z" />
    <glyph glyph-name="Eng" unicode="&#x14a;" horiz-adv-x="574" 
d="M501 650h77l-120 -682q-13 -77 -52.5 -112.5t-125.5 -35.5q-55 0 -99 11l12 69q45 -12 92 -12q44 0 64.5 17t28.5 64l-178 566l-20 -124.5l-20 -126.5l-50 -284h-80l114 650h97l168 -536q23 144 44 262z" />
    <glyph glyph-name="eng" unicode="&#x14b;" 
d="M113 500h52l9 -49q90 59 175 59q88 0 119 -39.5t13 -137.5l-68 -386q-12 -65 -44 -96t-94 -31q-45 0 -73 10l11 66q34 -9 59 -9q29 0 43 14.5t20 45.5l68 386q12 64 -8 87.5t-77 23.5q-74 0 -146 -50l-69 -394h-78z" />
    <glyph glyph-name="Omacron" unicode="&#x14c;" horiz-adv-x="559" 
d="M422 220l37 210q17 93 -10 126.5t-105 33.5q-80 0 -118.5 -33.5t-55.5 -127.5l-37 -209q-16 -93 11 -126.5t106 -33.5q78 0 117 33.5t55 126.5zM53 220l37 210q23 127 85 178.5t181 51.5q118 0 162 -52t21 -178l-37 -210q-22 -127 -84 -178.5t-180 -51.5
q-119 0 -163 51.5t-22 178.5zM260 738l10 57h234l-10 -57h-234z" />
    <glyph glyph-name="omacron" unicode="&#x14d;" horiz-adv-x="511" 
d="M474 277l-9 -54q-23 -132 -81 -183t-171 -51t-152.5 51t-16.5 183l9 54q23 131 81 182t170 51q113 0 153 -51t17 -182zM387 223l9 54q18 99 -4 133t-99 34t-110.5 -34t-51.5 -133l-9 -54q-18 -100 3.5 -134t98.5 -34t111 34t52 134zM205 588l10 57h234l-10 -57h-234z" />
    <glyph glyph-name="Obreve" unicode="&#x14e;" horiz-adv-x="559" 
d="M422 220l37 210q17 93 -10 126.5t-105 33.5q-80 0 -118.5 -33.5t-55.5 -127.5l-37 -209q-16 -93 11 -126.5t106 -33.5q78 0 117 33.5t55 126.5zM53 220l37 210q23 127 85 178.5t181 51.5q118 0 162 -52t21 -178l-37 -210q-22 -127 -84 -178.5t-180 -51.5
q-119 0 -163 51.5t-22 178.5zM375 708q-59 0 -83.5 33t-13.5 94h53q-13 -72 54 -72q64 0 77 72h53q-11 -61 -46.5 -94t-93.5 -33z" />
    <glyph glyph-name="obreve" unicode="&#x14f;" horiz-adv-x="511" 
d="M474 277l-9 -54q-23 -132 -81 -183t-171 -51t-152.5 51t-16.5 183l9 54q23 131 81 182t170 51q113 0 153 -51t17 -182zM387 223l9 54q18 99 -4 133t-99 34t-110.5 -34t-51.5 -133l-9 -54q-18 -100 3.5 -134t98.5 -34t111 34t52 134zM320 558q-59 0 -83.5 33t-13.5 94h53
q-13 -72 54 -72q64 0 77 72h53q-11 -61 -46.5 -94t-93.5 -33z" />
    <glyph glyph-name="Ohungarumlaut" unicode="&#x150;" horiz-adv-x="559" 
d="M422 220l37 210q17 93 -10 126.5t-105 33.5q-80 0 -118.5 -33.5t-55.5 -127.5l-37 -209q-16 -93 11 -126.5t106 -33.5q78 0 117 33.5t55 126.5zM53 220l37 210q23 127 85 178.5t181 51.5q118 0 162 -52t21 -178l-37 -210q-22 -127 -84 -178.5t-180 -51.5
q-119 0 -163 51.5t-22 178.5zM292 715l39 120h82l-73 -120h-48zM408 715l67 120h86l-102 -120h-51z" />
    <glyph glyph-name="ohungarumlaut" unicode="&#x151;" horiz-adv-x="511" 
d="M474 277l-9 -54q-23 -132 -81 -183t-171 -51t-152.5 51t-16.5 183l9 54q23 131 81 182t170 51q113 0 153 -51t17 -182zM387 223l9 54q18 99 -4 133t-99 34t-110.5 -34t-51.5 -133l-9 -54q-18 -100 3.5 -134t98.5 -34t111 34t52 134zM238 565l39 120h82l-73 -120h-48z
M354 565l67 120h86l-102 -120h-51z" />
    <glyph glyph-name="OE" unicode="&#x152;" horiz-adv-x="835" 
d="M384 70l90 510h-129q-79 0 -119.5 -33t-56.5 -122l-35 -200q-16 -89 14 -122t107 -33h129zM357 650h499l-12 -70h-290l-38 -216h254l-12 -68h-254l-40 -226h290l-12 -70h-499q-117 0 -164 51t-25 174l35 199q22 124 86 175t182 51z" />
    <glyph glyph-name="oe" unicode="&#x153;" horiz-adv-x="844" 
d="M387 223l9 54q18 99 -4 133t-99 34t-110.5 -34t-51.5 -133l-9 -54q-18 -100 3.5 -134t98.5 -34t111 34t52 134zM743 355q5 44 -21.5 66.5t-86.5 22.5q-76 0 -109.5 -35t-50.5 -130h165q51 0 75 16.5t28 59.5zM824 356q-9 -76 -55.5 -109t-145.5 -29l-158 7
q-18 -102 4 -136t103 -34q76 0 177 19l-11 -66q-90 -18 -178 -18q-68 0 -107.5 16t-54.5 56q-29 -39 -73 -56t-112 -17q-113 0 -152.5 51t-16.5 183l9 54q23 131 81 182t170 51q68 0 106 -17t53 -57q54 74 183 74q98 0 142.5 -41.5t35.5 -112.5z" />
    <glyph glyph-name="Racute" unicode="&#x154;" horiz-adv-x="548" 
d="M30 0l114 650h205q119 0 163.5 -43t23.5 -161q-14 -80 -50 -125.5t-99 -62.5l81 -258h-87l-75 246h-153l-43 -246h-80zM165 314h127q77 0 112.5 27.5t48.5 104.5q14 81 -12 107.5t-103 26.5h-126zM329 715l64 120h89l-100 -120h-53z" />
    <glyph glyph-name="racute" unicode="&#x155;" horiz-adv-x="317" 
d="M331 510l-12 -72q-84 0 -148 -52l-68 -386h-78l88 500h52l9 -49q78 59 157 59zM213 565l64 120h89l-100 -120h-53z" />
    <glyph glyph-name="Rcommaaccent" unicode="&#x156;" horiz-adv-x="548" 
d="M30 0l114 650h205q119 0 163.5 -43t23.5 -161q-14 -80 -50 -125.5t-99 -62.5l81 -258h-87l-75 246h-153l-43 -246h-80zM165 314h127q77 0 112.5 27.5t48.5 104.5q14 81 -12 107.5t-103 26.5h-126zM137 -190l53 130h84l-82 -130h-55z" />
    <glyph glyph-name="rcommaaccent" unicode="&#x157;" horiz-adv-x="317" 
d="M331 510l-12 -72q-84 0 -148 -52l-68 -386h-78l88 500h52l9 -49q78 59 157 59zM-42 -190l53 130h84l-82 -130h-55z" />
    <glyph glyph-name="Rcaron" unicode="&#x158;" horiz-adv-x="548" 
d="M30 0l114 650h205q119 0 163.5 -43t23.5 -161q-14 -80 -50 -125.5t-99 -62.5l81 -258h-87l-75 246h-153l-43 -246h-80zM165 314h127q77 0 112.5 27.5t48.5 104.5q14 81 -12 107.5t-103 26.5h-126zM492 835l-81 -120h-93l-40 120h51l42 -71l66 71h55z" />
    <glyph glyph-name="rcaron" unicode="&#x159;" horiz-adv-x="317" 
d="M331 510l-12 -72q-84 0 -148 -52l-68 -386h-78l88 500h52l9 -49q78 59 157 59zM362 685l-81 -120h-93l-40 120h51l42 -71l66 71h55z" />
    <glyph glyph-name="Sacute" unicode="&#x15a;" horiz-adv-x="537" 
d="M268 302q-107 14 -145.5 56t-23.5 125q31 177 242 177q110 0 153.5 -42.5t25.5 -141.5h-80q12 64 -13 89t-97 25q-67 0 -104 -25.5t-47 -81.5t15 -82.5t109 -37.5q123 -16 159 -58t20 -130q-17 -97 -78.5 -141t-178.5 -44q-111 0 -159.5 42t-29.5 144h80q-12 -66 17 -91
t104 -25q80 0 116.5 26.5t47.5 88.5q11 60 -13.5 86.5t-119.5 40.5zM340 715l64 120h89l-100 -120h-53z" />
    <glyph glyph-name="sacute" unicode="&#x15b;" horiz-adv-x="493" 
d="M432 139q-6 -35 -17 -58.5t-34.5 -46t-67.5 -33.5t-109 -11q-113 0 -150.5 38.5t-23.5 117.5h76q-9 -50 13.5 -70.5t91.5 -20.5q53 0 84 11t42.5 27.5t16.5 45.5q8 41 -17 59t-101 25q-98 9 -134 42t-24 99q26 146 215 146q101 0 140.5 -36.5t24.5 -120.5h-76
q8 47 -12.5 69t-84.5 22q-115 0 -129 -80q-8 -43 14 -61t90 -23q115 -10 149.5 -39t22.5 -102zM288 565l64 120h89l-100 -120h-53z" />
    <glyph glyph-name="Scircumflex" unicode="&#x15c;" horiz-adv-x="537" 
d="M268 302q-107 14 -145.5 56t-23.5 125q31 177 242 177q110 0 153.5 -42.5t25.5 -141.5h-80q12 64 -13 89t-97 25q-67 0 -104 -25.5t-47 -81.5t15 -82.5t109 -37.5q123 -16 159 -58t20 -130q-17 -97 -78.5 -141t-178.5 -44q-111 0 -159.5 42t-29.5 144h80q-12 -66 17 -91
t104 -25q80 0 116.5 26.5t47.5 88.5q11 60 -13.5 86.5t-119.5 40.5zM428 835l39 -120h-51l-42 71l-66 -71h-55l82 120h93z" />
    <glyph glyph-name="scircumflex" unicode="&#x15d;" horiz-adv-x="493" 
d="M432 139q-6 -35 -17 -58.5t-34.5 -46t-67.5 -33.5t-109 -11q-113 0 -150.5 38.5t-23.5 117.5h76q-9 -50 13.5 -70.5t91.5 -20.5q53 0 84 11t42.5 27.5t16.5 45.5q8 41 -17 59t-101 25q-98 9 -134 42t-24 99q26 146 215 146q101 0 140.5 -36.5t24.5 -120.5h-76
q8 47 -12.5 69t-84.5 22q-115 0 -129 -80q-8 -43 14 -61t90 -23q115 -10 149.5 -39t22.5 -102zM372 685l39 -120h-51l-42 71l-66 -71h-55l82 120h93z" />
    <glyph glyph-name="Scedilla" unicode="&#x15e;" horiz-adv-x="537" 
d="M268 302q-107 15 -145.5 56.5t-23.5 124.5q31 177 242 177q110 0 153.5 -42.5t25.5 -141.5h-80q12 64 -13 89t-97 25q-67 0 -104 -25.5t-47 -81.5t15 -82.5t109 -37.5q123 -16 159 -58t20 -130q-16 -94 -74 -138t-167 -47l-17 -37q70 -7 59 -69q-7 -41 -36.5 -59
t-84.5 -18h-56l8 43h62q47 0 52 34q3 17 -6 25t-34 8h-24l35 74q-97 4 -138.5 46.5t-24.5 138.5h80q-12 -66 17 -91t104 -25q80 0 116.5 26.5t47.5 88.5q11 60 -13.5 86.5t-119.5 40.5z" />
    <glyph glyph-name="scedilla" unicode="&#x15f;" horiz-adv-x="493" 
d="M432 139q-6 -33 -16 -56t-32 -45t-62.5 -33.5t-99.5 -13.5l-17 -38q70 -7 59 -69q-7 -41 -36.5 -59t-84.5 -18h-56l8 43h62q47 0 52 34q3 17 -6 25t-34 8h-24l35 74q-99 4 -131 42t-19 113h78q-9 -50 13.5 -70.5t91.5 -20.5q77 0 105 20t36 64q8 41 -16 59t-101 25
q-100 9 -135.5 40.5t-23.5 100.5q26 146 216 146q101 0 140 -36.5t24 -120.5h-78q8 47 -12.5 69t-84.5 22q-113 0 -127 -80q-7 -42 16 -60.5t88 -23.5q114 -10 149 -40t23 -101z" />
    <glyph glyph-name="Scaron" unicode="&#x160;" horiz-adv-x="537" 
d="M268 302q-107 14 -145.5 56t-23.5 125q31 177 242 177q110 0 153.5 -42.5t25.5 -141.5h-80q12 64 -13 89t-97 25q-67 0 -104 -25.5t-47 -81.5t15 -82.5t109 -37.5q123 -16 159 -58t20 -130q-17 -97 -78.5 -141t-178.5 -44q-111 0 -159.5 42t-29.5 144h80q-12 -66 17 -91
t104 -25q80 0 116.5 26.5t47.5 88.5q11 60 -13.5 86.5t-119.5 40.5zM490 835l-81 -120h-93l-40 120h51l42 -71l66 71h55z" />
    <glyph glyph-name="scaron" unicode="&#x161;" horiz-adv-x="493" 
d="M432 139q-6 -35 -17 -58.5t-34.5 -46t-67.5 -33.5t-109 -11q-113 0 -150.5 38.5t-23.5 117.5h76q-9 -50 13.5 -70.5t91.5 -20.5q53 0 84 11t42.5 27.5t16.5 45.5q8 41 -17 59t-101 25q-98 9 -134 42t-24 99q26 146 215 146q101 0 140.5 -36.5t24.5 -120.5h-76
q8 47 -12.5 69t-84.5 22q-115 0 -129 -80q-8 -43 14 -61t90 -23q115 -10 149.5 -39t22.5 -102zM432 685l-81 -120h-93l-40 120h51l42 -71l66 71h55z" />
    <glyph glyph-name="Tcommaaccent" unicode="&#x162;" horiz-adv-x="458" 
d="M149 0l102 580h-164l12 70h408l-12 -70h-164l-102 -580h-80zM79 -190l53 130h84l-82 -130h-55z" />
    <glyph glyph-name="tcommaaccent" unicode="&#x163;" horiz-adv-x="331" 
d="M75 118l56 316h-65l10 54l67 12l21 122l80 13l-23 -135h113l-12 -66h-113l-56 -317q-11 -61 45 -61q22 0 69 10l-11 -66q-40 -11 -83 -11q-63 0 -86 31.5t-12 97.5zM47 -190l53 130h84l-82 -130h-55z" />
    <glyph glyph-name="Tcaron" unicode="&#x164;" horiz-adv-x="458" 
d="M149 0l102 580h-164l12 70h408l-12 -70h-164l-102 -580h-80zM444 835l-81 -120h-93l-40 120h51l42 -71l66 71h55z" />
    <glyph glyph-name="tcaron" unicode="&#x165;" horiz-adv-x="331" 
d="M291 540l28 160h70l-52 -160h-46zM70 118l56 316h-65l10 54l67 12l21 122l80 13l-23 -135h113l-12 -66h-113l-56 -317q-11 -61 45 -61q21 0 69 10l-11 -66q-40 -11 -83 -11q-63 0 -86 31.5t-12 97.5z" />
    <glyph glyph-name="Tbar" unicode="&#x166;" horiz-adv-x="458" 
d="M280 290l-51 -290h-80l51 290h-94l10 61h94l41 229h-164l12 70h408l-12 -70h-164l-41 -229h94l-10 -61h-94z" />
    <glyph glyph-name="tbar" unicode="&#x167;" horiz-adv-x="331" 
d="M102 295l24 139h-65l10 54l67 12l21 122l80 13l-23 -135h113l-12 -66h-113l-24 -139h91l-10 -55h-91l-22 -123q-11 -61 45 -61q21 0 69 10l-11 -66q-40 -11 -83 -11q-63 0 -86 31.5t-12 97.5l22 122h-45l10 55h45z" />
    <glyph glyph-name="Utilde" unicode="&#x168;" horiz-adv-x="575" 
d="M144 650h80l-79 -450q-14 -78 12 -109.5t100 -31.5t111.5 31.5t51.5 109.5l79 450h80l-79 -448q-21 -119 -82 -166t-173 -47q-111 0 -156 47t-24 166zM435 773q38 0 45 42h50q-18 -99 -98 -99q-31 0 -60 24.5t-48 24.5q-37 0 -44 -42h-49q16 99 97 99q30 0 59 -24.5
t48 -24.5z" />
    <glyph glyph-name="utilde" unicode="&#x169;" 
d="M423 0h-52l-10 49q-89 -59 -175 -59q-88 0 -119 39.5t-13 136.5l59 334h78l-59 -334q-12 -64 8 -87.5t77 -23.5q74 0 146 51l70 394h78zM387 623q38 0 45 42h50q-18 -99 -98 -99q-31 0 -60 24.5t-48 24.5q-37 0 -44 -42h-49q16 99 97 99q30 0 59 -24.5t48 -24.5z" />
    <glyph glyph-name="Umacron" unicode="&#x16a;" horiz-adv-x="575" 
d="M144 650h80l-79 -450q-14 -78 12 -109.5t100 -31.5t111.5 31.5t51.5 109.5l79 450h80l-79 -448q-21 -119 -82 -166t-173 -47q-111 0 -156 47t-24 166zM260 738l10 57h234l-10 -57h-234z" />
    <glyph glyph-name="umacron" unicode="&#x16b;" 
d="M423 0h-52l-10 49q-89 -59 -175 -59q-88 0 -119 39.5t-13 136.5l59 334h78l-59 -334q-12 -64 8 -87.5t77 -23.5q74 0 146 51l70 394h78zM210 588l10 57h234l-10 -57h-234z" />
    <glyph glyph-name="Ubreve" unicode="&#x16c;" horiz-adv-x="575" 
d="M144 650h80l-79 -450q-14 -78 12 -109.5t100 -31.5t111.5 31.5t51.5 109.5l79 450h80l-79 -448q-21 -119 -82 -166t-173 -47q-111 0 -156 47t-24 166zM373 708q-59 0 -83.5 33t-13.5 94h53q-13 -72 54 -72q64 0 77 72h53q-11 -61 -46.5 -94t-93.5 -33z" />
    <glyph glyph-name="ubreve" unicode="&#x16d;" 
d="M423 0h-52l-10 49q-89 -59 -175 -59q-88 0 -119 39.5t-13 136.5l59 334h78l-59 -334q-12 -64 8 -87.5t77 -23.5q74 0 146 51l70 394h78zM321 558q-59 0 -83.5 33t-13.5 94h53q-13 -72 54 -72q64 0 77 72h53q-11 -61 -46.5 -94t-93.5 -33z" />
    <glyph glyph-name="Uring" unicode="&#x16e;" horiz-adv-x="575" 
d="M144 650h80l-79 -450q-14 -78 12 -109.5t100 -31.5t111.5 31.5t51.5 109.5l79 450h80l-79 -448q-21 -119 -82 -166t-173 -47q-111 0 -156 47t-24 166zM484 789q-15 -85 -113 -85q-48 0 -69.5 21.5t-14.5 63.5q15 85 114 85q47 0 68.5 -21.5t14.5 -63.5zM431 789
q8 40 -38 40q-45 0 -53 -40q-6 -40 39 -40q44 0 52 40z" />
    <glyph glyph-name="uring" unicode="&#x16f;" 
d="M423 0h-52l-10 49q-89 -59 -175 -59q-88 0 -119 39.5t-13 136.5l59 334h78l-59 -334q-12 -64 8 -87.5t77 -23.5q74 0 146 51l70 394h78zM433 639q-15 -85 -113 -85q-48 0 -69.5 21.5t-14.5 63.5q15 85 114 85q47 0 68.5 -21.5t14.5 -63.5zM380 639q8 40 -38 40
q-45 0 -53 -40q-6 -40 39 -40q44 0 52 40z" />
    <glyph glyph-name="Uhungarumlaut" unicode="&#x170;" horiz-adv-x="575" 
d="M144 650h80l-79 -450q-14 -78 12 -109.5t100 -31.5t111.5 31.5t51.5 109.5l79 450h80l-79 -448q-21 -119 -82 -166t-173 -47q-111 0 -156 47t-24 166zM290 715l39 120h82l-73 -120h-48zM406 715l67 120h86l-102 -120h-51z" />
    <glyph glyph-name="uhungarumlaut" unicode="&#x171;" 
d="M423 0h-52l-10 49q-89 -59 -175 -59q-88 0 -119 39.5t-13 136.5l59 334h78l-59 -334q-12 -64 8 -87.5t77 -23.5q74 0 146 51l70 394h78zM241 565l39 120h82l-73 -120h-48zM357 565l67 120h86l-102 -120h-51z" />
    <glyph glyph-name="Uogonek" unicode="&#x172;" horiz-adv-x="575" 
d="M317 -116l-9 -52h-42q-79 0 -67 68q7 48 65 90q-3 0 -9.5 -0.5t-9.5 -0.5q-111 0 -156 47t-24 166l79 448h80l-79 -450q-14 -78 12 -109.5t100 -31.5t111.5 31.5t51.5 109.5l79 450h80l-79 -448q-17 -93 -57.5 -141t-108.5 -63q-60 -38 -68 -80q-6 -34 33 -34h18z" />
    <glyph glyph-name="uogonek" unicode="&#x173;" 
d="M370 3l-9 46q-89 -59 -175 -59q-88 0 -119 39.5t-13 136.5l59 334h78l-59 -334q-12 -64 8 -87.5t77 -23.5q74 0 146 51l70 394h78l-88 -500q-69 -39 -76 -83q-7 -33 33 -33h20l-9 -54h-47q-75 0 -63 71q11 57 89 102z" />
    <glyph glyph-name="Wcircumflex" unicode="&#x174;" horiz-adv-x="817" 
d="M491 0l-24 565l-222 -565h-106l-30 650h83l15 -562h2l221 562h104l24 -562h2l212 562h84l-259 -650h-106zM558 835l39 -120h-51l-42 71l-66 -71h-55l82 120h93z" />
    <glyph glyph-name="wcircumflex" unicode="&#x175;" horiz-adv-x="730" 
d="M495 82l169 418h84l-218 -500h-93l-38 426l-183 -426h-97l-41 500h80l24 -418h1l180 418h95zM491 685l39 -120h-51l-42 71l-66 -71h-55l82 120h93z" />
    <glyph glyph-name="Ycircumflex" unicode="&#x176;" horiz-adv-x="510" 
d="M175 0l44 253l-120 397h89l84 -317h2l196 317h89l-260 -397l-44 -253h-80zM401 835l39 -120h-51l-42 71l-66 -71h-55l82 120h93z" />
    <glyph glyph-name="ycircumflex" unicode="&#x177;" horiz-adv-x="495" 
d="M169 0l-96 500h83l64 -405h2l210 405h86l-306 -568q-36 -65 -73 -88.5t-107 -23.5q-31 0 -55 9l12 66q24 -9 54 -9q36 0 57.5 15t44.5 56zM373 685l39 -120h-51l-42 71l-66 -71h-55l82 120h93z" />
    <glyph glyph-name="Ydieresis" unicode="&#x178;" horiz-adv-x="510" 
d="M175 0l44 253l-120 397h89l84 -317h2l196 317h89l-260 -397l-44 -253h-80zM222 722l14 78h79l-14 -78h-79zM369 722l14 78h78l-14 -78h-78z" />
    <glyph glyph-name="Zacute" unicode="&#x179;" horiz-adv-x="500" 
d="M122 580l12 70h390l-11 -61l-397 -519h316l-12 -70h-410l10 59l398 521h-296zM305 715l64 120h89l-100 -120h-53z" />
    <glyph glyph-name="zacute" unicode="&#x17a;" horiz-adv-x="486" 
d="M91 434l12 66h368l-10 -55l-341 -379h288l-11 -66h-391l8 54l341 380h-264zM265 565l64 120h89l-100 -120h-53z" />
    <glyph glyph-name="Zdotaccent" unicode="&#x17b;" horiz-adv-x="500" 
d="M122 580l12 70h390l-11 -61l-397 -519h316l-12 -70h-410l10 59l398 521h-296zM294 722l14 78h79l-14 -78h-79z" />
    <glyph glyph-name="zdotaccent" unicode="&#x17c;" horiz-adv-x="486" 
d="M91 434l12 66h368l-10 -55l-341 -379h288l-11 -66h-391l8 54l341 380h-264zM254 572l14 78h79l-14 -78h-79z" />
    <glyph glyph-name="Zcaron" unicode="&#x17d;" horiz-adv-x="500" 
d="M122 580l12 70h390l-11 -61l-397 -519h316l-12 -70h-410l10 59l398 521h-296zM456 835l-81 -120h-93l-40 120h51l42 -71l66 71h55z" />
    <glyph glyph-name="zcaron" unicode="&#x17e;" horiz-adv-x="486" 
d="M91 434l12 66h368l-10 -55l-341 -379h288l-11 -66h-391l8 54l341 380h-264zM429 685l-81 -120h-93l-40 120h51l42 -71l66 71h55z" />
    <glyph glyph-name="florin" unicode="&#x192;" horiz-adv-x="360" 
d="M239 434l-83 -470q-13 -75 -46.5 -109.5t-98.5 -34.5q-43 0 -72 11l11 66q32 -9 59 -9q56 0 66 56l86 490h-66l9 53l69 13l10 60q22 123 142 123q44 0 73 -11l-12 -66q-32 9 -60 9q-56 0 -65 -56l-10 -59h92l-12 -66h-92z" />
    <glyph glyph-name="Scommaaccent" unicode="&#x218;" horiz-adv-x="537" 
d="M268 302q-107 14 -145.5 56t-23.5 125q31 177 242 177q110 0 153.5 -42.5t25.5 -141.5h-80q12 64 -13 89t-97 25q-67 0 -104 -25.5t-47 -81.5t15 -82.5t109 -37.5q123 -16 159 -58t20 -130q-17 -97 -78.5 -141t-178.5 -44q-111 0 -159.5 42t-29.5 144h80q-12 -66 17 -91
t104 -25q80 0 116.5 26.5t47.5 88.5q11 60 -13.5 86.5t-119.5 40.5zM114 -190l53 130h84l-82 -130h-55z" />
    <glyph glyph-name="scommaaccent" unicode="&#x219;" horiz-adv-x="493" 
d="M432 139q-6 -35 -17 -58.5t-34.5 -46t-67.5 -33.5t-109 -11q-113 0 -150.5 38.5t-23.5 117.5h76q-9 -50 13.5 -70.5t91.5 -20.5q53 0 84 11t42.5 27.5t16.5 45.5q8 41 -17 59t-101 25q-98 9 -134 42t-24 99q26 146 215 146q101 0 140.5 -36.5t24.5 -120.5h-76
q8 47 -12.5 69t-84.5 22q-115 0 -129 -80q-8 -43 14 -61t90 -23q115 -10 149.5 -39t22.5 -102zM99 -190l53 130h84l-82 -130h-55z" />
    <glyph glyph-name="circumflex" unicode="&#x2c6;" horiz-adv-x="336" 
d="M294 685l39 -120h-51l-42 71l-66 -71h-55l82 120h93z" />
    <glyph glyph-name="caron" unicode="&#x2c7;" horiz-adv-x="336" 
d="M354 685l-81 -120h-93l-40 120h51l42 -71l66 71h55z" />
    <glyph glyph-name="breve" unicode="&#x2d8;" horiz-adv-x="359" 
d="M237 558q-59 0 -83.5 33t-13.5 94h53q-13 -72 54 -72q64 0 77 72h53q-11 -61 -46.5 -94t-93.5 -33z" />
    <glyph glyph-name="dotaccent" unicode="&#x2d9;" horiz-adv-x="202" 
d="M122 572l14 78h79l-14 -78h-79z" />
    <glyph glyph-name="ring" unicode="&#x2da;" horiz-adv-x="317" 
d="M328 639q-15 -85 -113 -85q-48 0 -69.5 21.5t-14.5 63.5q15 85 114 85q47 0 68.5 -21.5t14.5 -63.5zM275 639q8 40 -38 40q-45 0 -53 -40q-6 -40 39 -40q44 0 52 40z" />
    <glyph glyph-name="ogonek" unicode="&#x2db;" horiz-adv-x="213" 
d="M101 -116l-9 -52h-42q-79 0 -67 68q9 56 82 100h57q-64 -38 -72 -82q-6 -34 33 -34h18z" />
    <glyph glyph-name="tilde" unicode="&#x2dc;" horiz-adv-x="404" 
d="M325 623q38 0 45 42h50q-18 -99 -98 -99q-31 0 -60 24.5t-48 24.5q-37 0 -44 -42h-49q16 99 97 99q30 0 59 -24.5t48 -24.5z" />
    <glyph glyph-name="hungarumlaut" unicode="&#x2dd;" horiz-adv-x="360" 
d="M120 565l39 120h82l-73 -120h-48zM236 565l67 120h86l-102 -120h-51z" />
    <glyph glyph-name="commaaccent" unicode="&#x326;" horiz-adv-x="260" 
d="M-10 -190l53 130h84l-82 -130h-55z" />
    <glyph glyph-name="commaaccent" unicode="&#xf6c3;" horiz-adv-x="260" 
d="M-10 -190l53 130h84l-82 -130h-55z" />
    <glyph glyph-name="pi" unicode="&#x3c0;" horiz-adv-x="612" 
d="M110 0l76 434h-95l12 66h502l-12 -66h-95l-53 -302q-7 -36 5.5 -51t48.5 -15h14l-11 -66h-15q-75 0 -104 30.5t-17 97.5l54 306h-156l-76 -434h-78z" />
    <glyph glyph-name="Bdotaccent" unicode="&#x1e02;" horiz-adv-x="548" 
d="M30 0l114 650h211q111 0 152 -39.5t25 -128.5q-10 -55 -43 -94.5t-80 -53.5q111 -33 90 -157q-17 -94 -74.5 -135.5t-167.5 -41.5h-227zM122 70h145q71 0 105.5 25.5t45.5 86.5q20 114 -108 114h-148zM344 580h-132l-38 -216h146q111 0 130 109q10 58 -14.5 82.5
t-91.5 24.5zM313 722l14 78h79l-14 -78h-79z" />
    <glyph glyph-name="bdotaccent" unicode="&#x1e03;" horiz-adv-x="533" 
d="M236 55q68 0 110 36t57 126l11 66q16 93 -5.5 127t-86.5 34q-78 0 -151 -57l-34 -191q-12 -75 10 -108t89 -33zM233 -11q-111 0 -150.5 53t-22.5 155l83 473h78l-39 -215q89 55 161 55q96 0 134.5 -47.5t15.5 -177.5l-12 -71q-22 -127 -85.5 -176t-162.5 -49zM317 572
l14 78h79l-14 -78h-79z" />
    <glyph glyph-name="Ddotaccent" unicode="&#x1e0a;" horiz-adv-x="567" 
d="M327 580h-115l-90 -510h115q86 0 130 34t60 124l34 196q17 95 -16 125.5t-118 30.5zM226 0h-196l114 650h196q125 0 174.5 -49t25.5 -183l-33 -186q-24 -134 -90 -183t-191 -49zM319 722l14 78h79l-14 -78h-79z" />
    <glyph glyph-name="ddotaccent" unicode="&#x1e0b;" horiz-adv-x="533" 
d="M218 55q35 0 77.5 16t74.5 44l48 272q-25 26 -60.5 41.5t-70.5 15.5q-66 0 -99.5 -34t-50.5 -127l-11 -66q-17 -92 5 -127t87 -35zM197 -11q-96 0 -134.5 48t-15.5 177l13 71q23 130 77.5 177.5t150.5 47.5q73 0 142 -55l38 215h78l-118 -670h-52l-10 49
q-87 -60 -169 -60zM271 572l14 78h79l-14 -78h-79z" />
    <glyph glyph-name="Fdotaccent" unicode="&#x1e1e;" horiz-adv-x="471" 
d="M110 0h-80l114 650h351l-12 -70h-271l-38 -216h236l-12 -68h-236zM297 722l14 78h79l-14 -78h-79z" />
    <glyph glyph-name="fdotaccent" unicode="&#x1e1f;" horiz-adv-x="321" 
d="M357 606q-31 9 -60 9q-56 0 -65 -56l-10 -59h92l-12 -66h-92l-92 -524h-78l92 524h-66l9 53l69 13l10 60q22 123 142 123q44 0 73 -11zM254 732l14 78h79l-14 -78h-79z" />
    <glyph glyph-name="Mdotaccent" unicode="&#x1e40;" horiz-adv-x="717" 
d="M528 0l96 550l-272 -550h-67l-80 550l-96 -550h-79l114 650h117l76 -539h1l266 539h117l-114 -650h-79zM402 722l14 78h79l-14 -78h-79z" />
    <glyph glyph-name="mdotaccent" unicode="&#x1e41;" horiz-adv-x="785" 
d="M165 500l9 -49q92 59 166 59q85 0 117 -60q94 60 171 60q83 0 105.5 -37.5t7.5 -124.5l-61 -348h-78l61 348q10 55 -5 75.5t-65 20.5q-60 0 -133 -50l-69 -394h-78l61 348q10 55 -4.5 75.5t-64.5 20.5q-61 0 -133 -50l-69 -394h-78l88 500h52zM416 572l14 78h79l-14 -78
h-79z" />
    <glyph glyph-name="Pdotaccent" unicode="&#x1e56;" horiz-adv-x="543" 
d="M165 314h128q77 0 112 27.5t48 104.5q14 81 -11.5 107.5t-102.5 26.5h-127zM30 0l114 650h206q119 0 163 -43t23 -161q-19 -109 -79 -154.5t-176 -45.5h-128l-43 -246h-80zM316 722l14 78h79l-14 -78h-79z" />
    <glyph glyph-name="pdotaccent" unicode="&#x1e57;" horiz-adv-x="533" 
d="M322 444q-35 0 -77.5 -15.5t-74.5 -43.5l-48 -273q25 -26 61 -41.5t70 -15.5q65 0 99 34.5t51 127.5l11 66q17 92 -5 126.5t-87 34.5zM343 510q96 0 134.5 -47.5t15.5 -177.5l-13 -71q-23 -129 -78 -177t-150 -48q-73 0 -142 55l-37 -214h-78l118 670h52l9 -49
q88 59 169 59zM307 572l14 78h79l-14 -78h-79z" />
    <glyph glyph-name="Sdotaccent" unicode="&#x1e60;" horiz-adv-x="537" 
d="M268 302q-107 14 -145.5 56t-23.5 125q31 177 242 177q110 0 153.5 -42.5t25.5 -141.5h-80q12 64 -13 89t-97 25q-67 0 -104 -25.5t-47 -81.5t15 -82.5t109 -37.5q123 -16 159 -58t20 -130q-17 -97 -78.5 -141t-178.5 -44q-111 0 -159.5 42t-29.5 144h80q-12 -66 17 -91
t104 -25q80 0 116.5 26.5t47.5 88.5q11 60 -13.5 86.5t-119.5 40.5zM328 722l14 78h79l-14 -78h-79z" />
    <glyph glyph-name="sdotaccent" unicode="&#x1e61;" horiz-adv-x="493" 
d="M432 139q-6 -35 -17 -58.5t-34.5 -46t-67.5 -33.5t-109 -11q-113 0 -150.5 38.5t-23.5 117.5h76q-9 -50 13.5 -70.5t91.5 -20.5q53 0 84 11t42.5 27.5t16.5 45.5q8 41 -17 59t-101 25q-98 9 -134 42t-24 99q26 146 215 146q101 0 140.5 -36.5t24.5 -120.5h-76
q8 47 -12.5 69t-84.5 22q-115 0 -129 -80q-8 -43 14 -61t90 -23q115 -10 149.5 -39t22.5 -102zM270 572l14 78h79l-14 -78h-79z" />
    <glyph glyph-name="Tdotaccent" unicode="&#x1e6a;" horiz-adv-x="458" 
d="M149 0l102 580h-164l12 70h408l-12 -70h-164l-102 -580h-80zM282 722l14 78h79l-14 -78h-79z" />
    <glyph glyph-name="tdotaccent" unicode="&#x1e6b;" horiz-adv-x="331" 
d="M75 118l56 316h-65l10 54l67 12l21 122l80 13l-23 -135h113l-12 -66h-113l-56 -317q-11 -61 45 -61q22 0 69 10l-11 -66q-40 -11 -83 -11q-63 0 -86 31.5t-12 97.5zM177 682l14 78h79l-14 -78h-79z" />
    <glyph glyph-name="Wgrave" unicode="&#x1e80;" horiz-adv-x="817" 
d="M491 0l-24 565l-222 -565h-106l-30 650h83l15 -562h2l221 562h104l24 -562h2l212 562h84l-259 -650h-106zM500 835l19 -120h-50l-58 120h89z" />
    <glyph glyph-name="wgrave" unicode="&#x1e81;" horiz-adv-x="730" 
d="M495 82l169 418h84l-218 -500h-93l-38 426l-183 -426h-97l-41 500h80l24 -418h1l180 418h95zM429 685l19 -120h-50l-58 120h89z" />
    <glyph glyph-name="Wacute" unicode="&#x1e82;" horiz-adv-x="817" 
d="M491 0l-24 565l-222 -565h-106l-30 650h83l15 -562h2l221 562h104l24 -562h2l212 562h84l-259 -650h-106zM468 715l64 120h89l-100 -120h-53z" />
    <glyph glyph-name="wacute" unicode="&#x1e83;" horiz-adv-x="730" 
d="M495 82l169 418h84l-218 -500h-93l-38 426l-183 -426h-97l-41 500h80l24 -418h1l180 418h95zM400 565l64 120h89l-100 -120h-53z" />
    <glyph glyph-name="Wdieresis" unicode="&#x1e84;" horiz-adv-x="817" 
d="M491 0l-24 565l-222 -565h-106l-30 650h83l15 -562h2l221 562h104l24 -562h2l212 562h84l-259 -650h-106zM381 722l14 78h79l-14 -78h-79zM528 722l14 78h78l-14 -78h-78z" />
    <glyph glyph-name="wdieresis" unicode="&#x1e85;" horiz-adv-x="730" 
d="M495 82l169 418h84l-218 -500h-93l-38 426l-183 -426h-97l-41 500h80l24 -418h1l180 418h95zM312 572l14 78h79l-14 -78h-79zM459 572l14 78h78l-14 -78h-78z" />
    <glyph glyph-name="Ygrave" unicode="&#x1ef2;" horiz-adv-x="510" 
d="M175 0l44 253l-120 397h89l84 -317h2l196 317h89l-260 -397l-44 -253h-80zM350 835l19 -120h-50l-58 120h89z" />
    <glyph glyph-name="ygrave" unicode="&#x1ef3;" horiz-adv-x="495" 
d="M169 0l-96 500h83l64 -405h2l210 405h86l-306 -568q-36 -65 -73 -88.5t-107 -23.5q-31 0 -55 9l12 66q24 -9 54 -9q36 0 57.5 15t44.5 56zM308 685l19 -120h-50l-58 120h89z" />
    <glyph glyph-name="endash" unicode="&#x2013;" horiz-adv-x="475" 
d="M54 250l11 66h375l-11 -66h-375z" />
    <glyph glyph-name="emdash" unicode="&#x2014;" horiz-adv-x="690" 
d="M64 250l11 66h570l-11 -66h-570z" />
    <glyph glyph-name="quoteleft" unicode="&#x2018;" horiz-adv-x="181" 
d="M214 650l-37 -210h-50l-3 210h90z" />
    <glyph glyph-name="quoteright" unicode="&#x2019;" horiz-adv-x="181" 
d="M87 440l37 210h90l-77 -210h-50z" />
    <glyph glyph-name="quotesinglbase" unicode="&#x201a;" horiz-adv-x="201" 
d="M-10 -110l37 210h90l-77 -210h-50z" />
    <glyph glyph-name="quotedblleft" unicode="&#x201c;" horiz-adv-x="306" 
d="M330 650l-37 -210h-50l-3 210h90zM204 650l-37 -210h-50l-3 210h90z" />
    <glyph glyph-name="quotedblright" unicode="&#x201d;" horiz-adv-x="306" 
d="M87 440l37 210h90l-77 -210h-50zM213 440l37 210h90l-77 -210h-50z" />
    <glyph glyph-name="quotedblbase" unicode="&#x201e;" horiz-adv-x="328" 
d="M-10 -110l37 210h90l-77 -210h-50zM116 -110l37 210h90l-77 -210h-50z" />
    <glyph glyph-name="dagger" unicode="&#x2020;" horiz-adv-x="344" 
d="M104 564h100l19 106h53l-19 -106h101l-8 -45h-101l-46 -259h-53l46 259h-100z" />
    <glyph glyph-name="daggerdbl" unicode="&#x2021;" horiz-adv-x="344" 
d="M104 564h100l19 106h53l-19 -106h101l-8 -45h-101l-19 -108h101l-8 -46h-101l-19 -105h-53l19 105h-100l8 46h100l19 108h-100z" />
    <glyph glyph-name="bullet" unicode="&#x2022;" horiz-adv-x="441" 
d="M404 346l-8 -42q-17 -93 -59.5 -126t-131.5 -33t-120.5 33t-14.5 126l8 42q16 93 59 126t132 33t120 -33t15 -126z" />
    <glyph glyph-name="ellipsis" unicode="&#x2026;" horiz-adv-x="582" 
d="M20 0l16 94h94l-16 -94h-94zM204 0l16 94h94l-16 -94h-94zM388 0l16 94h94l-16 -94h-94z" />
    <glyph glyph-name="perthousand" unicode="&#x2030;" horiz-adv-x="874" 
d="M648 650l-535 -650h-64l534 650h65zM370 515q-14 -80 -52 -112.5t-108 -32.5q-71 0 -97.5 32.5t-12.5 112.5q14 79 52 112t109 33q70 0 96.5 -33t12.5 -112zM311 515q10 55 -4 75.5t-55 20.5t-61.5 -20t-30.5 -72q-10 -58 3 -78.5t56 -20.5q41 0 62 20t30 75zM807 134
q-14 -80 -51.5 -112.5t-108.5 -32.5q-80 0 -98 48q-34 -48 -113 -48q-71 0 -97.5 32.5t-12.5 112.5q14 79 52 112t109 33q77 0 96 -50q36 50 115 50q70 0 96.5 -33t12.5 -112zM748 134q9 54 -4.5 74.5t-54.5 20.5t-62 -20t-30 -71q-10 -58 2.5 -79t55.5 -21q41 0 62.5 20.5
t30.5 75.5zM537 134q9 54 -4.5 74.5t-54.5 20.5t-62 -20t-30 -71q-10 -58 2.5 -79t55.5 -21q41 0 62.5 20.5t30.5 75.5z" />
    <glyph glyph-name="guilsinglleft" unicode="&#x2039;" horiz-adv-x="330" 
d="M174 70l-110 180l169 180h72l-173 -185l110 -175h-68z" />
    <glyph glyph-name="guilsinglright" unicode="&#x203a;" horiz-adv-x="330" 
d="M164 430l110 -180l-169 -180h-72l173 185l-110 175h68z" />
    <glyph glyph-name="Euro" unicode="&#x20ac;" horiz-adv-x="598" 
d="M410 359h-199l-12 -69h187l-17 -48h-179l-4 -24q-16 -91 9 -125t105 -34q72 0 107 27.5t48 97.5h80q-19 -104 -77.5 -149.5t-169.5 -45.5q-119 0 -161.5 52.5t-19.5 182.5l3 18h-63l9 48h63l12 69h-63l8 48h63l4 19q22 127 83 180.5t180 53.5q111 0 154 -45t25 -149h-80
q12 69 -13.5 96.5t-97.5 27.5q-79 0 -117 -34t-53 -124l-5 -25h207z" />
    <glyph glyph-name="trademark" unicode="&#x2122;" horiz-adv-x="572" 
d="M139 385l41 231h-68l6 34h175l-6 -34h-68l-41 -231h-39zM386 650l33 -216l110 216h57l-47 -265h-39l38 214l-110 -214h-35l-35 214l-38 -214h-38l47 265h57z" />
    <glyph glyph-name="onethird" unicode="&#x2153;" horiz-adv-x="651" 
d="M198 349h-45l46 258h-56l4 27l77 16h27zM30 0l545 650h50l-545 -650h-50zM510 88q8 46 -37 46h-42l7 38h41q37 0 46 44q5 27 -5.5 39t-40.5 12q-55 0 -66 -58h-45q18 97 117 97q52 0 72.5 -22t12.5 -68q-7 -41 -46 -61q41 -16 32 -68q-16 -91 -123 -91q-55 0 -75 23
t-11 73h45q-5 -30 5.5 -43.5t42.5 -13.5q33 0 49 12t21 41z" />
    <glyph glyph-name="twothirds" unicode="&#x2154;" horiz-adv-x="681" 
d="M60 0l545 650h50l-545 -650h-50zM540 88q8 46 -37 46h-42l7 38h41q37 0 46 44q5 27 -5.5 39t-40.5 12q-55 0 -66 -58h-45q18 97 117 97q52 0 72.5 -22t12.5 -68q-7 -41 -46 -61q41 -16 32 -68q-16 -91 -123 -91q-55 0 -75 23t-11 73h45q-5 -30 5.5 -43.5t42.5 -13.5
q33 0 49 12t21 41zM173 560h-45q17 95 117 95q55 0 73 -22t10 -67q-6 -35 -34 -61t-58.5 -39t-58 -33t-33.5 -44h156l-7 -40h-202l5 27q7 38 36 66t60 41.5t58.5 34.5t32.5 47q5 27 -5 38.5t-40 11.5q-28 0 -43.5 -12t-21.5 -43z" />
    <glyph glyph-name="oneeighth" unicode="&#x215b;" horiz-adv-x="652" 
d="M198 349h-45l46 258h-56l4 27l77 16h27zM30 0l545 650h50l-545 -650h-50zM431 -4q-57 0 -79.5 20.5t-14.5 65.5q9 51 60 73q-36 18 -27 68q15 83 115 83q50 0 73 -19.5t15 -63.5q-9 -49 -51 -68q43 -20 34 -73q-8 -45 -38 -65.5t-87 -20.5zM479 267q-30 0 -45 -10.5
t-20 -37.5q-9 -48 42 -48h13q49 0 58 48q5 27 -6.5 37.5t-41.5 10.5zM438 35q65 0 73 49q10 51 -49 51h-13q-57 0 -67 -51q-4 -26 9 -37.5t47 -11.5z" />
    <glyph glyph-name="threeeighths" unicode="&#x215c;" horiz-adv-x="681" 
d="M271 437q8 46 -37 46h-42l6 38h41q19 0 31 12.5t15 31.5q5 27 -5.5 39t-40.5 12q-29 0 -44.5 -13.5t-20.5 -44.5h-45q16 97 117 97q52 0 72 -22t12 -68q-7 -41 -46 -61q42 -16 32 -68q-15 -91 -123 -91q-55 0 -74.5 23t-11.5 73h45q-5 -30 5.5 -43.5t42.5 -13.5
q33 0 49.5 12t21.5 41zM59 0l545 650h50l-545 -650h-50zM460 -4q-57 0 -79.5 20.5t-14.5 65.5q9 51 60 73q-36 18 -27 68q15 83 115 83q50 0 73 -19.5t15 -63.5q-9 -49 -51 -68q43 -20 34 -73q-8 -45 -38 -65.5t-87 -20.5zM508 267q-30 0 -45 -10.5t-20 -37.5q-9 -48 42 -48
h13q49 0 58 48q5 27 -6.5 37.5t-41.5 10.5zM467 35q65 0 73 49q10 51 -49 51h-13q-57 0 -67 -51q-4 -26 9 -37.5t47 -11.5z" />
    <glyph glyph-name="fiveeighths" unicode="&#x215d;" horiz-adv-x="682" 
d="M60 0l545 650h50l-545 -650h-50zM461 -4q-57 0 -79.5 20.5t-14.5 65.5q9 51 60 73q-36 18 -27 68q15 83 115 83q50 0 73 -19.5t15 -63.5q-9 -49 -51 -68q43 -20 34 -73q-8 -45 -38 -65.5t-87 -20.5zM509 267q-30 0 -45 -10.5t-20 -37.5q-9 -48 42 -48h13q49 0 58 48
q5 27 -6.5 37.5t-41.5 10.5zM468 35q65 0 73 49q10 51 -49 51h-13q-57 0 -67 -51q-4 -26 9 -37.5t47 -11.5zM197 610l-22 -85q36 19 68 19q45 0 64 -22t10 -74q-17 -104 -123 -104q-104 0 -86 99h45q-11 -60 48 -60q33 0 49.5 15.5t21.5 49.5q12 62 -45 62q-28 0 -60 -23
h-45l43 163h173l-7 -40h-134z" />
    <glyph glyph-name="seveneighths" unicode="&#x215e;" horiz-adv-x="652" 
d="M30 0l545 650h50l-545 -650h-50zM431 -4q-57 0 -79.5 20.5t-14.5 65.5q9 51 60 73q-36 18 -27 68q15 83 115 83q50 0 73 -19.5t15 -63.5q-9 -49 -51 -68q43 -20 34 -73q-8 -45 -38 -65.5t-87 -20.5zM479 267q-30 0 -45 -10.5t-20 -37.5q-9 -48 42 -48h13q49 0 58 48
q5 27 -6.5 37.5t-41.5 10.5zM438 35q65 0 73 49q10 51 -49 51h-13q-57 0 -67 -51q-4 -26 9 -37.5t47 -11.5zM190 350h-48l149 261h-144l7 39h194l-6 -32z" />
    <glyph glyph-name="partialdiff" unicode="&#x2202;" horiz-adv-x="514" 
d="M473 281l-11 -60q-23 -132 -80 -181.5t-170 -49.5t-152.5 49.5t-16.5 181.5l10 54q23 131 78.5 181t166.5 50q78 0 113 -34q-15 106 -93 209h90q58 -75 73 -171.5t-8 -228.5zM385 217l11 61q17 97 -5.5 130.5t-99.5 33.5q-76 0 -109.5 -33.5t-50.5 -130.5l-11 -61
q-17 -97 5 -130.5t98 -33.5q77 0 111 33.5t51 130.5z" />
    <glyph glyph-name="minus" unicode="&#x2212;" horiz-adv-x="517" 
d="M465 244h-407l10 62h407z" />
    <glyph glyph-name="integral" unicode="&#x222b;" horiz-adv-x="384" 
d="M281 584l-104 -595q-11 -60 -43 -85.5t-95 -25.5h-57l9 51h57q54 0 64 56l105 595q10 60 42.5 85.5t94.5 25.5h58l-9 -51h-58q-54 0 -64 -56z" />
    <glyph glyph-name="approxequal" unicode="&#x2248;" horiz-adv-x="517" 
d="M368 304q-37 0 -68 21t-57 41.5t-50 20.5q-51 0 -60 -55h-60q21 115 126 115q36 0 67.5 -21t58 -42t51.5 -21q50 0 59 55h60q-21 -114 -127 -114zM333 104q-37 0 -68.5 21t-57.5 41.5t-50 20.5q-23 0 -39 -14.5t-20 -40.5h-60q22 115 126 115q36 0 67 -21t57.5 -42
t51.5 -21q50 0 60 55h60q-21 -114 -127 -114z" />
    <glyph glyph-name="notequal" unicode="&#x2260;" horiz-adv-x="517" 
d="M94 0l74 144h-128l11 62h148l72 138h-196l11 62h216l75 144h61l-74 -144h129l-11 -62h-150l-71 -138h197l-11 -62h-217l-75 -144h-61z" />
    <glyph glyph-name="lessequal" unicode="&#x2264;" horiz-adv-x="407" 
d="M307 0h-287l10 62h287zM246 140l-166 202l238 203h85l-239 -203l167 -202h-85z" />
    <glyph glyph-name="greaterequal" unicode="&#x2265;" horiz-adv-x="407" 
d="M307 0h-287l10 62h287zM367 342l-238 -202h-85l239 202l-167 203h85z" />
    <glyph glyph-name="at.caps" horiz-adv-x="794" 
d="M74 252l26 146q23 131 117 203t258 72q163 0 232.5 -72t46.5 -203l-26 -146q-23 -131 -118 -203t-258 -72q-161 0 -231 72.5t-47 202.5zM160 394l-24 -138q-20 -112 36 -167t190 -55q266 0 306 222l24 138q20 112 -36.5 167t-190.5 55q-266 0 -305 -222zM242 245
q17 96 138 104l125 8l8 42q7 40 -9 55.5t-66 15.5q-46 0 -68.5 -15.5t-29.5 -54.5h-56q12 67 53 93.5t110 26.5q76 0 105 -27.5t17 -93.5l-45 -253h-38l-5 35q-63 -43 -128 -43q-62 0 -91.5 27t-19.5 80zM365 188q60 0 118 40l15 87l-121 -10q-69 -6 -78 -58
q-5 -30 11.5 -44.5t54.5 -14.5z" />
    <glyph glyph-name="caron.salt" horiz-adv-x="192" 
d="M101 467l36 203h74l-61 -203h-49z" />
    <glyph glyph-name="one.tnum" horiz-adv-x="540" 
d="M122 0l12 70h86l90 510h-107l8 44l117 26h74l-102 -580h86l-12 -70h-252z" />
    <glyph glyph-name="two.tnum" horiz-adv-x="540" 
d="M97 468q17 97 76 144.5t170 47.5q116 0 155.5 -46.5t22.5 -140.5q-11 -64 -54.5 -112t-98.5 -77l-109.5 -56.5t-97 -67t-52.5 -90.5h348l-12 -70h-429l9 52q12 69 56.5 121.5t100 83.5l110.5 59.5t97 67t51 87.5q11 64 -13.5 92t-95.5 28q-66 0 -104 -27t-50 -96h-80z
" />
    <glyph glyph-name="three.tnum" horiz-adv-x="540" 
d="M404 184q10 54 -14 83.5t-76 29.5h-83l12 66h80q46 0 75.5 30.5t37.5 76.5q11 64 -14 92.5t-97 28.5q-71 0 -107.5 -30t-48.5 -98h-80q34 197 246 197q112 0 155 -47t26 -144q-17 -99 -117 -136q107 -33 86 -151q-18 -98 -78.5 -145t-180.5 -47q-117 0 -161 47t-26 149
h79q-12 -68 14.5 -98t102.5 -30q77 0 117 29t52 97z" />
    <glyph glyph-name="four.tnum" horiz-adv-x="540" 
d="M311 0l26 151h-321l11 60l373 439h105l-76 -432h79l-12 -67h-79l-26 -151h-80zM111 218h238l63 356z" />
    <glyph glyph-name="five.tnum" horiz-adv-x="540" 
d="M224 581l-55 -218q79 53 163 53q95 0 135 -46.5t21 -158.5q-20 -112 -81 -166.5t-180 -54.5q-221 0 -186 201h78q-24 -133 117 -133q78 0 118 36t54 117q14 80 -12.5 113.5t-94.5 33.5q-64 0 -138 -51h-85l89 343h365l-12 -69h-296z" />
    <glyph glyph-name="six.tnum" horiz-adv-x="540" 
d="M165 429l-14 -83q85 44 170 44q105 0 143 -46t21 -145q-19 -103 -79 -156.5t-173 -53.5q-121 0 -164 53.5t-21 176.5l37 210q22 122 82.5 176.5t172.5 54.5q110 0 151.5 -45t25.5 -139h-80q11 61 -12.5 87.5t-95.5 26.5q-75 0 -111.5 -34t-52.5 -127zM294 333
q-74 0 -154 -44l-12 -70q-16 -94 8.5 -127t103.5 -33q75 0 113 32.5t51 105.5q14 75 -9.5 105.5t-100.5 30.5z" />
    <glyph glyph-name="seven.tnum" horiz-adv-x="540" 
d="M206 0h-88l331 580h-341l12 70h429l-11 -62z" />
    <glyph glyph-name="eight.tnum" horiz-adv-x="540" 
d="M227 -10q-122 0 -170 42.5t-31 138.5q22 124 149 161q-47 17 -67 56t-9 96q17 94 78.5 135t167.5 41t154 -41.5t31 -134.5q-22 -118 -131 -152q116 -37 94 -161q-17 -96 -80.5 -138.5t-185.5 -42.5zM333 591q-72 0 -108 -25t-47 -89q-22 -117 99 -117h30q122 0 142 117
q11 64 -16.5 89t-99.5 25zM239 58q81 0 122 27.5t52 91.5q20 121 -117 121h-30q-138 0 -158 -121q-11 -64 19.5 -91.5t111.5 -27.5z" />
    <glyph glyph-name="nine.tnum" horiz-adv-x="540" 
d="M245 58q75 0 111 35t52 127l15 83q-86 -44 -171 -44q-105 0 -143 46.5t-20 145.5q36 209 254 209q121 0 162.5 -53t19.5 -176l-37 -210q-22 -123 -82.5 -177.5t-172.5 -54.5q-110 0 -151.5 45t-25.5 139h80q-11 -61 13 -88t96 -27zM279 316q74 0 154 44l12 71
q17 93 -7.5 126.5t-104.5 33.5q-75 0 -113 -32.5t-51 -105.5q-13 -76 10 -106.5t100 -30.5z" />
    <glyph glyph-name="zero.tnum" horiz-adv-x="540" 
d="M410 226l35 198q17 94 -8.5 130t-102.5 36q-78 0 -116 -36t-55 -131l-35 -197q-16 -94 9.5 -130t102.5 -36t115.5 36t54.5 130zM48 226l35 198q23 128 83.5 182t177.5 54t160.5 -54.5t20.5 -181.5l-35 -198q-22 -128 -82.5 -182t-177.5 -54t-160.5 54t-21.5 182z" />
    <glyph glyph-name="dollar.tnum" horiz-adv-x="523" 
d="M252 -20h-68l15 87q-93 6 -123 44.5t-17 111.5h78q-8 -49 14 -69.5t91 -20.5q77 0 105 20t36 63q7 42 -17 59.5t-101 24.5q-100 9 -135.5 41t-23.5 101q24 133 185 144l15 84h68l-15 -84q80 -6 110 -43t17 -112h-78q9 46 -11.5 68.5t-84.5 22.5q-114 0 -128 -81
q-7 -41 16.5 -59.5t88.5 -23.5q113 -10 148.5 -41t23.5 -101q-6 -32 -15.5 -54.5t-30 -44.5t-57.5 -34.5t-91 -15.5z" />
    <glyph glyph-name="cent.tnum" horiz-adv-x="516" 
d="M317 519q-77 0 -111 -34t-51 -133l-10 -54q-18 -100 4 -134t99 -34q66 0 95 22.5t40 78.5h78q-15 -83 -60.5 -121.5t-129.5 -44.5l-15 -85h-68l15 85q-93 6 -125.5 57.5t-10.5 175.5l10 54q21 122 72 174t145 58l16 86h68l-16 -86q82 -6 114.5 -45t17.5 -120h-78
q8 56 -12.5 78t-86.5 22z" />
    <glyph glyph-name="sterling.tnum" horiz-adv-x="562" 
d="M320 0h-310l12 69q56 0 86.5 29.5t41.5 91.5q5 27 -3 94h-87l9 56h69l-3.5 27t-3 29t-1.5 26t0 31t4 30q31 177 221 177q102 0 139 -40.5t21 -135.5h-80q10 59 -11 83t-81 24q-58 0 -88.5 -25.5t-40.5 -82.5q-8 -43 1 -143h125l-9 -56h-113q6 -58 0 -89q-17 -90 -75 -126
h177q44 0 67 19t32 66h80q-15 -81 -55 -117.5t-124 -36.5z" />
    <glyph glyph-name="Euro.tnum" horiz-adv-x="598" 
d="M410 359h-199l-12 -69h187l-17 -48h-179l-4 -24q-16 -91 9 -125.5t105 -34.5q72 0 107 28t48 98h80q-19 -104 -77.5 -149.5t-169.5 -45.5q-119 0 -161.5 52.5t-19.5 182.5l3 18h-63l9 48h63l12 69h-63l8 48h63l4 19q22 127 83 180.5t180 53.5q111 0 154 -45t25 -149h-80
q12 69 -14 97t-97 28q-79 0 -116.5 -34.5t-53.5 -124.5l-5 -25h207z" />
    <glyph glyph-name="yen.tnum" horiz-adv-x="538" 
d="M189 0l13 74h-138l8 46h138l12 70h-138l8 46h138l-4 41l-113 373h89l84 -317h2l196 317h89l-246 -373l-17 -41h138l-8 -46h-138l-12 -70h138l-8 -46h-138l-13 -74h-80z" />
    <glyph glyph-name="numbersign.tnum" horiz-adv-x="562" 
d="M495 220l-14 -54h-100l-44 -166h-61l44 166h-128l-44 -166h-60l43 166h-100l14 54h100l55 211h-100l15 54h100l44 165h60l-43 -165h128l43 165h61l-43 -165h100l-15 -54h-100l-55 -211h100zM261 431l-55 -211h128l55 211h-128z" />
    <glyph glyph-name="percent.tnum" horiz-adv-x="540" 
d="M585 650l-532 -650h-64l531 650h65zM322 525q-13 -75 -48 -105t-101 -30t-90 30t-11 105q13 73 48.5 104t100.5 31t89.5 -31t11.5 -104zM263 525q9 49 -3 67.5t-48 18.5t-54 -17.5t-26 -64.5q-10 -52 1.5 -70.5t48.5 -18.5q36 0 54 18t27 67zM502 125q-13 -75 -48 -105
t-101 -30t-90 30t-11 105q12 73 47.5 104t100.5 31t89.5 -31t12.5 -104zM443 125q8 49 -4 67.5t-47 18.5q-36 0 -54 -17.5t-27 -64.5q-9 -52 2.5 -70.5t48.5 -18.5q36 0 54 18t27 67z" />
    <glyph glyph-name="one.onum" horiz-adv-x="334" 
d="M194 0h-78l76 433h-96l7 39l131 28h48z" />
    <glyph glyph-name="two.onum" horiz-adv-x="508" 
d="M15 0l6 39q10 63 49.5 106.5t90.5 65t101 39t87.5 40.5t43.5 57q8 47 -14 72t-87 25q-63 0 -94.5 -24t-40.5 -74h-78q28 164 224 164q103 0 142 -42t26 -120q-8 -48 -46.5 -82.5t-88 -53.5l-98.5 -36.5t-86.5 -44.5t-44.5 -65h327l-11 -66h-408z" />
    <glyph glyph-name="three.onum" horiz-adv-x="516" 
d="M464 347q-20 -111 -118 -150q114 -34 90 -166q-18 -101 -78.5 -156t-188.5 -55q-85 0 -171 30l13 75q84 -37 170 -37q81 0 122.5 34.5t54.5 109.5q11 66 -12 98.5t-85 32.5h-82l12 64h82q45 0 73.5 30.5t38.5 85.5q9 50 -13.5 76t-87.5 26q-62 0 -94.5 -24.5t-40.5 -74.5
h-78q29 165 224 165q108 0 145 -44.5t24 -119.5z" />
    <glyph glyph-name="four.onum" horiz-adv-x="554" 
d="M291 -160l29 160h-320l10 59l376 441h100l-77 -434h76l-11 -66h-76l-29 -160h-78zM91 66h240l63 359z" />
    <glyph glyph-name="five.onum" horiz-adv-x="519" 
d="M154 -180q-87 0 -171 32l13 74q85 -38 169 -38q89 0 135 41.5t61 128.5q14 82 -10 114.5t-91 32.5q-72 0 -139 -40h-67l89 335h332l-12 -66h-267l-56 -210q69 40 147 40q93 0 132 -49t20 -158q-42 -237 -285 -237z" />
    <glyph glyph-name="six.onum" horiz-adv-x="527" 
d="M166 416l-13 -74q85 45 161 45q101 0 135 -46.5t17 -144.5q-36 -206 -242 -206q-115 0 -154 52.5t-17 173.5l35 199q21 118 80 171.5t164 53.5t144 -40t24 -130h-76q10 57 -12.5 80.5t-90.5 23.5q-70 0 -105 -34.5t-50 -123.5zM288 329q-65 0 -145 -44l-12 -69
q-17 -94 4.5 -127t98.5 -33q72 0 106.5 32t47.5 106q13 76 -7 105.5t-93 29.5z" />
    <glyph glyph-name="seven.onum" horiz-adv-x="474" 
d="M147 -170h-85l327 604h-313l12 66h394l-11 -58z" />
    <glyph glyph-name="eight.onum" horiz-adv-x="535" 
d="M266 352h47q48 0 80 29t41 80q11 62 -15.5 87.5t-89.5 25.5q-64 0 -99.5 -25.5t-46.5 -87.5q-9 -51 13 -80t70 -29zM237 55q75 0 113.5 27.5t49.5 89.5q9 52 -14.5 86t-83.5 34h-47q-60 0 -95.5 -34t-44.5 -86q-11 -62 18 -89.5t104 -27.5zM226 -11q-117 0 -162 41
t-28 135q21 120 151 156q-48 15 -68.5 54t-10.5 97q29 168 232 168q97 0 143 -39t30 -129q-22 -120 -132 -151q117 -36 96 -156q-17 -94 -75.5 -135t-175.5 -41z" />
    <glyph glyph-name="nine.onum" horiz-adv-x="515" 
d="M182 -180q-94 0 -164 31l13 72q82 -37 161 -37q75 0 107.5 29.5t48.5 119.5l17 97q-83 -43 -162 -43q-99 0 -134 50.5t-17 152.5q19 110 77.5 164t167.5 54q115 0 154 -53.5t18 -175.5l-44 -247q-20 -116 -76.5 -165t-166.5 -49zM230 148q70 0 145 42l16 89q16 92 -7 128
t-97 36q-71 0 -106.5 -35t-50.5 -114q-13 -76 8.5 -111t91.5 -35z" />
    <glyph glyph-name="zero.onum" 
d="M398 221l11 58q16 88 -10.5 126.5t-96.5 38.5q-71 0 -110 -38.5t-55 -126.5l-11 -58q-16 -88 10 -127t97 -39q70 0 109.5 39t55.5 127zM486 277l-9 -54q-41 -234 -255 -234t-173 234l9 54q41 233 255 233t173 -233z" />
    <glyph glyph-name="dollar.onum" horiz-adv-x="531" 
d="M452 139q-5 -31 -15 -53.5t-30.5 -44t-57 -34.5t-89.5 -16l-15 -86h-72l15 86q-90 6 -120 44.5t-18 110.5h78q-8 -49 14.5 -69.5t90.5 -20.5q76 0 104.5 20t36.5 63q8 41 -16 59t-101 25q-98 9 -134.5 42t-24.5 100q23 131 181 144l15 86h72l-15 -86q79 -6 109.5 -43
t17.5 -112h-78q8 46 -12.5 68.5t-84.5 22.5q-113 0 -127 -81q-7 -42 16 -60t88 -23q114 -10 149 -40.5t23 -101.5z" />
    <glyph glyph-name="cent.onum" horiz-adv-x="508" 
d="M301 445q-76 0 -110.5 -34t-52.5 -134l-9 -54q-18 -99 4.5 -133t98.5 -34q67 0 95.5 22t39.5 78h78q-15 -82 -60.5 -120.5t-128.5 -44.5l-15 -85h-72l15 86q-91 6 -123 57.5t-10 173.5l9 54q22 122 72.5 173.5t142.5 58.5l15 86h72l-15 -86q82 -6 114 -45t17 -120h-78
q9 56 -12 78.5t-87 22.5z" />
    <glyph glyph-name="sterling.onum" horiz-adv-x="563" 
d="M206 466q-10 -55 4 -144h120l-9 -53h-102q6 -53 0 -84q-16 -86 -70 -119h170q50 0 70.5 19t29.5 70h78q-15 -84 -55 -119.5t-122 -35.5h-310l11 66h8q104 3 123 115q6 32 -5 88h-90l9 53h68q-17 80 -6 145q30 173 217 173q100 0 137.5 -41.5t21.5 -130.5h-78
q10 57 -11 81t-80 24q-57 0 -88 -25.5t-41 -81.5z" />
    <glyph glyph-name="Euro.onum" horiz-adv-x="598" 
d="M407 349h-198l-12 -70h186l-17 -46h-177l-3 -17q-16 -91 9 -125.5t105 -34.5q72 0 107.5 28t48.5 98h78q-19 -104 -76.5 -148.5t-168.5 -44.5q-119 0 -161 51.5t-19 181.5l2 11h-63l8 46h63l12 70h-63l8 46h63l2 13q23 127 83 179.5t179 52.5q111 0 153.5 -44t23.5 -148
h-78q13 69 -13 97t-97 28q-79 0 -117.5 -34.5t-54.5 -124.5l-3 -19h207z" />
    <glyph glyph-name="yen.onum" horiz-adv-x="536" 
d="M76 142h139l11 65h-139l8 44h139l-124 379h89q12 -46 26.5 -96.5l32 -112l27.5 -96.5h2l194 305h89l-258 -379h139l-8 -44h-139l-11 -65h139l-8 -44h-139l-17 -98h-78l17 98h-139z" />
    <glyph glyph-name="numbersign.onum" horiz-adv-x="564" 
d="M495 220l-14 -54h-100l-44 -166h-61l44 166h-128l-44 -166h-60l43 166h-100l14 54h100l51 191h-100l14 54h100l45 165h60l-44 -165h128l44 165h61l-44 -165h100l-14 -54h-100l-51 -191h100zM257 411l-51 -191h128l51 191h-128z" />
    <glyph glyph-name="percent.onum" horiz-adv-x="683" 
d="M670 630l-555 -630h-71l554 630h72zM606 134q-14 -80 -51.5 -112.5t-108.5 -32.5t-97.5 32.5t-12.5 112.5q14 79 52 112t109 33q70 0 96.5 -33t12.5 -112zM377 496q-14 -80 -52.5 -112.5t-108.5 -32.5q-71 0 -97 32.5t-12 112.5q14 79 52 112t109 33q70 0 96.5 -33
t12.5 -112zM401 138q-10 -55 2 -75t52 -20q39 0 58.5 19t28.5 72q9 51 -4 70.5t-51 19.5q-39 0 -58.5 -19t-27.5 -67zM171 499q-10 -54 2.5 -73.5t52.5 -19.5q39 0 58.5 19t28.5 71t-3.5 71.5t-51.5 19.5q-38 0 -58 -19.5t-29 -68.5z" />
    <glyph glyph-name="a.smcp" horiz-adv-x="484" 
d="M344 0l-16 130h-207l-61 -130h-80l272 555h95l77 -555h-80zM286 483l-135 -285h170l-33 285h-2z" />
    <glyph glyph-name="b.smcp" horiz-adv-x="511" 
d="M20 0l97 555h200q98 0 134 -35t23 -109q-17 -98 -114 -129q55 -16 75.5 -48.5t11.5 -85.5q-14 -80 -65 -114t-152 -34h-210zM277 248h-136l-32 -182h131q65 0 93 20.5t37 69.5q8 48 -13 70t-80 22zM184 489l-31 -177h133q93 0 110 91q8 48 -12.5 67t-80.5 19h-119z" />
    <glyph glyph-name="c.smcp" horiz-adv-x="502" 
d="M224 56q66 0 96.5 23t41.5 80h78q-15 -86 -69 -127.5t-158 -41.5q-108 0 -148.5 45.5t-20.5 157.5l30 170q19 108 75.5 155t164.5 47q104 0 143 -41t24 -128h-78q11 56 -12 79.5t-89 23.5q-74 0 -106 -30.5t-44 -104.5l-31 -172q-13 -76 8 -106t95 -30z" />
    <glyph glyph-name="d.smcp" horiz-adv-x="515" 
d="M209 0h-189l97 555h189q113 0 157 -42.5t25 -154.5l-28 -159q-20 -112 -79.5 -155.5t-171.5 -43.5zM109 66h106q79 0 116 27.5t50 104.5l28 159q14 77 -13 104.5t-106 27.5h-106z" />
    <glyph glyph-name="e.smcp" horiz-adv-x="453" 
d="M385 312l-12 -64h-232l-32 -182h265l-11 -66h-343l97 555h343l-11 -66h-265l-31 -177h232z" />
    <glyph glyph-name="f.smcp" horiz-adv-x="425" 
d="M367 312l-12 -64h-214l-43 -248h-78l97 555h325l-11 -66h-247l-31 -177h214z" />
    <glyph glyph-name="g.smcp" horiz-adv-x="514" 
d="M214 -11q-109 0 -149.5 45.5t-20.5 158.5l30 172q19 107 74.5 154t164.5 47q104 0 142.5 -41.5t23.5 -128.5h-78q10 55 -12.5 79.5t-86.5 24.5q-72 0 -104.5 -30.5t-45.5 -104.5l-31 -173q-13 -76 8 -106.5t96 -30.5q126 0 142 97l17 92h-117l11 66h195l-54 -310h-38
l-7 50q-63 -61 -160 -61z" />
    <glyph glyph-name="h.smcp" horiz-adv-x="514" 
d="M511 555l-97 -555h-78l43 247h-238l-43 -247h-78l97 555h78l-42 -242h238l42 242h78z" />
    <glyph glyph-name="i.smcp" horiz-adv-x="198" 
d="M20 0l97 555h78l-97 -555h-78z" />
    <glyph glyph-name="j.smcp" horiz-adv-x="332" 
d="M240 489h-110l11 66h188l-77 -437q-11 -66 -48.5 -97t-108.5 -31q-52 0 -95 10l11 66q43 -10 83 -10q39 0 57 14.5t25 54.5z" />
    <glyph glyph-name="k.smcp" horiz-adv-x="452" 
d="M142 252l-44 -252h-78l97 555h78l-41 -236l234 236h96l-274 -268l182 -287h-95z" />
    <glyph glyph-name="l.smcp" horiz-adv-x="384" 
d="M20 0l97 555h78l-86 -489h206l-11 -66h-284z" />
    <glyph glyph-name="m.smcp" horiz-adv-x="658" 
d="M232 555l72 -459h2l233 459h116l-97 -555h-76l82 470l-241 -470h-69l-76 470l-82 -470h-76l97 555h115z" />
    <glyph glyph-name="n.smcp" horiz-adv-x="525" 
d="M522 555l-97 -555h-100l-150 453l-79 -453h-76l97 555h100l149 -453l80 453h76z" />
    <glyph glyph-name="o.smcp" horiz-adv-x="518" 
d="M384 196l29 163q15 82 -9 111.5t-97 29.5t-107 -29.5t-49 -111.5l-29 -163q-15 -82 9 -111.5t97 -29.5t107 29.5t49 111.5zM491 359l-29 -163q-20 -114 -78 -160.5t-167 -46.5q-110 0 -151.5 46.5t-21.5 160.5l29 163q20 114 77.5 160.5t167.5 46.5q109 0 151 -46.5
t22 -160.5z" />
    <glyph glyph-name="p.smcp" horiz-adv-x="493" 
d="M20 0l97 555h190q109 0 149.5 -38.5t23.5 -135.5q-17 -94 -71 -134t-161 -40h-114l-36 -207h-78zM184 489l-38 -216h114q69 0 100 24t42 84q10 62 -13.5 85t-92.5 23h-112z" />
    <glyph glyph-name="q.smcp" horiz-adv-x="518" 
d="M491 359l-29 -163q-18 -105 -69 -152.5t-143 -53.5q-3 -27 9 -37t44 -10h51l-26 -44h-54q-96 0 -89 91q-91 5 -125 52.5t-16 153.5l29 163q20 114 77.5 160.5t167.5 46.5q109 0 151 -46.5t22 -160.5zM384 196l29 163q15 82 -9 111.5t-97 29.5t-107 -29.5t-49 -111.5
l-29 -163q-15 -82 9 -111.5t97 -29.5t107 29.5t49 111.5z" />
    <glyph glyph-name="r.smcp" horiz-adv-x="505" 
d="M266 207h-132l-36 -207h-78l97 555h190q109 0 149.5 -38.5t23.5 -135.5q-25 -135 -135 -164l80 -217h-84zM184 489l-38 -216h114q69 0 100 24t42 84q10 62 -13.5 85t-92.5 23h-112z" />
    <glyph glyph-name="s.smcp" horiz-adv-x="487" 
d="M212 55q73 0 103 21.5t39 70.5q10 53 -10.5 75t-102.5 33q-100 13 -137 49t-24 109q14 74 69 113.5t149 39.5q101 0 140.5 -38.5t24.5 -124.5h-78q9 51 -11.5 74t-86.5 23q-113 0 -129 -89q-8 -47 14 -69t92 -29q116 -13 149 -51.5t19 -116.5t-68.5 -117t-162.5 -39
q-106 0 -148 38t-27 126h78q-10 -56 14.5 -77t93.5 -21z" />
    <glyph glyph-name="t.smcp" horiz-adv-x="438" 
d="M142 0l86 489h-152l11 66h378l-11 -66h-148l-86 -489h-78z" />
    <glyph glyph-name="u.smcp" horiz-adv-x="524" 
d="M117 555h78l-67 -380q-11 -67 11.5 -93.5t91.5 -26.5q70 0 102 26.5t43 93.5l67 380h78l-67 -380q-18 -102 -75.5 -144t-158.5 -42t-144.5 42.5t-25.5 143.5z" />
    <glyph glyph-name="v.smcp" horiz-adv-x="485" 
d="M158 555l54 -477h2l221 477h87l-273 -555h-92l-80 555h81z" />
    <glyph glyph-name="w.smcp" horiz-adv-x="779" 
d="M395 555h99l31 -467h2l185 467h84l-238 -555h-93l-32 482l-200 -482h-92l-44 555h79l25 -467h2z" />
    <glyph glyph-name="x.smcp" horiz-adv-x="469" 
d="M498 555l-211 -272l122 -283h-85l-89 224l-165 -224h-90l222 287l-118 268h86l84 -210l154 210h90z" />
    <glyph glyph-name="y.smcp" horiz-adv-x="455" 
d="M148 0l37 214l-108 341h79l77 -271h2l171 271h86l-229 -341l-37 -214h-78z" />
    <glyph glyph-name="z.smcp" horiz-adv-x="465" 
d="M105 489l11 66h356l-9 -55l-350 -434h283l-11 -66h-375l9 53l351 436h-265z" />
    <glyph glyph-name="ampersand.smcp" horiz-adv-x="611" 
d="M533 251h-77l-20 -113q-7 -40 7 -56t57 -16l-11 -66q-49 0 -74.5 13t-36.5 42q-57 -65 -173 -65q-93 0 -137.5 40t-31.5 117q9 49 41 85.5t81 54.5q-34 15 -51 47t-9 77q13 76 68 115.5t145 39.5q94 0 132.5 -40t23.5 -125h-79q9 52 -11 75.5t-76 23.5q-58 0 -87 -22
t-38 -74q-8 -44 11 -67.5t54 -23.5h303zM218 56q70 0 102.5 26t41.5 80l16 89h-148q-44 0 -75 -24.5t-39 -72.5q-9 -52 17.5 -75t84.5 -23z" />
    <glyph glyph-name="one.smcp" horiz-adv-x="306" 
d="M176 0h-78l86 490h-88l7 39l120 26h50z" />
    <glyph glyph-name="two.smcp" horiz-adv-x="508" 
d="M20 0l8 47q11 61 51 105.5t90.5 70.5t100.5 49t88 54.5t45 73.5q9 52 -11.5 76t-87.5 24q-65 0 -96 -24.5t-40 -78.5h-78q29 169 225 169q103 0 141.5 -42t24.5 -123q-10 -55 -48.5 -95t-88.5 -64.5l-99.5 -46.5t-87.5 -54t-47 -75h319l-11 -66h-398z" />
    <glyph glyph-name="three.smcp" horiz-adv-x="512" 
d="M158 397h-78q29 169 225 169q102 0 142.5 -40.5t25.5 -124.5q-15 -89 -106 -117q100 -26 82 -130q-15 -84 -71 -124.5t-165 -40.5q-108 0 -149.5 40t-26.5 129h76q-10 -57 12.5 -80t93.5 -23q73 0 107.5 23.5t44.5 78.5q16 93 -80 93h-76l11 64h76q39 0 62 24t30 61
q9 54 -13.5 77.5t-86.5 23.5q-62 0 -94 -23.5t-42 -79.5z" />
    <glyph glyph-name="four.smcp" horiz-adv-x="499" 
d="M282 0l21 120h-292l10 59l340 376h96l-65 -369h69l-11 -66h-69l-21 -120h-78zM105 186h209l51 288z" />
    <glyph glyph-name="five.smcp" horiz-adv-x="510" 
d="M143 255h-75l81 300h335l-11 -66h-267l-47 -175q75 43 146 43q91 0 127 -42t19 -138t-72.5 -142t-165.5 -46q-111 0 -150.5 45t-24.5 128h75q-9 -54 15 -80.5t91 -26.5q74 0 108 28.5t46 93.5q12 68 -10.5 95.5t-82.5 27.5q-69 0 -137 -45z" />
    <glyph glyph-name="six.smcp" horiz-adv-x="507" 
d="M151 359l-10 -58q77 40 152 40q100 0 134.5 -40.5t18.5 -131.5q-16 -92 -71.5 -136t-158.5 -44q-110 0 -151.5 45t-21.5 158l30 167q19 112 75 159.5t160 47.5q97 0 137.5 -36.5t26.5 -121.5h-78q9 50 -12.5 71t-83.5 21q-69 0 -101 -30.5t-46 -110.5zM269 285
q-62 0 -138 -38l-11 -61q-14 -77 11 -104t93 -27q66 0 99.5 27.5t44.5 87.5q12 66 -9 90.5t-90 24.5z" />
    <glyph glyph-name="seven.smcp" horiz-adv-x="434" 
d="M162 0h-85l290 489h-291l11 66h374l-10 -57z" />
    <glyph glyph-name="eight.smcp" horiz-adv-x="530" 
d="M225 -11q-113 0 -158.5 38t-31.5 118q19 108 141 138q-94 24 -75 135q26 148 221 148q94 0 140 -35.5t32 -112.5q-9 -51 -39.5 -87t-82.5 -48q112 -30 93 -138q-14 -81 -70.5 -118.5t-169.5 -37.5zM257 313h46q44 0 73.5 24.5t36.5 67.5q9 53 -15 74t-85 21
q-62 0 -94 -20.5t-41 -74.5q-8 -44 13 -68t66 -24zM291 253h-45q-59 0 -90.5 -27.5t-39.5 -70.5q-10 -53 17 -76.5t101 -23.5q73 0 108.5 23.5t45.5 76.5q7 42 -15.5 70t-81.5 28z" />
    <glyph glyph-name="nine.smcp" horiz-adv-x="507" 
d="M373 196l10 58q-77 -40 -152 -40q-100 0 -135 40.5t-18 131.5q16 92 73 136t160 44q109 0 149.5 -45t20.5 -158l-30 -167q-20 -114 -74 -160.5t-160 -46.5q-99 0 -139 36.5t-27 121.5h78q-8 -50 13.5 -71t83.5 -21q69 0 101 30.5t46 110.5zM255 270q62 0 138 38l11 61
q13 77 -11.5 104t-92.5 27q-66 0 -100 -27.5t-45 -87.5q-11 -66 10 -90.5t90 -24.5z" />
    <glyph glyph-name="zero.smcp" horiz-adv-x="507" 
d="M479 357l-28 -159q-19 -112 -76 -160.5t-162 -48.5t-146.5 49t-22.5 160l28 159q20 111 77.5 160t160.5 49q105 0 147 -49t22 -160zM373 198l28 159q14 80 -9 111.5t-91 31.5t-102.5 -31.5t-48.5 -111.5l-28 -159q-14 -80 9 -111.5t91 -31.5q69 0 103 31.5t48 111.5z" />
    <glyph glyph-name="dollar.smcp" horiz-adv-x="523" 
d="M452 166q-5 -31 -15 -53.5t-30.5 -44t-57 -34.5t-88.5 -16l-15 -86h-72l15 86q-91 6 -121.5 45t-17.5 110h78q-8 -49 14.5 -69.5t90.5 -20.5q76 0 104.5 20t36.5 63q7 41 -17 59t-100 25q-98 9 -134.5 42t-24.5 100q23 131 182 144l15 86h72l-15 -86q78 -6 108.5 -43
t17.5 -112h-78q8 46 -12.5 68.5t-84.5 22.5q-113 0 -128 -81q-7 -42 16.5 -60t88.5 -23q113 -10 148.5 -41t23.5 -101z" />
    <glyph glyph-name="cent.smcp" horiz-adv-x="526" 
d="M314 472q-77 0 -111 -34t-52 -133l-9 -54q-18 -100 4 -134t99 -34q66 0 95 22.5t40 78.5h78q-15 -82 -61 -121t-129 -45l-15 -85h-72l15 86q-91 6 -122.5 57.5t-9.5 174.5l9 54q22 122 72 173.5t142 57.5l15 87h72l-15 -86q82 -6 114 -45t18 -120h-78q8 56 -12.5 78
t-86.5 22z" />
    <glyph glyph-name="sterling.smcp" horiz-adv-x="547" 
d="M203 404q-9 -47 1 -114h113l-10 -54h-97q5 -33 -1 -62q-14 -79 -60 -108h155q50 0 71 17t29 62h78q-14 -80 -52.5 -112.5t-118.5 -32.5h-291l11 66q53 0 79.5 24.5t35.5 77.5q4 19 -3 68h-82l10 54h61q-15 67 -6 120q27 155 207 155q95 0 131 -39.5t21 -120.5h-78
q9 50 -11 72t-75 22q-53 0 -81.5 -23t-36.5 -72z" />
    <glyph glyph-name="Euro.smcp" horiz-adv-x="565" 
d="M382 305h-180l-10 -56h170l-17 -50h-161l-3 -16q-13 -74 9.5 -101t95.5 -27q67 0 98 22.5t41 81.5h78q-16 -92 -69 -131t-159 -39q-111 0 -151 45.5t-21 151.5l3 13h-61l8 50h61l10 56h-61l9 50h61l2 13q19 107 74 152.5t167 45.5q106 0 145.5 -38.5t23.5 -128.5h-78
q10 57 -13.5 79t-88.5 22q-73 0 -105.5 -28t-45.5 -101l-3 -16h188z" />
    <glyph glyph-name="yen.smcp" horiz-adv-x="504" 
d="M59 126h136l8 46h-136l9 50h136l-115 333h85l79 -268h2l173 268h85l-231 -333h136l-9 -50h-136l-8 -46h136l-9 -50h-136l-13 -76h-78l13 76h-136z" />
    <glyph glyph-name="numbersign.smcp" horiz-adv-x="549" 
d="M473 195l-15 -56h-89l-36 -139h-66l36 139h-114l-36 -139h-66l36 139h-89l15 56h89l44 166h-89l15 56h89l36 138h66l-36 -138h114l36 138h66l-36 -138h89l-15 -56h-89l-44 -166h89zM248 361l-44 -166h114l44 166h-114z" />
    <glyph glyph-name="percent.smcp" horiz-adv-x="598" 
d="M582 555l-475 -555h-74l475 555h74zM321 440q-12 -70 -44.5 -98t-94.5 -28t-84.5 28.5t-10.5 97.5q12 68 45 96.5t94 28.5t84 -28.5t11 -96.5zM147 442q-7 -45 2.5 -61t41.5 -16q31 0 47 15.5t23 59.5q7 43 -3 58.5t-41 15.5t-47 -15.5t-23 -56.5zM528 115
q-12 -69 -45 -97t-94 -28q-62 0 -85 28t-11 97t45 97.5t95 28.5q61 0 84 -28.5t11 -97.5zM354 118q-8 -45 2 -61.5t42 -16.5q31 0 46.5 15.5t23.5 59.5q7 43 -3 59t-41 16t-47 -16t-23 -56z" />
    <glyph glyph-name="one.tnum_smcp" horiz-adv-x="520" 
d="M126 66h77l75 423h-102l7 40l114 26h70l-86 -489h77l-11 -66h-232z" />
    <glyph glyph-name="two.tnum_smcp" horiz-adv-x="520" 
d="M21 0l8 47q11 62 51 107t90.5 71t100.5 49t88 54t45 72q9 52 -11.5 76t-87.5 24q-65 0 -96 -24.5t-40 -78.5h-78q29 169 225 169q103 0 141.5 -42t24.5 -123q-10 -55 -48.5 -95t-88.5 -64.5l-99.5 -46.5t-87.5 -54t-47 -75h319l-11 -66h-398z" />
    <glyph glyph-name="three.tnum_smcp" horiz-adv-x="520" 
d="M162 397h-78q29 169 225 169q102 0 142.5 -40.5t25.5 -124.5q-15 -89 -106 -117q100 -26 82 -130q-15 -84 -72.5 -124.5t-166.5 -40.5q-108 0 -148 40t-25 129h78q-10 -57 12.5 -80t93.5 -23q73 0 106.5 23t43.5 79q16 93 -80 93h-76l11 64h76q39 0 62 24t30 61
q9 54 -13.5 77.5t-86.5 23.5q-62 0 -94 -23.5t-42 -79.5z" />
    <glyph glyph-name="four.tnum_smcp" horiz-adv-x="520" 
d="M292 0l21 120h-292l10 59l345 376h91l-65 -369h69l-11 -66h-69l-21 -120h-78zM110 186h214l51 288z" />
    <glyph glyph-name="five.tnum_smcp" horiz-adv-x="520" 
d="M148 255h-75l81 300h335l-11 -66h-267l-47 -175q75 43 146 43q91 0 127 -42t19 -138t-73 -142t-167 -46t-149.5 45t-23.5 128h78q-9 -54 15 -80.5t91 -26.5q73 0 106 28.5t45 93.5q12 68 -10.5 95.5t-82.5 27.5q-69 0 -137 -45z" />
    <glyph glyph-name="six.tnum_smcp" horiz-adv-x="520" 
d="M157 359l-10 -58q77 40 152 40q100 0 134.5 -40.5t18.5 -131.5q-16 -92 -73 -136t-160 -44q-109 0 -149.5 45t-20.5 158l30 167q19 111 75.5 159t161.5 48q97 0 136.5 -36.5t25.5 -121.5h-78q9 50 -12.5 71t-83.5 21q-69 0 -101 -30.5t-46 -110.5zM275 285
q-62 0 -138 -38l-11 -61q-14 -77 11 -104t93 -27q66 0 99.5 27.5t44.5 87.5q12 66 -9 90.5t-90 24.5z" />
    <glyph glyph-name="seven.tnum_smcp" horiz-adv-x="520" 
d="M205 0h-83l290 489h-293l11 66h374l-10 -57z" />
    <glyph glyph-name="eight.tnum_smcp" horiz-adv-x="520" 
d="M218 -11q-113 0 -157.5 38t-30.5 118q19 108 141 138q-94 24 -75 135q26 148 223 148q94 0 139 -35.5t31 -112.5q-9 -51 -39.5 -87t-82.5 -48q112 -30 93 -138q-14 -80 -71.5 -118t-170.5 -38zM252 313h46q44 0 73.5 24.5t36.5 67.5q9 53 -15 74t-85 21q-62 0 -94 -20.5
t-41 -74.5q-8 -44 13 -68t66 -24zM286 253h-45q-59 0 -90.5 -27.5t-39.5 -70.5q-10 -53 17 -76.5t101 -23.5q73 0 108.5 23.5t45.5 76.5q7 42 -15.5 70t-81.5 28z" />
    <glyph glyph-name="nine.tnum_smcp" horiz-adv-x="520" 
d="M379 196l10 58q-77 -40 -152 -40q-100 0 -135 40.5t-18 131.5q16 92 73 136t160 44q109 0 149.5 -45t20.5 -158l-30 -167q-20 -112 -76.5 -159.5t-160.5 -47.5q-97 0 -136.5 36.5t-26.5 121.5h78q-8 -50 13.5 -71t83.5 -21q69 0 101 30.5t46 110.5zM261 270q62 0 138 38
l11 61q13 77 -11.5 104t-92.5 27q-66 0 -100 -27.5t-45 -87.5q-11 -66 10 -90.5t90 -24.5z" />
    <glyph glyph-name="zero.tnum_smcp" horiz-adv-x="520" 
d="M485 357l-28 -159q-19 -111 -77 -160t-163 -49t-145.5 49t-21.5 160l28 159q20 111 78.5 160t161.5 49q104 0 145.5 -49t21.5 -160zM379 198l28 159q14 80 -9 111.5t-91 31.5t-102.5 -31.5t-48.5 -111.5l-28 -159q-14 -80 9 -111.5t91 -31.5q69 0 103 31.5t48 111.5z" />
    <glyph glyph-name="dollar.tnum_smcp" horiz-adv-x="520" 
d="M450 166q-5 -31 -15 -53.5t-30.5 -44t-57 -34.5t-88.5 -16l-15 -86h-72l15 86q-91 6 -121.5 45t-17.5 110h78q-8 -49 14.5 -69.5t90.5 -20.5q76 0 104.5 20t36.5 63q7 41 -17 59t-100 25q-98 9 -134.5 42t-24.5 100q23 131 182 144l15 86h72l-15 -86q78 -6 108.5 -43
t17.5 -112h-78q8 46 -12.5 68.5t-84.5 22.5q-113 0 -128 -81q-7 -42 16.5 -60t88.5 -23q113 -10 148.5 -41t23.5 -101z" />
    <glyph glyph-name="cent.tnum_smcp" horiz-adv-x="520" 
d="M311 472q-77 0 -111 -34t-52 -133l-9 -54q-18 -100 4 -134t99 -34q66 0 95 22.5t40 78.5h78q-15 -82 -61 -121t-129 -45l-15 -85h-72l15 86q-91 6 -122.5 57.5t-9.5 174.5l9 54q22 122 72 173.5t142 57.5l15 87h72l-15 -86q82 -6 114 -45t18 -120h-78q8 56 -12.5 78
t-86.5 22z" />
    <glyph glyph-name="sterling.tnum_smcp" horiz-adv-x="520" 
d="M184 404q-9 -47 1 -114h113l-10 -54h-97q5 -33 -1 -62q-14 -79 -60 -108h155q50 0 71 17t29 62h78q-14 -80 -52.5 -112.5t-118.5 -32.5h-291l11 66q53 0 79.5 24.5t35.5 77.5q4 19 -3 68h-82l10 54h61q-15 67 -6 120q27 155 207 155q95 0 131 -39.5t21 -120.5h-78
q9 50 -11 72t-75 22q-53 0 -81.5 -23t-36.5 -72z" />
    <glyph glyph-name="Euro.tnum_smcp" horiz-adv-x="520" 
d="M359 305h-180l-10 -56h170l-17 -50h-161l-3 -16q-13 -74 9.5 -101t95.5 -27q67 0 98 22.5t41 81.5h78q-16 -92 -69 -131t-159 -39q-111 0 -151 45.5t-21 151.5l3 13h-61l8 50h61l10 56h-61l9 50h61l2 13q19 107 74 152.5t167 45.5q106 0 145.5 -38.5t23.5 -128.5h-78
q10 57 -13.5 79t-88.5 22q-73 0 -105.5 -28t-45.5 -101l-3 -16h188z" />
    <glyph glyph-name="yen.tnum_smcp" horiz-adv-x="520" 
d="M67 126h136l8 46h-136l9 50h136l-115 333h85l79 -268h2l173 268h85l-231 -333h136l-9 -50h-136l-8 -46h136l-9 -50h-136l-13 -76h-78l13 76h-136z" />
    <glyph glyph-name="numbersign.tnum_smcp" horiz-adv-x="520" 
d="M458 195l-15 -56h-89l-36 -139h-66l36 139h-114l-36 -139h-66l36 139h-89l15 56h89l44 166h-89l15 56h89l36 138h66l-36 -138h114l36 138h66l-36 -138h89l-15 -56h-89l-44 -166h89zM233 361l-44 -166h114l44 166h-114z" />
    <glyph glyph-name="percent.tnum_smcp" horiz-adv-x="520" 
d="M543 555l-475 -555h-74l475 555h74zM282 440q-12 -70 -44.5 -98t-94.5 -28t-84.5 28.5t-10.5 97.5q12 68 45 96.5t94 28.5t84 -28.5t11 -96.5zM108 442q-7 -45 2.5 -61t41.5 -16q31 0 47 15.5t23 59.5q7 43 -3 58.5t-41 15.5t-47 -15.5t-23 -56.5zM489 115
q-12 -69 -45 -97t-94 -28q-62 0 -85 28t-11 97t45 97.5t95 28.5q61 0 84 -28.5t11 -97.5zM315 118q-8 -45 2 -61.5t42 -16.5q31 0 46.5 15.5t23.5 59.5q7 43 -3 59t-41 16t-47 -16t-23 -56z" />
    <glyph glyph-name="acute.smcp" horiz-adv-x="243" 
d="M125 608l64 120h89l-102 -120h-51z" />
    <glyph glyph-name="grave.smcp" horiz-adv-x="243" 
d="M229 728l22 -120h-51l-60 120h89z" />
    <glyph glyph-name="circumflex.smcp" horiz-adv-x="336" 
d="M306 728l39 -120h-52l-42 71l-66 -71h-54l82 120h93z" />
    <glyph glyph-name="dieresis.smcp" horiz-adv-x="356" 
d="M134 616l14 77h77l-14 -77h-77zM279 616l14 77h76l-14 -77h-76z" />
    <glyph glyph-name="tilde.smcp" horiz-adv-x="404" 
d="M333 662q36 0 45 42h50q-18 -99 -98 -99q-31 0 -60 25t-48 25q-37 0 -44 -42h-49q17 99 97 99q30 0 59 -25t48 -25z" />
    <glyph glyph-name="caron.smcp" horiz-adv-x="336" 
d="M361 728l-81 -120h-93l-40 120h51l42 -70l66 70h55z" />
    <glyph glyph-name="ring.smcp" horiz-adv-x="317" 
d="M254 768q46 0 67.5 -21.5t14.5 -62.5t-36.5 -63t-75.5 -22t-68 22t-15 63q15 84 113 84zM232 641q46 0 54 43q8 41 -40 41q-46 0 -54 -41q-8 -43 40 -43z" />
    <glyph glyph-name="breve.smcp" horiz-adv-x="359" 
d="M245 598q-59 0 -83.5 33t-13.5 94h53q-13 -72 54 -72q64 0 77 72h53q-11 -61 -46.5 -94t-93.5 -33z" />
    <glyph glyph-name="macron.smcp" horiz-adv-x="370" 
d="M136 623l10 57h237l-10 -57h-237z" />
    <glyph glyph-name="dotaccent.smcp" horiz-adv-x="202" 
d="M129 616l14 78h79l-14 -78h-79z" />
    <glyph glyph-name="hungarumlaut.smcp" horiz-adv-x="360" 
d="M129 608l40 120h84l-75 -120h-49zM248 608l67 120h86l-102 -120h-51z" />
    <glyph glyph-name="aacute.smcp" horiz-adv-x="484" 
d="M344 0l-16 130h-207l-61 -130h-80l272 555h95l77 -555h-80zM286 483l-135 -285h170l-33 285h-2zM287 608l64 120h89l-102 -120h-51z" />
    <glyph glyph-name="agrave.smcp" horiz-adv-x="484" 
d="M344 0l-16 130h-207l-61 -130h-80l272 555h95l77 -555h-80zM286 483l-135 -285h170l-33 285h-2zM312 728l22 -120h-51l-60 120h89z" />
    <glyph glyph-name="acircumflex.smcp" horiz-adv-x="484" 
d="M344 0l-16 130h-207l-61 -130h-80l272 555h95l77 -555h-80zM286 483l-135 -285h170l-33 285h-2zM380 728l39 -120h-52l-42 71l-66 -71h-54l82 120h93z" />
    <glyph glyph-name="adieresis.smcp" horiz-adv-x="484" 
d="M344 0l-16 130h-207l-61 -130h-80l272 555h95l77 -555h-80zM286 483l-135 -285h170l-33 285h-2zM198 616l14 77h77l-14 -77h-77zM343 616l14 77h76l-14 -77h-76z" />
    <glyph glyph-name="atilde.smcp" horiz-adv-x="484" 
d="M344 0l-16 130h-207l-61 -130h-80l272 555h95l77 -555h-80zM286 483l-135 -285h170l-33 285h-2zM373 662q36 0 45 42h50q-18 -99 -98 -99q-31 0 -60 25t-48 25q-37 0 -44 -42h-49q17 99 97 99q30 0 59 -25t48 -25z" />
    <glyph glyph-name="aring.smcp" horiz-adv-x="484" 
d="M344 0l-16 130h-207l-61 -130h-80l272 555h95l77 -555h-80zM286 483l-135 -285h170l-33 285h-2zM337 768q46 0 67.5 -21.5t14.5 -62.5t-36.5 -63t-75.5 -22t-68 22t-15 63q15 84 113 84zM315 641q46 0 54 43q8 41 -40 41q-46 0 -54 -41q-8 -43 40 -43z" />
    <glyph glyph-name="amacron.smcp" horiz-adv-x="484" 
d="M344 0l-16 130h-207l-61 -130h-80l272 555h95l77 -555h-80zM286 483l-135 -285h170l-33 285h-2zM193 623l10 57h237l-10 -57h-237z" />
    <glyph glyph-name="abreve.smcp" horiz-adv-x="484" 
d="M344 0l-16 130h-207l-61 -130h-80l272 555h95l77 -555h-80zM286 483l-135 -285h170l-33 285h-2zM307 598q-59 0 -83.5 33t-13.5 94h53q-13 -72 54 -72q64 0 77 72h53q-11 -61 -46.5 -94t-93.5 -33z" />
    <glyph glyph-name="aogonek.smcp" horiz-adv-x="484" 
d="M403 -116l-9 -52h-42q-79 0 -67 68q7 46 60 86l-17 144h-207l-61 -130h-80l272 555h95l77 -555q-64 -38 -72 -82q-6 -34 33 -34h18zM286 483l-135 -285h170l-33 285h-2z" />
    <glyph glyph-name="ae.smcp" horiz-adv-x="780" 
d="M712 312l-12 -64h-232l-32 -182h265l-11 -66h-343l22 130h-211l-98 -130h-85l431 555h381l-11 -66h-265l-31 -177h232zM431 489l-223 -291h173l52 291h-2z" />
    <glyph glyph-name="bdotaccent.smcp" horiz-adv-x="511" 
d="M20 0l97 555h200q98 0 134 -35t23 -109q-17 -98 -114 -129q55 -16 75.5 -48.5t11.5 -85.5q-14 -80 -65 -114t-152 -34h-210zM277 248h-136l-32 -182h131q65 0 93 20.5t37 69.5q8 48 -13 70t-80 22zM184 489l-31 -177h133q93 0 110 91q8 48 -12.5 67t-80.5 19h-119z
M275 616l14 78h79l-14 -78h-79z" />
    <glyph glyph-name="cacute.smcp" horiz-adv-x="502" 
d="M224 56q66 0 96.5 23t41.5 80h78q-15 -86 -69 -127.5t-158 -41.5q-108 0 -148.5 45.5t-20.5 157.5l30 170q19 108 75.5 155t164.5 47q104 0 143 -41t24 -128h-78q11 56 -12 79.5t-89 23.5q-74 0 -106 -30.5t-44 -104.5l-31 -172q-13 -76 8 -106t95 -30zM304 608l64 120
h89l-102 -120h-51z" />
    <glyph glyph-name="ccircumflex.smcp" horiz-adv-x="502" 
d="M224 56q66 0 96.5 23t41.5 80h78q-15 -86 -69 -127.5t-158 -41.5q-108 0 -148.5 45.5t-20.5 157.5l30 170q19 108 75.5 155t164.5 47q104 0 143 -41t24 -128h-78q11 56 -12 79.5t-89 23.5q-74 0 -106 -30.5t-44 -104.5l-31 -172q-13 -76 8 -106t95 -30zM389 728l39 -120
h-52l-42 71l-66 -71h-54l82 120h93z" />
    <glyph glyph-name="ccaron.smcp" horiz-adv-x="502" 
d="M224 56q66 0 96.5 23t41.5 80h78q-15 -86 -69 -127.5t-158 -41.5q-108 0 -148.5 45.5t-20.5 157.5l30 170q19 108 75.5 155t164.5 47q104 0 143 -41t24 -128h-78q11 56 -12 79.5t-89 23.5q-74 0 -106 -30.5t-44 -104.5l-31 -172q-13 -76 8 -106t95 -30zM449 728l-81 -120
h-93l-40 120h51l42 -70l66 70h55z" />
    <glyph glyph-name="ccedilla.smcp" horiz-adv-x="502" 
d="M224 56q66 0 96.5 23t41.5 80h78q-15 -84 -65.5 -125t-148.5 -44l-17 -37q70 -7 59 -69q-8 -42 -35 -59.5t-86 -17.5h-56l8 43h59q50 0 55 34q3 17 -6 25t-34 8h-24l35 74q-92 5 -125 51t-15 151l30 170q19 108 75.5 155t164.5 47q104 0 143 -41t24 -128h-78
q11 56 -12 79.5t-89 23.5q-74 0 -106 -30.5t-44 -104.5l-31 -172q-13 -76 8 -106t95 -30z" />
    <glyph glyph-name="cdotaccent.smcp" horiz-adv-x="502" 
d="M224 56q66 0 96.5 23t41.5 80h78q-15 -86 -69 -127.5t-158 -41.5q-108 0 -148.5 45.5t-20.5 157.5l30 170q19 108 75.5 155t164.5 47q104 0 143 -41t24 -128h-78q11 56 -12 79.5t-89 23.5q-74 0 -106 -30.5t-44 -104.5l-31 -172q-13 -76 8 -106t95 -30zM288 616l14 78h79
l-14 -78h-79z" />
    <glyph glyph-name="dcaron.smcp" horiz-adv-x="515" 
d="M209 0h-189l97 555h189q113 0 157 -42.5t25 -154.5l-28 -159q-20 -112 -79.5 -155.5t-171.5 -43.5zM109 66h106q79 0 116 27.5t50 104.5l28 159q14 77 -13 104.5t-106 27.5h-106zM440 728l-81 -120h-93l-40 120h51l42 -70l66 70h55z" />
    <glyph glyph-name="ddotaccent.smcp" horiz-adv-x="515" 
d="M209 0h-189l97 555h189q113 0 157 -42.5t25 -154.5l-28 -159q-20 -112 -79.5 -155.5t-171.5 -43.5zM109 66h106q79 0 116 27.5t50 104.5l28 159q14 77 -13 104.5t-106 27.5h-106zM285 616l14 78h79l-14 -78h-79z" />
    <glyph glyph-name="dcroat.smcp" horiz-adv-x="525" 
d="M219 0h-189l44 250h-56l10 57h56l43 248h189q113 0 157 -42.5t25 -154.5l-28 -159q-20 -112 -79.5 -155.5t-171.5 -43.5zM119 66h106q79 0 116 27.5t50 104.5l28 159q14 77 -13 104.5t-106 27.5h-106l-32 -182h92l-10 -57h-92z" />
    <glyph glyph-name="eth.smcp" horiz-adv-x="525" 
d="M219 0h-189l44 250h-56l10 57h56l43 248h189q113 0 157 -42.5t25 -154.5l-28 -159q-20 -112 -79.5 -155.5t-171.5 -43.5zM119 66h106q79 0 116 27.5t50 104.5l28 159q14 77 -13 104.5t-106 27.5h-106l-32 -182h92l-10 -57h-92z" />
    <glyph glyph-name="eacute.smcp" horiz-adv-x="453" 
d="M385 312l-12 -64h-232l-32 -182h265l-11 -66h-343l97 555h343l-11 -66h-265l-31 -177h232zM286 608l64 120h89l-102 -120h-51z" />
    <glyph glyph-name="egrave.smcp" horiz-adv-x="453" 
d="M385 312l-12 -64h-232l-32 -182h265l-11 -66h-343l97 555h343l-11 -66h-265l-31 -177h232zM311 728l22 -120h-51l-60 120h89z" />
    <glyph glyph-name="ecircumflex.smcp" horiz-adv-x="453" 
d="M385 312l-12 -64h-232l-32 -182h265l-11 -66h-343l97 555h343l-11 -66h-265l-31 -177h232zM374 728l39 -120h-52l-42 71l-66 -71h-54l82 120h93z" />
    <glyph glyph-name="edieresis.smcp" horiz-adv-x="453" 
d="M385 312l-12 -64h-232l-32 -182h265l-11 -66h-343l97 555h343l-11 -66h-265l-31 -177h232zM187 616l14 77h77l-14 -77h-77zM332 616l14 77h76l-14 -77h-76z" />
    <glyph glyph-name="ecaron.smcp" horiz-adv-x="453" 
d="M385 312l-12 -64h-232l-32 -182h265l-11 -66h-343l97 555h343l-11 -66h-265l-31 -177h232zM424 728l-81 -120h-93l-40 120h51l42 -70l66 70h55z" />
    <glyph glyph-name="emacron.smcp" horiz-adv-x="453" 
d="M385 312l-12 -64h-232l-32 -182h265l-11 -66h-343l97 555h343l-11 -66h-265l-31 -177h232zM186 623l10 57h237l-10 -57h-237z" />
    <glyph glyph-name="ebreve.smcp" horiz-adv-x="453" 
d="M385 312l-12 -64h-232l-32 -182h265l-11 -66h-343l97 555h343l-11 -66h-265l-31 -177h232zM302 598q-59 0 -83.5 33t-13.5 94h53q-13 -72 54 -72q64 0 77 72h53q-11 -61 -46.5 -94t-93.5 -33z" />
    <glyph glyph-name="eogonek.smcp" horiz-adv-x="453" 
d="M304 0h-284l97 555h343l-11 -66h-265l-31 -177h232l-12 -64h-232l-32 -182h265l-11 -66q-69 -39 -76 -83q-7 -33 33 -33h20l-9 -54h-47q-75 0 -63 71q11 57 83 99z" />
    <glyph glyph-name="edotaccent.smcp" horiz-adv-x="453" 
d="M385 312l-12 -64h-232l-32 -182h265l-11 -66h-343l97 555h343l-11 -66h-265l-31 -177h232zM264 616l14 78h79l-14 -78h-79z" />
    <glyph glyph-name="fdotaccent.smcp" horiz-adv-x="425" 
d="M367 312l-12 -64h-214l-43 -248h-78l97 555h325l-11 -66h-247l-31 -177h214zM250 616l14 78h79l-14 -78h-79z" />
    <glyph glyph-name="gcircumflex.smcp" horiz-adv-x="514" 
d="M214 -11q-109 0 -149.5 45.5t-20.5 158.5l30 172q19 107 74.5 154t164.5 47q104 0 142.5 -41.5t23.5 -128.5h-78q10 55 -12.5 79.5t-86.5 24.5q-72 0 -104.5 -30.5t-45.5 -104.5l-31 -173q-13 -76 8 -106.5t96 -30.5q126 0 142 97l17 92h-117l11 66h195l-54 -310h-38
l-7 50q-63 -61 -160 -61zM395 728l39 -120h-52l-42 71l-66 -71h-54l82 120h93z" />
    <glyph glyph-name="gbreve.smcp" horiz-adv-x="514" 
d="M214 -11q-109 0 -149.5 45.5t-20.5 158.5l30 172q19 107 74.5 154t164.5 47q104 0 142.5 -41.5t23.5 -128.5h-78q10 55 -12.5 79.5t-86.5 24.5q-72 0 -104.5 -30.5t-45.5 -104.5l-31 -173q-13 -76 8 -106.5t96 -30.5q126 0 142 97l17 92h-117l11 66h195l-54 -310h-38
l-7 50q-63 -61 -160 -61zM322 598q-59 0 -83.5 33t-13.5 94h53q-13 -72 54 -72q64 0 77 72h53q-11 -61 -46.5 -94t-93.5 -33z" />
    <glyph glyph-name="gdotaccent.smcp" horiz-adv-x="514" 
d="M214 -11q-109 0 -149.5 45.5t-20.5 158.5l30 172q19 107 74.5 154t164.5 47q104 0 142.5 -41.5t23.5 -128.5h-78q10 55 -12.5 79.5t-86.5 24.5q-72 0 -104.5 -30.5t-45.5 -104.5l-31 -173q-13 -76 8 -106.5t96 -30.5q126 0 142 97l17 92h-117l11 66h195l-54 -310h-38
l-7 50q-63 -61 -160 -61zM285 616l14 78h79l-14 -78h-79z" />
    <glyph glyph-name="gcommaaccent.smcp" horiz-adv-x="514" 
d="M214 -11q-109 0 -149.5 45.5t-20.5 158.5l30 172q19 107 74.5 154t164.5 47q104 0 142.5 -41.5t23.5 -128.5h-78q10 55 -12.5 79.5t-86.5 24.5q-72 0 -104.5 -30.5t-45.5 -104.5l-31 -173q-13 -76 8 -106.5t96 -30.5q126 0 142 97l17 92h-117l11 66h195l-54 -310h-38
l-7 50q-63 -61 -160 -61zM113 -190l53 130h84l-82 -130h-55z" />
    <glyph glyph-name="hcircumflex.smcp" horiz-adv-x="514" 
d="M511 555l-97 -555h-78l43 247h-238l-43 -247h-78l97 555h78l-42 -242h238l42 242h78zM395 728l39 -120h-52l-42 71l-66 -71h-54l82 120h93z" />
    <glyph glyph-name="hbar.smcp" horiz-adv-x="514" 
d="M42 412l9 51h50l16 92h78l-16 -92h238l16 92h78l-16 -92h50l-9 -51h-50l-72 -412h-78l43 247h-238l-43 -247h-78l72 412h-50zM153 313h238l17 99h-238z" />
    <glyph glyph-name="iacute.smcp" horiz-adv-x="198" 
d="M20 0l97 555h78l-97 -555h-78zM145 608l64 120h89l-102 -120h-51z" />
    <glyph glyph-name="igrave.smcp" horiz-adv-x="198" 
d="M20 0l97 555h78l-97 -555h-78zM170 728l22 -120h-51l-60 120h89z" />
    <glyph glyph-name="icircumflex.smcp" horiz-adv-x="198" 
d="M20 0l97 555h78l-97 -555h-78zM237 728l39 -120h-52l-42 71l-66 -71h-54l82 120h93z" />
    <glyph glyph-name="idieresis.smcp" horiz-adv-x="198" 
d="M20 0l97 555h78l-97 -555h-78zM55 616l14 77h77l-14 -77h-77zM200 616l14 77h76l-14 -77h-76z" />
    <glyph glyph-name="itilde.smcp" horiz-adv-x="198" 
d="M20 0l97 555h78l-97 -555h-78zM230 662q36 0 45 42h50q-18 -99 -98 -99q-31 0 -60 25t-48 25q-37 0 -44 -42h-49q16 99 97 99q31 0 60 -25t47 -25z" />
    <glyph glyph-name="imacron.smcp" horiz-adv-x="198" 
d="M20 0l97 555h78l-97 -555h-78zM50 623l10 57h237l-10 -57h-237z" />
    <glyph glyph-name="ibreve.smcp" horiz-adv-x="198" 
d="M20 0l97 555h78l-97 -555h-78zM165 598q-59 0 -83.5 33t-13.5 94h53q-13 -72 54 -72q64 0 77 72h53q-11 -61 -46.5 -94t-93.5 -33z" />
    <glyph glyph-name="iogonek.smcp" horiz-adv-x="198" 
d="M-43 -99q8 48 60 85l100 569h78l-97 -555q-69 -39 -76 -83q-7 -33 33 -33h20l-9 -54h-47q-74 0 -62 71z" />
    <glyph glyph-name="jcircumflex.smcp" horiz-adv-x="332" 
d="M240 489h-110l11 66h188l-77 -437q-11 -66 -48.5 -97t-108.5 -31q-52 0 -95 10l11 66q43 -10 83 -10q39 0 57 14.5t25 54.5zM304 728l39 -120h-52l-42 71l-66 -71h-54l82 120h93z" />
    <glyph glyph-name="kcommaaccent.smcp" horiz-adv-x="452" 
d="M142 252l-44 -252h-78l97 555h78l-41 -236l234 236h96l-274 -268l182 -287h-95zM91 -190l53 130h84l-82 -130h-55z" />
    <glyph glyph-name="lacute.smcp" horiz-adv-x="384" 
d="M20 0l97 555h78l-86 -489h206l-11 -66h-284zM145 608l64 120h89l-102 -120h-51z" />
    <glyph glyph-name="lcaron.smcp" horiz-adv-x="384" 
d="M220 381l34 194h71l-60 -194h-45zM20 0l97 555h78l-86 -489h206l-11 -66h-284z" />
    <glyph glyph-name="lcommaaccent.smcp" horiz-adv-x="384" 
d="M20 0l97 555h78l-86 -489h206l-11 -66h-284zM57 -190l53 130h84l-82 -130h-55z" />
    <glyph glyph-name="ldot.smcp" horiz-adv-x="384" 
d="M205 245l14 80h82l-14 -80h-82zM20 0l97 555h78l-86 -489h206l-11 -66h-284z" />
    <glyph glyph-name="lslash.smcp" horiz-adv-x="395" 
d="M31 0l39 224l-65 -25l10 57l65 24l48 275h78l-43 -244l106 39l-10 -56l-106 -40l-33 -188h206l-11 -66h-284z" />
    <glyph glyph-name="mdotaccent.smcp" horiz-adv-x="658" 
d="M232 555l72 -459h2l233 459h116l-97 -555h-76l82 470l-241 -470h-69l-76 470l-82 -470h-76l97 555h115zM357 616l14 78h79l-14 -78h-79z" />
    <glyph glyph-name="nacute.smcp" horiz-adv-x="525" 
d="M522 555l-97 -555h-100l-150 453l-79 -453h-76l97 555h100l149 -453l80 453h76zM302 608l64 120h89l-102 -120h-51z" />
    <glyph glyph-name="ntilde.smcp" horiz-adv-x="525" 
d="M522 555l-97 -555h-100l-150 453l-79 -453h-76l97 555h100l149 -453l80 453h76zM393 662q36 0 45 42h50q-18 -99 -98 -99q-31 0 -60 25t-48 25q-37 0 -44 -42h-49q17 99 97 99q30 0 59 -25t48 -25z" />
    <glyph glyph-name="ncaron.smcp" horiz-adv-x="525" 
d="M522 555l-97 -555h-100l-150 453l-79 -453h-76l97 555h100l149 -453l80 453h76zM455 728l-81 -120h-93l-40 120h51l42 -70l66 70h55z" />
    <glyph glyph-name="ncommaaccent.smcp" horiz-adv-x="525" 
d="M522 555l-97 -555h-100l-150 453l-79 -453h-76l97 555h100l149 -453l80 453h76zM128 -190l53 130h84l-82 -130h-55z" />
    <glyph glyph-name="eng.smcp" horiz-adv-x="525" 
d="M522 555l-107 -607q-11 -66 -48.5 -97t-108.5 -31q-52 0 -95 10l11 66q43 -10 83 -10q39 0 57 14.5t25 55.5l-164 497l-79 -453h-76l97 555h100l149 -453l80 453h76z" />
    <glyph glyph-name="oacute.smcp" horiz-adv-x="518" 
d="M384 196l29 163q15 82 -9 111.5t-97 29.5t-107 -29.5t-49 -111.5l-29 -163q-15 -82 9 -111.5t97 -29.5t107 29.5t49 111.5zM491 359l-29 -163q-20 -114 -78 -160.5t-167 -46.5q-110 0 -151.5 46.5t-21.5 160.5l29 163q20 114 77.5 160.5t167.5 46.5q109 0 151 -46.5
t22 -160.5zM305 608l64 120h89l-102 -120h-51z" />
    <glyph glyph-name="ograve.smcp" horiz-adv-x="518" 
d="M384 196l29 163q15 82 -9 111.5t-97 29.5t-107 -29.5t-49 -111.5l-29 -163q-15 -82 9 -111.5t97 -29.5t107 29.5t49 111.5zM491 359l-29 -163q-20 -114 -78 -160.5t-167 -46.5q-110 0 -151.5 46.5t-21.5 160.5l29 163q20 114 77.5 160.5t167.5 46.5q109 0 151 -46.5
t22 -160.5zM333 728l22 -120h-51l-60 120h89z" />
    <glyph glyph-name="ocircumflex.smcp" horiz-adv-x="518" 
d="M384 196l29 163q15 82 -9 111.5t-97 29.5t-107 -29.5t-49 -111.5l-29 -163q-15 -82 9 -111.5t97 -29.5t107 29.5t49 111.5zM491 359l-29 -163q-20 -114 -78 -160.5t-167 -46.5q-110 0 -151.5 46.5t-21.5 160.5l29 163q20 114 77.5 160.5t167.5 46.5q109 0 151 -46.5
t22 -160.5zM397 728l39 -120h-52l-42 71l-66 -71h-54l82 120h93z" />
    <glyph glyph-name="odieresis.smcp" horiz-adv-x="518" 
d="M384 196l29 163q15 82 -9 111.5t-97 29.5t-107 -29.5t-49 -111.5l-29 -163q-15 -82 9 -111.5t97 -29.5t107 29.5t49 111.5zM491 359l-29 -163q-20 -114 -78 -160.5t-167 -46.5q-110 0 -151.5 46.5t-21.5 160.5l29 163q20 114 77.5 160.5t167.5 46.5q109 0 151 -46.5
t22 -160.5zM215 616l14 77h77l-14 -77h-77zM360 616l14 77h76l-14 -77h-76z" />
    <glyph glyph-name="otilde.smcp" horiz-adv-x="518" 
d="M384 196l29 163q15 82 -9 111.5t-97 29.5t-107 -29.5t-49 -111.5l-29 -163q-15 -82 9 -111.5t97 -29.5t107 29.5t49 111.5zM491 359l-29 -163q-20 -114 -78 -160.5t-167 -46.5q-110 0 -151.5 46.5t-21.5 160.5l29 163q20 114 77.5 160.5t167.5 46.5q109 0 151 -46.5
t22 -160.5zM390 662q36 0 45 42h50q-18 -99 -98 -99q-31 0 -60 25t-48 25q-37 0 -44 -42h-49q16 99 97 99q31 0 60 -25t47 -25z" />
    <glyph glyph-name="obreve.smcp" horiz-adv-x="518" 
d="M384 196l29 163q15 82 -9 111.5t-97 29.5t-107 -29.5t-49 -111.5l-29 -163q-15 -82 9 -111.5t97 -29.5t107 29.5t49 111.5zM491 359l-29 -163q-20 -114 -78 -160.5t-167 -46.5q-110 0 -151.5 46.5t-21.5 160.5l29 163q20 114 77.5 160.5t167.5 46.5q109 0 151 -46.5
t22 -160.5zM324 598q-59 0 -83.5 33t-13.5 94h53q-13 -72 54 -72q64 0 77 72h53q-11 -61 -46.5 -94t-93.5 -33z" />
    <glyph glyph-name="omacron.smcp" horiz-adv-x="518" 
d="M384 196l29 163q15 82 -9 111.5t-97 29.5t-107 -29.5t-49 -111.5l-29 -163q-15 -82 9 -111.5t97 -29.5t107 29.5t49 111.5zM491 359l-29 -163q-20 -114 -78 -160.5t-167 -46.5q-110 0 -151.5 46.5t-21.5 160.5l29 163q20 114 77.5 160.5t167.5 46.5q109 0 151 -46.5
t22 -160.5zM210 623l10 57h237l-10 -57h-237z" />
    <glyph glyph-name="ohungarumlaut.smcp" horiz-adv-x="518" 
d="M384 196l29 163q15 82 -9 111.5t-97 29.5t-107 -29.5t-49 -111.5l-29 -163q-15 -82 9 -111.5t97 -29.5t107 29.5t49 111.5zM491 359l-29 -163q-20 -114 -78 -160.5t-167 -46.5q-110 0 -151.5 46.5t-21.5 160.5l29 163q20 114 77.5 160.5t167.5 46.5q109 0 151 -46.5
t22 -160.5zM248 608l40 120h84l-75 -120h-49zM367 608l67 120h86l-102 -120h-51z" />
    <glyph glyph-name="oslash.smcp" horiz-adv-x="518" 
d="M491 359l-29 -163q-20 -114 -78 -160.5t-167 -46.5q-89 0 -132 29l-31 -38h-66l63 76q-23 47 -7 140l29 163q20 114 77.5 160.5t167.5 46.5q88 0 131 -29l32 38h66l-64 -77q24 -49 8 -139zM384 196l29 163q6 36 6 61l-284 -341q24 -24 93 -24q73 0 107 29.5t49 111.5z
M122 196q-7 -43 -6 -61l282 341q-23 24 -91 24q-73 0 -107 -29.5t-49 -111.5z" />
    <glyph glyph-name="oe.smcp" horiz-adv-x="771" 
d="M703 312l-12 -64h-232l-32 -182h265l-11 -66h-462q-112 0 -153.5 41.5t-21.5 154.5l29 163q20 113 75.5 154.5t167.5 41.5h462l-11 -66h-265l-31 -177h232zM349 66l75 423h-119q-75 0 -107.5 -24.5t-46.5 -105.5l-29 -163q-14 -81 9.5 -105.5t98.5 -24.5h119z" />
    <glyph glyph-name="thorn.smcp" horiz-adv-x="493" 
d="M166 386l-39 -217h112q69 0 101.5 23.5t43.5 85.5q10 62 -13.5 85t-92.5 23h-112zM195 555l-18 -103h112q109 0 149.5 -38.5t23.5 -135.5q-18 -98 -72 -136.5t-162 -38.5h-112l-18 -103h-78l97 555h78z" />
    <glyph glyph-name="pdotaccent.smcp" horiz-adv-x="493" 
d="M20 0l97 555h190q109 0 149.5 -38.5t23.5 -135.5q-17 -94 -71 -134t-161 -40h-114l-36 -207h-78zM184 489l-38 -216h114q69 0 100 24t42 84q10 62 -13.5 85t-92.5 23h-112zM274 616l14 78h79l-14 -78h-79z" />
    <glyph glyph-name="racute.smcp" horiz-adv-x="505" 
d="M266 207h-132l-36 -207h-78l97 555h190q109 0 149.5 -38.5t23.5 -135.5q-25 -135 -135 -164l80 -217h-84zM184 489l-38 -216h114q69 0 100 24t42 84q10 62 -13.5 85t-92.5 23h-112zM281 608l64 120h89l-102 -120h-51z" />
    <glyph glyph-name="rcaron.smcp" horiz-adv-x="505" 
d="M266 207h-132l-36 -207h-78l97 555h190q109 0 149.5 -38.5t23.5 -135.5q-25 -135 -135 -164l80 -217h-84zM184 489l-38 -216h114q69 0 100 24t42 84q10 62 -13.5 85t-92.5 23h-112zM437 728l-81 -120h-93l-40 120h51l42 -70l66 70h55z" />
    <glyph glyph-name="rcommaaccent.smcp" horiz-adv-x="505" 
d="M266 207h-132l-36 -207h-78l97 555h190q109 0 149.5 -38.5t23.5 -135.5q-25 -135 -135 -164l80 -217h-84zM184 489l-38 -216h114q69 0 100 24t42 84q10 62 -13.5 85t-92.5 23h-112zM118 -190l53 130h84l-82 -130h-55z" />
    <glyph glyph-name="sacute.smcp" horiz-adv-x="487" 
d="M212 55q73 0 103 21.5t39 70.5q10 53 -10.5 75t-102.5 33q-100 13 -137 49t-24 109q14 74 69 113.5t149 39.5q101 0 140.5 -38.5t24.5 -124.5h-78q9 51 -11.5 74t-86.5 23q-113 0 -129 -89q-8 -47 14 -69t92 -29q116 -13 149 -51.5t19 -116.5t-68.5 -117t-162.5 -39
q-106 0 -148 38t-27 126h78q-10 -56 14.5 -77t93.5 -21zM288 608l64 120h89l-102 -120h-51z" />
    <glyph glyph-name="scircumflex.smcp" horiz-adv-x="487" 
d="M212 55q73 0 103 21.5t39 70.5q10 53 -10.5 75t-102.5 33q-100 13 -137 49t-24 109q14 74 69 113.5t149 39.5q101 0 140.5 -38.5t24.5 -124.5h-78q9 51 -11.5 74t-86.5 23q-113 0 -129 -89q-8 -47 14 -69t92 -29q116 -13 149 -51.5t19 -116.5t-68.5 -117t-162.5 -39
q-106 0 -148 38t-27 126h78q-10 -56 14.5 -77t93.5 -21zM392 728l39 -120h-52l-42 71l-66 -71h-54l82 120h93z" />
    <glyph glyph-name="scaron.smcp" horiz-adv-x="487" 
d="M212 55q73 0 103 21.5t39 70.5q10 53 -10.5 75t-102.5 33q-100 13 -137 49t-24 109q14 74 69 113.5t149 39.5q101 0 140.5 -38.5t24.5 -124.5h-78q9 51 -11.5 74t-86.5 23q-113 0 -129 -89q-8 -47 14 -69t92 -29q116 -13 149 -51.5t19 -116.5t-68.5 -117t-162.5 -39
q-106 0 -148 38t-27 126h78q-10 -56 14.5 -77t93.5 -21zM450 728l-81 -120h-93l-40 120h51l42 -70l66 70h55z" />
    <glyph glyph-name="sdotaccent.smcp" horiz-adv-x="487" 
d="M212 55q73 0 103 21.5t39 70.5q10 53 -10.5 75t-102.5 33q-100 13 -137 49t-24 109q14 74 69 113.5t149 39.5q101 0 140.5 -38.5t24.5 -124.5h-78q9 51 -11.5 74t-86.5 23q-113 0 -129 -89q-8 -47 14 -69t92 -29q116 -13 149 -51.5t19 -116.5t-68.5 -117t-162.5 -39
q-106 0 -148 38t-27 126h78q-10 -56 14.5 -77t93.5 -21zM283 616l14 78h79l-14 -78h-79z" />
    <glyph glyph-name="scedilla.smcp" horiz-adv-x="487" 
d="M212 55q73 0 103 21.5t39 70.5q10 53 -10.5 75t-102.5 33q-100 13 -137 49t-24 109q14 74 69 113.5t149 39.5q101 0 140.5 -38.5t24.5 -124.5h-78q9 51 -11.5 74t-86.5 23q-113 0 -129 -89q-8 -47 14 -69t92 -29q116 -13 149 -51.5t19 -116.5q-13 -75 -64.5 -114
t-150.5 -42l-17 -36q70 -7 59 -69q-7 -41 -36.5 -59t-84.5 -18h-56l8 43h62q47 0 52 34q3 17 -6 25t-34 8h-24l35 73q-91 5 -127 42.5t-22 120.5h78q-10 -56 14.5 -77t93.5 -21z" />
    <glyph glyph-name="scommaaccent.smcp" horiz-adv-x="487" 
d="M212 55q73 0 103 21.5t39 70.5q10 53 -10.5 75t-102.5 33q-100 13 -137 49t-24 109q14 74 69 113.5t149 39.5q101 0 140.5 -38.5t24.5 -124.5h-78q9 51 -11.5 74t-86.5 23q-113 0 -129 -89q-8 -47 14 -69t92 -29q116 -13 149 -51.5t19 -116.5t-68.5 -117t-162.5 -39
q-106 0 -148 38t-27 126h78q-10 -56 14.5 -77t93.5 -21zM89 -190l53 130h84l-82 -130h-55z" />
    <glyph glyph-name="germandbls.smcp" horiz-adv-x="974" 
d="M212 55q73 0 103 21.5t39 70.5q10 53 -10.5 75t-102.5 33q-100 13 -137 49t-24 109q14 74 69 113.5t149 39.5q101 0 140.5 -38.5t24.5 -124.5h-78q9 51 -11.5 74t-86.5 23q-113 0 -129 -89q-8 -47 14 -69t92 -29q116 -13 149 -51.5t19 -116.5t-68.5 -117t-162.5 -39
q-106 0 -148 38t-27 126h78q-10 -56 14.5 -77t93.5 -21zM699 55q73 0 103 21.5t39 70.5q10 53 -10.5 75t-102.5 33q-100 13 -137 49t-24 109q14 74 69 113.5t149 39.5q101 0 140.5 -38.5t24.5 -124.5h-78q9 51 -11.5 74t-86.5 23q-113 0 -129 -89q-8 -47 14 -69t92 -29
q116 -13 149 -51.5t19 -116.5t-68.5 -117t-162.5 -39q-106 0 -148 38t-27 126h78q-10 -56 14.5 -77t93.5 -21z" />
    <glyph glyph-name="tcaron.smcp" horiz-adv-x="438" 
d="M142 0l86 489h-152l11 66h378l-11 -66h-148l-86 -489h-78zM412 728l-81 -120h-93l-40 120h51l42 -70l66 70h55z" />
    <glyph glyph-name="tdotaccent.smcp" horiz-adv-x="438" 
d="M142 0l86 489h-152l11 66h378l-11 -66h-148l-86 -489h-78zM250 616l14 78h79l-14 -78h-79z" />
    <glyph glyph-name="tcommaaccent.smcp" horiz-adv-x="438" 
d="M142 0l86 489h-152l11 66h378l-11 -66h-148l-86 -489h-78zM74 -190l53 130h84l-82 -130h-55z" />
    <glyph glyph-name="tbar.smcp" horiz-adv-x="438" 
d="M95 233l9 54h86l36 202h-150l11 66h378l-11 -66h-150l-36 -202h86l-9 -54h-86l-41 -233h-78l41 233h-86z" />
    <glyph glyph-name="uacute.smcp" horiz-adv-x="524" 
d="M117 555h78l-67 -380q-11 -67 11.5 -93.5t91.5 -26.5q70 0 102 26.5t43 93.5l67 380h78l-67 -380q-18 -102 -75.5 -144t-158.5 -42t-144.5 42.5t-25.5 143.5zM309 608l64 120h89l-102 -120h-51z" />
    <glyph glyph-name="ugrave.smcp" horiz-adv-x="524" 
d="M117 555h78l-67 -380q-11 -67 11.5 -93.5t91.5 -26.5q70 0 102 26.5t43 93.5l67 380h78l-67 -380q-18 -102 -75.5 -144t-158.5 -42t-144.5 42.5t-25.5 143.5zM331 728l22 -120h-51l-60 120h89z" />
    <glyph glyph-name="ucircumflex.smcp" horiz-adv-x="524" 
d="M117 555h78l-67 -380q-11 -67 11.5 -93.5t91.5 -26.5q70 0 102 26.5t43 93.5l67 380h78l-67 -380q-18 -102 -75.5 -144t-158.5 -42t-144.5 42.5t-25.5 143.5zM400 728l39 -120h-52l-42 71l-66 -71h-54l82 120h93z" />
    <glyph glyph-name="udieresis.smcp" horiz-adv-x="524" 
d="M117 555h78l-67 -380q-11 -67 11.5 -93.5t91.5 -26.5q70 0 102 26.5t43 93.5l67 380h78l-67 -380q-18 -102 -75.5 -144t-158.5 -42t-144.5 42.5t-25.5 143.5zM218 616l14 77h77l-14 -77h-77zM363 616l14 77h76l-14 -77h-76z" />
    <glyph glyph-name="utilde.smcp" horiz-adv-x="524" 
d="M117 555h78l-67 -380q-11 -67 11.5 -93.5t91.5 -26.5q70 0 102 26.5t43 93.5l67 380h78l-67 -380q-18 -102 -75.5 -144t-158.5 -42t-144.5 42.5t-25.5 143.5zM393 662q36 0 45 42h50q-18 -99 -98 -99q-31 0 -60 25t-48 25q-37 0 -44 -42h-49q17 99 97 99q30 0 59 -25
t48 -25z" />
    <glyph glyph-name="uring.smcp" horiz-adv-x="524" 
d="M117 555h78l-67 -380q-11 -67 11.5 -93.5t91.5 -26.5q70 0 102 26.5t43 93.5l67 380h78l-67 -380q-18 -102 -75.5 -144t-158.5 -42t-144.5 42.5t-25.5 143.5zM357 768q46 0 67.5 -21.5t14.5 -62.5t-36.5 -63t-75.5 -22t-68 22t-15 63q15 84 113 84zM335 641q46 0 54 43
q8 41 -40 41q-46 0 -54 -41q-8 -43 40 -43z" />
    <glyph glyph-name="ubreve.smcp" horiz-adv-x="524" 
d="M117 555h78l-67 -380q-11 -67 11.5 -93.5t91.5 -26.5q70 0 102 26.5t43 93.5l67 380h78l-67 -380q-18 -102 -75.5 -144t-158.5 -42t-144.5 42.5t-25.5 143.5zM327 598q-59 0 -83.5 33t-13.5 94h53q-13 -72 54 -72q64 0 77 72h53q-11 -61 -46.5 -94t-93.5 -33z" />
    <glyph glyph-name="umacron.smcp" horiz-adv-x="524" 
d="M117 555h78l-67 -380q-11 -67 11.5 -93.5t91.5 -26.5q70 0 102 26.5t43 93.5l67 380h78l-67 -380q-18 -102 -75.5 -144t-158.5 -42t-144.5 42.5t-25.5 143.5zM213 623l10 57h237l-10 -57h-237z" />
    <glyph glyph-name="uhungarumlaut.smcp" horiz-adv-x="524" 
d="M117 555h78l-67 -380q-11 -67 11.5 -93.5t91.5 -26.5q70 0 102 26.5t43 93.5l67 380h78l-67 -380q-18 -102 -75.5 -144t-158.5 -42t-144.5 42.5t-25.5 143.5zM247 608l40 120h84l-75 -120h-49zM366 608l67 120h86l-102 -120h-51z" />
    <glyph glyph-name="uogonek.smcp" horiz-adv-x="524" 
d="M286 -116l-9 -52h-42q-79 0 -67 68q9 50 65 89h-13q-101 0 -144.5 42.5t-25.5 143.5l67 380h78l-67 -380q-11 -67 11.5 -93.5t91.5 -26.5q70 0 102 26.5t43 93.5l67 380h78l-67 -380q-26 -150 -153 -178q-58 -37 -66 -79q-6 -34 33 -34h18z" />
    <glyph glyph-name="wacute.smcp" horiz-adv-x="779" 
d="M395 555h99l31 -467h2l185 467h84l-238 -555h-93l-32 482l-200 -482h-92l-44 555h79l25 -467h2zM433 608l64 120h89l-102 -120h-51z" />
    <glyph glyph-name="wgrave.smcp" horiz-adv-x="779" 
d="M395 555h99l31 -467h2l185 467h84l-238 -555h-93l-32 482l-200 -482h-92l-44 555h79l25 -467h2zM456 728l22 -120h-51l-60 120h89z" />
    <glyph glyph-name="wcircumflex.smcp" horiz-adv-x="779" 
d="M395 555h99l31 -467h2l185 467h84l-238 -555h-93l-32 482l-200 -482h-92l-44 555h79l25 -467h2zM527 728l39 -120h-52l-42 71l-66 -71h-54l82 120h93z" />
    <glyph glyph-name="wdieresis.smcp" horiz-adv-x="779" 
d="M395 555h99l31 -467h2l185 467h84l-238 -555h-93l-32 482l-200 -482h-92l-44 555h79l25 -467h2zM345 616l14 77h77l-14 -77h-77zM490 616l14 77h76l-14 -77h-76z" />
    <glyph glyph-name="yacute.smcp" horiz-adv-x="455" 
d="M148 0l37 214l-108 341h79l77 -271h2l171 271h86l-229 -341l-37 -214h-78zM273 608l64 120h89l-102 -120h-51z" />
    <glyph glyph-name="ygrave.smcp" horiz-adv-x="455" 
d="M148 0l37 214l-108 341h79l77 -271h2l171 271h86l-229 -341l-37 -214h-78zM295 728l22 -120h-51l-60 120h89z" />
    <glyph glyph-name="ycircumflex.smcp" horiz-adv-x="455" 
d="M148 0l37 214l-108 341h79l77 -271h2l171 271h86l-229 -341l-37 -214h-78zM365 728l39 -120h-52l-42 71l-66 -71h-54l82 120h93z" />
    <glyph glyph-name="ydieresis.smcp" horiz-adv-x="455" 
d="M148 0l37 214l-108 341h79l77 -271h2l171 271h86l-229 -341l-37 -214h-78zM183 616l14 77h77l-14 -77h-77zM328 616l14 77h76l-14 -77h-76z" />
    <glyph glyph-name="zacute.smcp" horiz-adv-x="465" 
d="M105 489l11 66h356l-9 -55l-350 -434h283l-11 -66h-375l9 53l351 436h-265zM270 608l64 120h89l-102 -120h-51z" />
    <glyph glyph-name="zcaron.smcp" horiz-adv-x="465" 
d="M105 489l11 66h356l-9 -55l-350 -434h283l-11 -66h-375l9 53l351 436h-265zM425 728l-81 -120h-93l-40 120h51l42 -70l66 70h55z" />
    <glyph glyph-name="zdotaccent.smcp" horiz-adv-x="465" 
d="M105 489l11 66h356l-9 -55l-350 -434h283l-11 -66h-375l9 53l351 436h-265zM260 616l14 78h79l-14 -78h-79z" />
    </font>
</defs>
</svg>
